M48
; DRILL file {KiCad (5.1.10)-1} date 03/17/22 16:17:42
; FORMAT={-:-/ absolute / inch / decimal}
; #@! TF.CreationDate,2022-03-17T16:17:42-06:00
; #@! TF.GenerationSoftware,Kicad,Pcbnew,(5.1.10)-1
; #@! TF.FileFunction,Plated,1,2,PTH
FMAT,2
INCH
T1C0.0118
T2C0.0150
T3C0.0157
T4C0.0197
T5C0.0320
T6C0.0394
T7C0.0906
T8C0.1250
%
G90
G05
T1
X2.3799Y-2.7972
X2.3809Y-3.1949
X2.4331Y-2.4646
X2.44Y-2.439
X2.4439Y-2.8012
X2.4636Y-3.1929
X2.5581Y-2.8327
X2.5807Y-2.3878
X2.6024Y-2.7776
X2.6811Y-2.8337
X2.7146Y-2.4783
X2.7274Y-2.7785
X2.7333Y-2.6467
X2.7539Y-2.2126
X2.7539Y-2.2673
X2.7726Y-2.7825
X2.8711Y-2.6339
X2.9345Y-2.5714
X3.0591Y-2.2726
X3.1191Y-1.9912
X3.123Y-2.2087
X3.1752Y-2.4567
X3.1821Y-2.3681
X3.2146Y-2.565
X3.2283Y-2.1073
X3.2283Y-2.7569
X3.2352Y-1.9911
X3.251Y-2.1299
X3.2687Y-2.2707
X3.2687Y-2.3396
X3.2687Y-2.3888
X3.2982Y-2.1998
X3.3081Y-2.3937
X3.3081Y-2.5955
X3.3219Y-2.2638
X3.373Y-2.1299
X3.376Y-2.6181
X3.3947Y-2.4478
X3.4055Y-1.9774
X3.4449Y-2.4872
X3.4459Y-2.3681
X3.4488Y-2.0492
X3.4809Y-2.101
X3.4951Y-2.127
X3.5256Y-2.3071
X3.5285Y-2.3839
X3.5335Y-2.4084
X3.5512Y-2.3494
X3.5709Y-2.4911
X3.6142Y-2.5404
X3.627Y-2.7431
X3.6634Y-2.8602
X3.6663Y-2.8366
X3.6673Y-2.5591
X3.6747Y-2.4139
X3.6831Y-2.3937
X3.7323Y-2.8209
X3.747Y-2.8445
X3.7844Y-2.5551
X3.8583Y-2.8593
X3.8691Y-2.1831
X3.872Y-2.1083
X3.9232Y-2.4321
X3.9311Y-2.4055
X3.9419Y-2.9001
X3.9656Y-1.9941
X3.9675Y-2.564
X3.9902Y-2.8376
X4.0108Y-2.126
X4.0197Y-2.5591
X4.0787Y-3.1004
X4.0827Y-2.8996
X4.0866Y-1.8957
X4.0999Y-1.7958
X4.1073Y-2.0177
X4.1152Y-3.1604
X4.128Y-1.8917
X4.1363Y-1.8046
X4.1457Y-3.0689
X4.1781Y-3.1624
X4.1969Y-2.4213
X4.1969Y-2.8406
X4.2077Y-2.4478
X4.2323Y-3.0039
X4.262Y-2.286
X4.262Y-2.936
X4.2736Y-2.5128
X4.2874Y-3.0122
X4.2933Y-3.3041
X4.311Y-3.0374
X4.312Y-2.286
X4.313Y-2.2362
X4.315Y-2.061
X4.3287Y-2.5148
X4.3337Y-2.2209
X4.3346Y-2.9902
X4.3376Y-2.1142
X4.3376Y-2.4154
X4.3563Y-3.0118
X4.3612Y-2.3091
X4.3671Y-2.0561
X4.3747Y-2.9682
X4.3795Y-2.867
X4.3907Y-2.844
X4.3957Y-2.9075
X4.4055Y-3.1594
X4.4055Y-3.2717
X4.4072Y-3.0974
X4.4247Y-2.2683
X4.4281Y-2.9114
X4.4445Y-3.1516
X4.4478Y-2.1083
X4.4488Y-3.2933
X4.474Y-2.917
X4.512Y-2.736
X4.5364Y-2.3976
X4.5374Y-2.2628
X4.5453Y-2.1634
X4.565Y-3.3839
X4.5847Y-2.3808
X4.5896Y-2.3041
X4.6073Y-3.1713
X4.6299Y-2.2185
X4.6348Y-2.0739
X4.687Y-2.1634
X4.6998Y-3.1378
X4.7215Y-1.8593
X4.7343Y-2.6634
X4.7411Y-2.1112
X4.7421Y-2.1634
X4.7431Y-2.0236
X4.7835Y-3.2785
X4.7874Y-2.8976
X4.812Y-3.036
X4.8622Y-2.8366
X4.8642Y-3.0581
X4.908Y-3.442
X4.9085Y-3.4016
X4.9242Y-3.2057
X4.937Y-3.0
X4.9449Y-3.061
X4.9459Y-2.1663
X4.9577Y-3.4409
X4.9626Y-2.3366
X4.9643Y-3.0337
X4.9783Y-2.2598
X4.9862Y-2.124
X4.9895Y-2.8596
X4.9921Y-2.9587
X4.9961Y-2.0551
X5.0118Y-2.3366
X5.0197Y-1.9075
X5.0217Y-1.937
X5.0314Y-3.002
X5.0374Y-2.4665
X5.0394Y-2.4114
X5.061Y-2.2598
X5.0625Y-3.0355
X5.0787Y-2.0226
X5.1102Y-3.2972
X5.1122Y-2.2854
X5.1181Y-2.0305
X5.1309Y-1.937
X5.1309Y-1.9075
X5.1614Y-2.1358
X5.1634Y-3.248
X5.212Y-2.1856
X5.2913Y-2.3416
X5.2913Y-2.2878
X5.2943Y-2.7904
X5.2949Y-2.8166
X5.311Y-2.4094
X5.3209Y-2.5335
X5.3209Y-2.6811
X5.3307Y-2.75
X5.3415Y-2.7254
X5.3504Y-2.4469
X5.3543Y-2.8169
X5.3553Y-2.7884
X5.3701Y-2.2874
X5.3799Y-2.6201
X5.3996Y-2.6378
X5.4203Y-2.5364
X5.4242Y-2.4252
X5.4587Y-2.0846
X5.4646Y-2.8484
X5.4803Y-2.2933
X5.4961Y-2.1319
X5.5Y-2.3819
X5.5157Y-2.4685
X5.5276Y-2.2953
X5.5335Y-1.9075
X5.5343Y-2.3416
X5.5374Y-1.9665
X5.5531Y-1.8642
X5.561Y-2.0787
X5.5777Y-2.4547
X5.579Y-2.3883
X5.5807Y-2.2441
X5.5925Y-2.7559
X5.6024Y-2.4129
X5.6112Y-4.3878
X5.622Y-1.9232
X5.627Y-2.1103
X5.6516Y-2.313
X5.6634Y-2.748
X5.6929Y-2.0138
X5.6969Y-2.2244
X5.7028Y-4.4124
X5.7028Y-4.4321
X5.7682Y-4.4877
X5.7736Y-2.1614
X5.7825Y-4.4124
X5.7825Y-4.4321
X5.7933Y-2.1378
X5.7938Y-4.4877
X5.8012Y-2.0256
X5.8169Y-2.1594
X5.8193Y-4.5285
X5.936Y-2.6171
X5.9862Y-2.1283
X5.9862Y-2.2051
X6.0Y-2.4154
X6.0591Y-2.5492
X6.0787Y-2.3524
X6.0984Y-2.3622
X6.0984Y-2.4059
X6.126Y-2.4433
X6.1476Y-2.6319
X6.1654Y-2.5728
X6.1673Y-2.3543
X6.1713Y-2.378
X6.1769Y-2.404
X6.2126Y-2.124
X6.2258Y-2.2434
X6.2258Y-2.2828
X6.2402Y-2.5709
X6.2514Y-2.1588
X6.2598Y-2.3031
X6.2657Y-2.0118
X6.2943Y-2.0719
X6.314Y-2.0915
X6.3286Y-2.1588
X6.3307Y-1.9744
X6.3346Y-2.0394
X6.3406Y-2.1201
X6.4449Y-1.9665
X6.4892Y-2.1348
X6.5073Y-2.1588
X6.5177Y-1.75
X6.5197Y-1.8031
X6.5335Y-2.0157
X6.5433Y-1.748
X6.5433Y-1.8031
X6.5472Y-2.1575
X6.561Y-2.0768
X6.565Y-2.5
X6.5846Y-2.5161
X6.5906Y-2.1555
X6.6004Y-2.0886
X6.6248Y-2.3222
X6.6339Y-3.4882
X6.6417Y-2.1181
X6.7185Y-2.3615
X6.7323Y-2.3418
X6.7323Y-2.4252
X6.7402Y-2.4659
X6.7844Y-2.2303
X6.8091Y-2.2169
X6.8114Y-2.2964
X6.833Y-2.2758
X6.8415Y-2.2185
X6.8433Y-2.3752
X6.8436Y-2.3417
X6.8465Y-2.4685
X6.8484Y-2.1224
X6.8683Y-2.389
X6.8701Y-2.2307
X6.874Y-2.272
X6.9193Y-2.2287
X6.9193Y-2.2691
X6.9252Y-2.3961
X6.9419Y-2.5
X6.9606Y-2.4728
X6.9724Y-2.5102
X7.0422Y-2.3755
X7.067Y-2.2888
X7.07Y-2.2614
X7.0937Y-2.3466
X7.1004Y-2.3199
X7.1634Y-2.1205
X7.187Y-1.772
T2
X7.15Y-2.178
X7.15Y-2.422
T3
X2.1407Y-4.376
X2.144Y-4.171
X2.2982Y-2.8514
X2.3002Y-3.2736
X2.4419Y-2.1063
X2.4951Y-2.7657
X2.6634Y-2.2844
X3.4892Y-2.3071
X3.811Y-2.786
X3.8602Y-2.374
X3.878Y-2.2146
X3.8839Y-2.252
X3.9558Y-2.1146
X3.968Y-2.592
X3.9744Y-2.2106
X3.9783Y-2.2484
X3.9783Y-2.372
X3.997Y-2.64
X3.998Y-2.1565
X4.051Y-2.743
X4.057Y-2.275
X4.091Y-2.043
X4.098Y-2.81
X4.118Y-2.656
X4.121Y-2.501
X4.131Y-2.583
X4.155Y-2.2076
X4.2205Y-3.4531
X4.2283Y-3.1067
X4.2441Y-3.2957
X4.252Y-1.9413
X4.262Y-2.336
X4.262Y-2.3919
X4.262Y-2.8367
X4.2625Y-2.1344
X4.2638Y-2.6358
X4.2649Y-2.4331
X4.2854Y-2.7126
X4.2874Y-2.5535
X4.2874Y-2.7618
X4.2874Y-2.7618
X4.2903Y-3.2012
X4.3031Y-3.3429
X4.311Y-2.8858
X4.3119Y-2.6361
X4.312Y-2.336
X4.312Y-2.3919
X4.312Y-2.436
X4.312Y-2.486
X4.312Y-2.136
X4.3365Y-2.1605
X4.3366Y-2.6106
X4.362Y-2.086
X4.362Y-2.336
X4.362Y-2.736
X4.362Y-2.936
X4.3858Y-2.8075
X4.388Y-2.162
X4.412Y-2.336
X4.412Y-2.736
X4.437Y-2.8587
X4.4561Y-2.1358
X4.4576Y-3.1159
X4.462Y-2.736
X4.4626Y-2.2346
X4.4715Y-1.9311
X4.4816Y-3.0899
X4.4862Y-2.8094
X4.5059Y-2.0945
X4.5118Y-2.2858
X4.512Y-2.986
X4.5294Y-3.0699
X4.533Y-3.247
X4.5354Y-2.6614
X4.5551Y-3.2028
X4.5596Y-3.0351
X4.562Y-2.136
X4.562Y-2.436
X4.5866Y-3.0122
X4.5886Y-2.8091
X4.5906Y-3.3193
X4.612Y-2.136
X4.6142Y-2.9846
X4.6304Y-3.1066
X4.662Y-2.086
X4.6634Y-2.4862
X4.6644Y-2.5302
X4.687Y-2.8632
X4.689Y-2.7106
X4.712Y-2.436
X4.712Y-2.536
X4.7149Y-2.1389
X4.7152Y-2.5865
X4.7244Y-3.3917
X4.7362Y-2.8587
X4.745Y-1.805
X4.762Y-2.086
X4.762Y-2.136
X4.762Y-2.486
X4.762Y-2.586
X4.762Y-2.886
X4.764Y-3.095
X4.7717Y-3.5476
X4.774Y-2.01
X4.787Y-2.662
X4.812Y-2.136
X4.812Y-2.686
X4.83Y-3.224
X4.837Y-2.662
X4.847Y-1.9453
X4.862Y-2.136
X4.862Y-2.486
X4.862Y-2.736
X4.8652Y-2.6808
X4.8858Y-3.0098
X4.8898Y-3.2327
X4.9084Y-2.086
X4.9084Y-2.136
X4.912Y-2.436
X4.912Y-2.486
X4.936Y-2.664
X4.9606Y-2.1358
X4.962Y-2.486
X4.962Y-2.936
X5.0256Y-3.8646
X5.0256Y-3.937
X5.0276Y-3.9882
X5.0295Y-3.1398
X5.1043Y-3.189
X5.122Y-2.1161
X5.124Y-3.4626
X5.187Y-2.3114
X5.2162Y-3.2566
X5.2283Y-3.0807
X5.2545Y-3.277
X5.2618Y-3.3661
X5.2648Y-3.8947
X5.3268Y-3.2563
X5.3386Y-4.1447
X5.3494Y-4.0443
X5.366Y-2.243
X5.3666Y-2.3843
X5.372Y-3.0827
X5.3863Y-2.7348
X5.3878Y-3.2441
X5.4222Y-3.4006
X5.4409Y-3.2835
X5.4567Y-2.3843
X5.4626Y-2.2102
X5.4685Y-4.0256
X5.498Y-2.2228
X5.5157Y-2.3209
X5.5177Y-3.2618
X5.5256Y-2.7323
X5.5354Y-4.3193
X5.557Y-2.7
X5.57Y-4.594
X5.5906Y-3.3071
X5.5906Y-3.4886
X5.5925Y-2.937
X5.5945Y-3.5437
X5.5945Y-3.5831
X5.5945Y-3.9138
X5.5945Y-4.1736
X5.6024Y-2.4783
X5.6024Y-2.7
X5.6063Y-2.0122
X5.6063Y-4.1303
X5.6122Y-3.3705
X5.6161Y-2.2839
X5.6299Y-4.0201
X5.6358Y-2.8524
X5.6416Y-2.4774
X5.6457Y-4.2406
X5.6543Y-2.4421
X5.6673Y-3.7224
X5.6732Y-2.2425
X5.687Y-4.37
X5.6949Y-2.6024
X5.6988Y-2.7146
X5.7441Y-2.1299
X5.75Y-2.5512
X5.7579Y-2.4764
X5.7736Y-3.5157
X5.7835Y-2.3134
X5.8248Y-3.878
X5.836Y-4.314
X5.845Y-4.438
X5.8583Y-2.1457
X5.8642Y-2.3661
X5.8661Y-2.4217
X5.9016Y-3.4154
X5.9035Y-3.2933
X5.935Y-2.0217
X5.9429Y-2.2406
X6.056Y-4.593
X6.0591Y-3.3957
X6.0787Y-2.2126
X6.0866Y-3.4331
X6.09Y-2.1358
X6.1909Y-2.2169
X6.1944Y-2.0734
X6.2185Y-2.5122
X6.2205Y-4.5949
X6.2402Y-3.6969
X6.268Y-2.463
X6.2729Y-2.1929
X6.2835Y-4.15
X6.3543Y-4.0988
X6.367Y-2.059
X6.39Y-2.314
X6.4114Y-3.5641
X6.4482Y-2.1962
X6.4488Y-2.6476
X6.4488Y-2.7224
X6.491Y-2.632
X6.4921Y-3.6516
X6.4941Y-3.4902
X6.5059Y-3.2894
X6.5059Y-3.4114
X6.5276Y-2.1106
X6.563Y-3.563
X6.624Y-2.209
X6.625Y-2.429
X6.626Y-4.0673
X6.638Y-2.561
X6.6457Y-4.3862
X6.6673Y-2.628
X6.672Y-4.594
X6.7362Y-2.7972
X6.739Y-2.207
X6.7598Y-2.5319
X6.7874Y-2.4295
X6.815Y-4.519
X7.07Y-2.224
X7.0758Y-2.3868
T4
X2.4843Y-2.5679
X2.5258Y-2.0573
X2.5541Y-2.1004
X2.5571Y-2.3514
X2.562Y-2.2067
X2.5915Y-2.3474
X2.6021Y-1.981
X2.6321Y-2.0179
X2.6624Y-2.1998
X2.6654Y-1.9134
X2.6693Y-2.1299
X2.6703Y-2.1644
X2.6791Y-1.9724
X2.6959Y-2.3346
X2.7234Y-2.3927
X2.7411Y-2.1417
X3.1033Y-1.9508
X3.1112Y-2.125
X3.1447Y-2.1535
X3.1644Y-2.3907
X3.2303Y-2.2972
X3.5295Y-2.1152
X4.0945Y-2.376
X4.1319Y-2.9783
X4.2421Y-3.3583
X4.3504Y-3.1358
X4.8091Y-3.0807
X4.812Y-2.986
X4.8701Y-3.0866
X4.9114Y-2.3858
X4.962Y-2.386
X5.0096Y-2.4384
X5.0118Y-2.386
X5.0148Y-2.1516
X5.2854Y-3.0236
X5.2933Y-2.6358
X5.3445Y-2.5846
X5.5294Y-2.5689
X5.7795Y-2.6299
X5.9134Y-2.3514
X5.9764Y-2.6476
X6.4508Y-1.9035
T5
X2.5866Y-2.69
X2.6772Y-2.6683
X3.313Y-2.6909
X3.4213Y-2.6939
X4.0266Y-2.9439
X5.2421Y-1.8474
X5.336Y-2.118
X5.3386Y-1.8435
T6
X6.7386Y-3.2122
X6.7386Y-3.3106
X6.7386Y-3.3894
X6.7386Y-3.4878
T7
X6.8453Y-3.0913
X6.8453Y-3.6087
T8
X2.132Y-1.671
X2.133Y-4.519
X7.116Y-1.673
X7.117Y-4.515
T6
G00X2.1897Y-3.8948
M15
G01X2.1897Y-3.8712
M16
G05
G00X2.3196Y-4.068
M15
G01X2.296Y-4.068
M16
G05
G00X2.4259Y-3.8948
M15
G01X2.4259Y-3.8712
M16
G05
T0
M30
