%TF.GenerationSoftware,KiCad,Pcbnew,(5.1.10)-1*%
%TF.CreationDate,2022-03-17T16:17:32-06:00*%
%TF.ProjectId,BeagleBone_Black_Wireless,42656167-6c65-4426-9f6e-655f426c6163,rev?*%
%TF.SameCoordinates,Original*%
%TF.FileFunction,Legend,Top*%
%TF.FilePolarity,Positive*%
%FSLAX46Y46*%
G04 Gerber Fmt 4.6, Leading zero omitted, Abs format (unit mm)*
G04 Created by KiCad (PCBNEW (5.1.10)-1) date 2022-03-17 16:17:32*
%MOMM*%
%LPD*%
G01*
G04 APERTURE LIST*
%ADD10C,0.300000*%
%ADD11C,0.400000*%
%ADD12C,0.127000*%
%ADD13C,0.200000*%
%ADD14C,0.100000*%
%ADD15C,0.038100*%
%ADD16C,0.203200*%
%ADD17C,0.152400*%
%ADD18C,0.304800*%
%ADD19C,0.254000*%
%ADD20C,0.150000*%
%ADD21C,0.115824*%
%ADD22C,0.097536*%
%ADD23C,0.048768*%
%ADD24C,0.020320*%
%ADD25C,0.121920*%
%ADD26C,0.144780*%
%ADD27C,0.090000*%
%ADD28C,0.070000*%
G04 APERTURE END LIST*
D10*
X65628571Y-107510714D02*
X65557142Y-107582142D01*
X65342857Y-107653571D01*
X65199999Y-107653571D01*
X64985714Y-107582142D01*
X64842857Y-107439285D01*
X64771428Y-107296428D01*
X64699999Y-107010714D01*
X64699999Y-106796428D01*
X64771428Y-106510714D01*
X64842857Y-106367857D01*
X64985714Y-106225000D01*
X65199999Y-106153571D01*
X65342857Y-106153571D01*
X65557142Y-106225000D01*
X65628571Y-106296428D01*
X66271428Y-107653571D02*
X66271428Y-106653571D01*
X66271428Y-106939285D02*
X66342857Y-106796428D01*
X66414285Y-106725000D01*
X66557142Y-106653571D01*
X66699999Y-106653571D01*
X67771428Y-107582142D02*
X67628571Y-107653571D01*
X67342857Y-107653571D01*
X67200000Y-107582142D01*
X67128571Y-107439285D01*
X67128571Y-106867857D01*
X67200000Y-106725000D01*
X67342857Y-106653571D01*
X67628571Y-106653571D01*
X67771428Y-106725000D01*
X67842857Y-106867857D01*
X67842857Y-107010714D01*
X67128571Y-107153571D01*
X69057142Y-107582142D02*
X68914285Y-107653571D01*
X68628571Y-107653571D01*
X68485714Y-107582142D01*
X68414285Y-107439285D01*
X68414285Y-106867857D01*
X68485714Y-106725000D01*
X68628571Y-106653571D01*
X68914285Y-106653571D01*
X69057142Y-106725000D01*
X69128571Y-106867857D01*
X69128571Y-107010714D01*
X68414285Y-107153571D01*
X70414285Y-107653571D02*
X70414285Y-106153571D01*
X70414285Y-107582142D02*
X70271428Y-107653571D01*
X69985714Y-107653571D01*
X69842857Y-107582142D01*
X69771428Y-107510714D01*
X69700000Y-107367857D01*
X69700000Y-106939285D01*
X69771428Y-106796428D01*
X69842857Y-106725000D01*
X69985714Y-106653571D01*
X70271428Y-106653571D01*
X70414285Y-106725000D01*
X71128571Y-107653571D02*
X71128571Y-106653571D01*
X71128571Y-106796428D02*
X71200000Y-106725000D01*
X71342857Y-106653571D01*
X71557142Y-106653571D01*
X71700000Y-106725000D01*
X71771428Y-106867857D01*
X71771428Y-107653571D01*
X71771428Y-106867857D02*
X71842857Y-106725000D01*
X71985714Y-106653571D01*
X72200000Y-106653571D01*
X72342857Y-106725000D01*
X72414285Y-106867857D01*
X72414285Y-107653571D01*
X73342857Y-107653571D02*
X73200000Y-107582142D01*
X73128571Y-107510714D01*
X73057142Y-107367857D01*
X73057142Y-106939285D01*
X73128571Y-106796428D01*
X73200000Y-106725000D01*
X73342857Y-106653571D01*
X73557142Y-106653571D01*
X73700000Y-106725000D01*
X73771428Y-106796428D01*
X73842857Y-106939285D01*
X73842857Y-107367857D01*
X73771428Y-107510714D01*
X73700000Y-107582142D01*
X73557142Y-107653571D01*
X73342857Y-107653571D01*
X74485714Y-107653571D02*
X74485714Y-106653571D01*
X74485714Y-106939285D02*
X74557142Y-106796428D01*
X74628571Y-106725000D01*
X74771428Y-106653571D01*
X74914285Y-106653571D01*
X75985714Y-107582142D02*
X75842857Y-107653571D01*
X75557142Y-107653571D01*
X75414285Y-107582142D01*
X75342857Y-107439285D01*
X75342857Y-106867857D01*
X75414285Y-106725000D01*
X75557142Y-106653571D01*
X75842857Y-106653571D01*
X75985714Y-106725000D01*
X76057142Y-106867857D01*
X76057142Y-107010714D01*
X75342857Y-107153571D01*
X77842857Y-107653571D02*
X77842857Y-106153571D01*
X78414285Y-106153571D01*
X78557142Y-106225000D01*
X78628571Y-106296428D01*
X78700000Y-106439285D01*
X78700000Y-106653571D01*
X78628571Y-106796428D01*
X78557142Y-106867857D01*
X78414285Y-106939285D01*
X77842857Y-106939285D01*
X79557142Y-107653571D02*
X79414285Y-107582142D01*
X79342857Y-107510714D01*
X79271428Y-107367857D01*
X79271428Y-106939285D01*
X79342857Y-106796428D01*
X79414285Y-106725000D01*
X79557142Y-106653571D01*
X79771428Y-106653571D01*
X79914285Y-106725000D01*
X79985714Y-106796428D01*
X80057142Y-106939285D01*
X80057142Y-107367857D01*
X79985714Y-107510714D01*
X79914285Y-107582142D01*
X79771428Y-107653571D01*
X79557142Y-107653571D01*
X80557142Y-106653571D02*
X80842857Y-107653571D01*
X81128571Y-106939285D01*
X81414285Y-107653571D01*
X81700000Y-106653571D01*
X82914285Y-107653571D02*
X82914285Y-106153571D01*
X82914285Y-107582142D02*
X82771428Y-107653571D01*
X82485714Y-107653571D01*
X82342857Y-107582142D01*
X82271428Y-107510714D01*
X82200000Y-107367857D01*
X82200000Y-106939285D01*
X82271428Y-106796428D01*
X82342857Y-106725000D01*
X82485714Y-106653571D01*
X82771428Y-106653571D01*
X82914285Y-106725000D01*
X84200000Y-107582142D02*
X84057142Y-107653571D01*
X83771428Y-107653571D01*
X83628571Y-107582142D01*
X83557142Y-107439285D01*
X83557142Y-106867857D01*
X83628571Y-106725000D01*
X83771428Y-106653571D01*
X84057142Y-106653571D01*
X84200000Y-106725000D01*
X84271428Y-106867857D01*
X84271428Y-107010714D01*
X83557142Y-107153571D01*
X84914285Y-107653571D02*
X84914285Y-106653571D01*
X84914285Y-106939285D02*
X84985714Y-106796428D01*
X85057142Y-106725000D01*
X85200000Y-106653571D01*
X85342857Y-106653571D01*
X86985714Y-107653571D02*
X86985714Y-106153571D01*
X87342857Y-106153571D01*
X87557142Y-106225000D01*
X87700000Y-106367857D01*
X87771428Y-106510714D01*
X87842857Y-106796428D01*
X87842857Y-107010714D01*
X87771428Y-107296428D01*
X87700000Y-107439285D01*
X87557142Y-107582142D01*
X87342857Y-107653571D01*
X86985714Y-107653571D01*
X88485714Y-107653571D02*
X88485714Y-106653571D01*
X88485714Y-106153571D02*
X88414285Y-106225000D01*
X88485714Y-106296428D01*
X88557142Y-106225000D01*
X88485714Y-106153571D01*
X88485714Y-106296428D01*
X89128571Y-107582142D02*
X89271428Y-107653571D01*
X89557142Y-107653571D01*
X89700000Y-107582142D01*
X89771428Y-107439285D01*
X89771428Y-107367857D01*
X89700000Y-107225000D01*
X89557142Y-107153571D01*
X89342857Y-107153571D01*
X89200000Y-107082142D01*
X89128571Y-106939285D01*
X89128571Y-106867857D01*
X89200000Y-106725000D01*
X89342857Y-106653571D01*
X89557142Y-106653571D01*
X89700000Y-106725000D01*
X90414285Y-106653571D02*
X90414285Y-108153571D01*
X90414285Y-106725000D02*
X90557142Y-106653571D01*
X90842857Y-106653571D01*
X90985714Y-106725000D01*
X91057142Y-106796428D01*
X91128571Y-106939285D01*
X91128571Y-107367857D01*
X91057142Y-107510714D01*
X90985714Y-107582142D01*
X90842857Y-107653571D01*
X90557142Y-107653571D01*
X90414285Y-107582142D01*
X92342857Y-107582142D02*
X92200000Y-107653571D01*
X91914285Y-107653571D01*
X91771428Y-107582142D01*
X91700000Y-107439285D01*
X91700000Y-106867857D01*
X91771428Y-106725000D01*
X91914285Y-106653571D01*
X92200000Y-106653571D01*
X92342857Y-106725000D01*
X92414285Y-106867857D01*
X92414285Y-107010714D01*
X91700000Y-107153571D01*
X93057142Y-106653571D02*
X93057142Y-107653571D01*
X93057142Y-106796428D02*
X93128571Y-106725000D01*
X93271428Y-106653571D01*
X93485714Y-106653571D01*
X93628571Y-106725000D01*
X93700000Y-106867857D01*
X93700000Y-107653571D01*
X94342857Y-107582142D02*
X94485714Y-107653571D01*
X94771428Y-107653571D01*
X94914285Y-107582142D01*
X94985714Y-107439285D01*
X94985714Y-107367857D01*
X94914285Y-107225000D01*
X94771428Y-107153571D01*
X94557142Y-107153571D01*
X94414285Y-107082142D01*
X94342857Y-106939285D01*
X94342857Y-106867857D01*
X94414285Y-106725000D01*
X94557142Y-106653571D01*
X94771428Y-106653571D01*
X94914285Y-106725000D01*
X96200000Y-107582142D02*
X96057142Y-107653571D01*
X95771428Y-107653571D01*
X95628571Y-107582142D01*
X95557142Y-107439285D01*
X95557142Y-106867857D01*
X95628571Y-106725000D01*
X95771428Y-106653571D01*
X96057142Y-106653571D01*
X96200000Y-106725000D01*
X96271428Y-106867857D01*
X96271428Y-107010714D01*
X95557142Y-107153571D01*
X96914285Y-107653571D02*
X96914285Y-106653571D01*
X96914285Y-106939285D02*
X96985714Y-106796428D01*
X97057142Y-106725000D01*
X97200000Y-106653571D01*
X97342857Y-106653571D01*
X76235714Y-110203571D02*
X75735714Y-109489285D01*
X75378571Y-110203571D02*
X75378571Y-108703571D01*
X75950000Y-108703571D01*
X76092857Y-108775000D01*
X76164285Y-108846428D01*
X76235714Y-108989285D01*
X76235714Y-109203571D01*
X76164285Y-109346428D01*
X76092857Y-109417857D01*
X75950000Y-109489285D01*
X75378571Y-109489285D01*
X77450000Y-110132142D02*
X77307142Y-110203571D01*
X77021428Y-110203571D01*
X76878571Y-110132142D01*
X76807142Y-109989285D01*
X76807142Y-109417857D01*
X76878571Y-109275000D01*
X77021428Y-109203571D01*
X77307142Y-109203571D01*
X77450000Y-109275000D01*
X77521428Y-109417857D01*
X77521428Y-109560714D01*
X76807142Y-109703571D01*
X78021428Y-109203571D02*
X78378571Y-110203571D01*
X78735714Y-109203571D01*
X79307142Y-110203571D02*
X79307142Y-109203571D01*
X79307142Y-108703571D02*
X79235714Y-108775000D01*
X79307142Y-108846428D01*
X79378571Y-108775000D01*
X79307142Y-108703571D01*
X79307142Y-108846428D01*
X79950000Y-110132142D02*
X80092857Y-110203571D01*
X80378571Y-110203571D01*
X80521428Y-110132142D01*
X80592857Y-109989285D01*
X80592857Y-109917857D01*
X80521428Y-109775000D01*
X80378571Y-109703571D01*
X80164285Y-109703571D01*
X80021428Y-109632142D01*
X79950000Y-109489285D01*
X79950000Y-109417857D01*
X80021428Y-109275000D01*
X80164285Y-109203571D01*
X80378571Y-109203571D01*
X80521428Y-109275000D01*
X81235714Y-110203571D02*
X81235714Y-109203571D01*
X81235714Y-108703571D02*
X81164285Y-108775000D01*
X81235714Y-108846428D01*
X81307142Y-108775000D01*
X81235714Y-108703571D01*
X81235714Y-108846428D01*
X82164285Y-110203571D02*
X82021428Y-110132142D01*
X81950000Y-110060714D01*
X81878571Y-109917857D01*
X81878571Y-109489285D01*
X81950000Y-109346428D01*
X82021428Y-109275000D01*
X82164285Y-109203571D01*
X82378571Y-109203571D01*
X82521428Y-109275000D01*
X82592857Y-109346428D01*
X82664285Y-109489285D01*
X82664285Y-109917857D01*
X82592857Y-110060714D01*
X82521428Y-110132142D01*
X82378571Y-110203571D01*
X82164285Y-110203571D01*
X83307142Y-109203571D02*
X83307142Y-110203571D01*
X83307142Y-109346428D02*
X83378571Y-109275000D01*
X83521428Y-109203571D01*
X83735714Y-109203571D01*
X83878571Y-109275000D01*
X83950000Y-109417857D01*
X83950000Y-110203571D01*
X86592857Y-110203571D02*
X85735714Y-110203571D01*
X86164285Y-110203571D02*
X86164285Y-108703571D01*
X86021428Y-108917857D01*
X85878571Y-109060714D01*
X85735714Y-109132142D01*
X75271428Y-112325000D02*
X75985714Y-112325000D01*
X75128571Y-112753571D02*
X75628571Y-111253571D01*
X76128571Y-112753571D01*
X76628571Y-111753571D02*
X76628571Y-113253571D01*
X76628571Y-111825000D02*
X76771428Y-111753571D01*
X77057142Y-111753571D01*
X77200000Y-111825000D01*
X77271428Y-111896428D01*
X77342857Y-112039285D01*
X77342857Y-112467857D01*
X77271428Y-112610714D01*
X77200000Y-112682142D01*
X77057142Y-112753571D01*
X76771428Y-112753571D01*
X76628571Y-112682142D01*
X77985714Y-112753571D02*
X77985714Y-111753571D01*
X77985714Y-112039285D02*
X78057142Y-111896428D01*
X78128571Y-111825000D01*
X78271428Y-111753571D01*
X78414285Y-111753571D01*
X78914285Y-112753571D02*
X78914285Y-111753571D01*
X78914285Y-111253571D02*
X78842857Y-111325000D01*
X78914285Y-111396428D01*
X78985714Y-111325000D01*
X78914285Y-111253571D01*
X78914285Y-111396428D01*
X79842857Y-112753571D02*
X79700000Y-112682142D01*
X79628571Y-112539285D01*
X79628571Y-111253571D01*
X81485714Y-111396428D02*
X81557142Y-111325000D01*
X81700000Y-111253571D01*
X82057142Y-111253571D01*
X82200000Y-111325000D01*
X82271428Y-111396428D01*
X82342857Y-111539285D01*
X82342857Y-111682142D01*
X82271428Y-111896428D01*
X81414285Y-112753571D01*
X82342857Y-112753571D01*
X83271428Y-111253571D02*
X83414285Y-111253571D01*
X83557142Y-111325000D01*
X83628571Y-111396428D01*
X83700000Y-111539285D01*
X83771428Y-111825000D01*
X83771428Y-112182142D01*
X83700000Y-112467857D01*
X83628571Y-112610714D01*
X83557142Y-112682142D01*
X83414285Y-112753571D01*
X83271428Y-112753571D01*
X83128571Y-112682142D01*
X83057142Y-112610714D01*
X82985714Y-112467857D01*
X82914285Y-112182142D01*
X82914285Y-111825000D01*
X82985714Y-111539285D01*
X83057142Y-111396428D01*
X83128571Y-111325000D01*
X83271428Y-111253571D01*
X84342857Y-111396428D02*
X84414285Y-111325000D01*
X84557142Y-111253571D01*
X84914285Y-111253571D01*
X85057142Y-111325000D01*
X85128571Y-111396428D01*
X85200000Y-111539285D01*
X85200000Y-111682142D01*
X85128571Y-111896428D01*
X84271428Y-112753571D01*
X85200000Y-112753571D01*
X85771428Y-111396428D02*
X85842857Y-111325000D01*
X85985714Y-111253571D01*
X86342857Y-111253571D01*
X86485714Y-111325000D01*
X86557142Y-111396428D01*
X86628571Y-111539285D01*
X86628571Y-111682142D01*
X86557142Y-111896428D01*
X85700000Y-112753571D01*
X86628571Y-112753571D01*
D11*
%TO.C,X4*%
X63418000Y-98628200D02*
G75*
G03*
X63418000Y-98628200I-200000J0D01*
G01*
D12*
X62318000Y-100078200D02*
X62318000Y-103128200D01*
X56868000Y-103128200D02*
X47918000Y-103128200D01*
X62318000Y-94128200D02*
X62318000Y-97078200D01*
X62318000Y-103128200D02*
X60468000Y-103128200D01*
X47918000Y-94128200D02*
X62318000Y-94128200D01*
X47918000Y-103128200D02*
X47918000Y-94128200D01*
%TO.C,U2*%
X63050000Y-60475000D02*
X63050000Y-61020000D01*
X63050000Y-65475000D02*
X63050000Y-64930000D01*
X68050000Y-60475000D02*
X68050000Y-61020000D01*
X68050000Y-65475000D02*
X68050000Y-64930000D01*
X63050000Y-60475000D02*
X63595000Y-60475000D01*
X63050000Y-65475000D02*
X63595000Y-65475000D01*
X68050000Y-60475000D02*
X67505000Y-60475000D01*
X68050000Y-65475000D02*
X67505000Y-65475000D01*
D13*
X62115000Y-61475000D02*
G75*
G03*
X62115000Y-61475000I-100000J0D01*
G01*
D12*
%TO.C,U1*%
X81525000Y-60675000D02*
X81525000Y-61220000D01*
X81525000Y-65675000D02*
X81525000Y-65130000D01*
X86525000Y-60675000D02*
X86525000Y-61220000D01*
X86525000Y-65675000D02*
X86525000Y-65130000D01*
X81525000Y-60675000D02*
X82070000Y-60675000D01*
X81525000Y-65675000D02*
X82070000Y-65675000D01*
X86525000Y-60675000D02*
X85980000Y-60675000D01*
X86525000Y-65675000D02*
X85980000Y-65675000D01*
D13*
X80590000Y-61675000D02*
G75*
G03*
X80590000Y-61675000I-100000J0D01*
G01*
D14*
%TO.C,P2*%
X52227000Y-80225000D02*
G75*
G03*
X52227000Y-80225000I-127000J0D01*
G01*
D12*
X59450000Y-86100000D02*
X59450000Y-78150000D01*
D14*
%TO.C,P1*%
X52227000Y-69475000D02*
G75*
G03*
X52227000Y-69475000I-127000J0D01*
G01*
D12*
X59450000Y-75350000D02*
X59450000Y-67400000D01*
D11*
%TO.C,J3*%
X63220000Y-41620000D02*
G75*
G03*
X63220000Y-41620000I-200000J0D01*
G01*
D12*
%TO.C,C41*%
X86475000Y-55608000D02*
X86475000Y-54592000D01*
%TO.C,C40*%
X62900000Y-57867000D02*
X62900000Y-58883000D01*
%TO.C,C39*%
X86600000Y-57308000D02*
X86600000Y-56292000D01*
%TO.C,C37*%
X59708000Y-63275000D02*
X58692000Y-63275000D01*
%TO.C,C36*%
X60742000Y-66650000D02*
X61758000Y-66650000D01*
%TO.C,C35*%
X62892000Y-68025000D02*
X63908000Y-68025000D01*
%TO.C,C27*%
X62875000Y-54517000D02*
X62875000Y-55533000D01*
%TO.C,C24*%
X62875000Y-56167000D02*
X62875000Y-57183000D01*
%TO.C,C21*%
X86600000Y-58908000D02*
X86600000Y-57892000D01*
%TO.C,C17*%
X78300000Y-65867000D02*
X78300000Y-66883000D01*
%TO.C,C15*%
X81467000Y-68225000D02*
X82483000Y-68225000D01*
%TO.C,C19*%
X79833000Y-64000000D02*
X78817000Y-64000000D01*
%TO.C,IC1*%
X106819800Y-51549400D02*
X106819800Y-78549400D01*
X106819800Y-78549400D02*
X133819800Y-78549400D01*
X133819800Y-78549400D02*
X133819800Y-51549400D01*
X133819800Y-51549400D02*
X106819800Y-51549400D01*
%TO.C,X1*%
X183310000Y-61670000D02*
X183310000Y-55170000D01*
X183310000Y-61670000D02*
X183264000Y-61670000D01*
X183310000Y-55170000D02*
X183264000Y-55170000D01*
X179955000Y-61670000D02*
X179179850Y-61670000D01*
X179955000Y-55170000D02*
X179179850Y-55170000D01*
X177320500Y-61670000D02*
X176410000Y-61670000D01*
X176410000Y-61670000D02*
X176410000Y-60520000D01*
X177320500Y-55171000D02*
X176410000Y-55170000D01*
X176410000Y-55170000D02*
X176410000Y-56320000D01*
%TO.C,X5*%
X143411400Y-118112200D02*
X150911400Y-118112200D01*
X143411400Y-118112200D02*
X143411400Y-117782200D01*
X150911400Y-118112200D02*
X150911400Y-117782200D01*
X150911400Y-115542200D02*
X150911400Y-115082200D01*
X143411400Y-115542200D02*
X143411400Y-115082200D01*
X145281400Y-113812200D02*
X145491400Y-113812200D01*
X148831400Y-113812200D02*
X149041400Y-113812200D01*
D15*
X145561400Y-118512200D02*
X145561400Y-118262200D01*
X145561400Y-118262200D02*
X145661400Y-118362200D01*
X145561400Y-118262200D02*
X145461400Y-118362200D01*
X145161400Y-118512200D02*
X145161400Y-118262200D01*
X145161400Y-118262200D02*
X145261400Y-118362200D01*
X145161400Y-118262200D02*
X145061400Y-118362200D01*
X144761400Y-118512200D02*
X144761400Y-118262200D01*
X144761400Y-118262200D02*
X144861400Y-118362200D01*
X144761400Y-118262200D02*
X144661400Y-118362200D01*
X144361400Y-118512200D02*
X144361400Y-118262200D01*
X144361400Y-118262200D02*
X144461400Y-118362200D01*
X144361400Y-118262200D02*
X144261400Y-118362200D01*
X143961400Y-118512200D02*
X143961400Y-118262200D01*
X143961400Y-118262200D02*
X144061400Y-118362200D01*
X143961400Y-118262200D02*
X143861400Y-118362200D01*
X150361400Y-118512200D02*
X150361400Y-118262200D01*
X150361400Y-118262200D02*
X150461400Y-118362200D01*
X150361400Y-118262200D02*
X150261400Y-118362200D01*
X149961400Y-118512200D02*
X149961400Y-118262200D01*
X149961400Y-118262200D02*
X150061400Y-118362200D01*
X149961400Y-118262200D02*
X149861400Y-118362200D01*
X149561400Y-118512200D02*
X149561400Y-118262200D01*
X149561400Y-118262200D02*
X149661400Y-118362200D01*
X149561400Y-118262200D02*
X149461400Y-118362200D01*
X149161400Y-118512200D02*
X149161400Y-118262200D01*
X149161400Y-118262200D02*
X149261400Y-118362200D01*
X149161400Y-118262200D02*
X149061400Y-118362200D01*
X148761400Y-118512200D02*
X148761400Y-118262200D01*
X148761400Y-118262200D02*
X148861400Y-118362200D01*
X148761400Y-118262200D02*
X148661400Y-118362200D01*
D16*
%TO.C,X2*%
X183850000Y-91590000D02*
X183850000Y-91589900D01*
X183850000Y-91589900D02*
X183850000Y-91290000D01*
X184150000Y-90990000D02*
X184150000Y-79190000D01*
X183850000Y-78890000D02*
X183850000Y-78590000D01*
X183850000Y-78590000D02*
X175750000Y-78590000D01*
X171950000Y-78590000D02*
X170250000Y-78590000D01*
X170250000Y-78590000D02*
X170250000Y-81190000D01*
X170250000Y-88990000D02*
X170250000Y-91590000D01*
X170250000Y-91590000D02*
X171950000Y-91590000D01*
X175750000Y-91590000D02*
X183850000Y-91590000D01*
X184150000Y-91890000D02*
X184150000Y-92090000D01*
X176150000Y-90090000D02*
X182150000Y-89090000D01*
X182150000Y-89090000D02*
X182150000Y-88090000D01*
X182150000Y-88090000D02*
X176150000Y-87090000D01*
X176150000Y-80090000D02*
X182150000Y-81090000D01*
X182150000Y-81090000D02*
X182150000Y-82090000D01*
X182150000Y-82090000D02*
X176150000Y-83090000D01*
X184150000Y-78290000D02*
X184150000Y-78090000D01*
X170250000Y-81990000D02*
X170250000Y-83690000D01*
X170250000Y-86490000D02*
X170250000Y-88190000D01*
X170250000Y-84490000D02*
X170250000Y-85690000D01*
X183849901Y-78890001D02*
G75*
G03*
X184150000Y-79190000I300099J100D01*
G01*
X184150000Y-78290000D02*
G75*
G02*
X183850000Y-78590000I-300000J0D01*
G01*
X184150000Y-90990000D02*
G75*
G03*
X183850000Y-91290000I0J-300000D01*
G01*
X183850000Y-91589900D02*
G75*
G02*
X184150000Y-91889900I0J-300000D01*
G01*
D12*
%TO.C,X3*%
X157125200Y-103087600D02*
X156275200Y-103087600D01*
X156275200Y-103087600D02*
X156275200Y-104517600D01*
X157975200Y-103087600D02*
X159325200Y-103087600D01*
X160875200Y-103087600D02*
X165325200Y-103087600D01*
X167725200Y-103087600D02*
X170775200Y-103087600D01*
X170775200Y-103087600D02*
X170775200Y-105817600D01*
X170775200Y-108157600D02*
X170775200Y-112927600D01*
X170775200Y-117607600D02*
X170775200Y-118087600D01*
X170775200Y-118087600D02*
X156275200Y-118087600D01*
X156275200Y-118087600D02*
X156275200Y-117607600D01*
X156275200Y-112927600D02*
X156275200Y-106857600D01*
D17*
%TO.C,USR1*%
X113575000Y-49656800D02*
X113385000Y-49923200D01*
X113575000Y-49656800D02*
X113765000Y-49923200D01*
X113765000Y-49923200D02*
X113385000Y-49923200D01*
X113925000Y-49630000D02*
X113925000Y-49970000D01*
X113225000Y-49630000D02*
X113225000Y-49970000D01*
%TO.C,USR2*%
X172000000Y-114143200D02*
X172190000Y-113876800D01*
X172000000Y-114143200D02*
X171810000Y-113876800D01*
X171810000Y-113876800D02*
X172190000Y-113876800D01*
X171650000Y-114170000D02*
X171650000Y-113830000D01*
X172350000Y-114170000D02*
X172350000Y-113830000D01*
%TO.C,USR3*%
X115806800Y-48525000D02*
X116073200Y-48715000D01*
X115806800Y-48525000D02*
X116073200Y-48335000D01*
X116073200Y-48335000D02*
X116073200Y-48715000D01*
X115780000Y-48175000D02*
X116120000Y-48175000D01*
X115780000Y-48875000D02*
X116120000Y-48875000D01*
%TO.C,USR4*%
X103784400Y-53831800D02*
X103594400Y-54098200D01*
X103784400Y-53831800D02*
X103974400Y-54098200D01*
X103974400Y-54098200D02*
X103594400Y-54098200D01*
X104134400Y-53805000D02*
X104134400Y-54145000D01*
X103434400Y-53805000D02*
X103434400Y-54145000D01*
D16*
%TO.C,RESET1*%
X119150000Y-84560000D02*
X119250000Y-84560000D01*
X119150000Y-89260000D02*
X119250000Y-89260000D01*
X119894621Y-86910000D02*
G75*
G03*
X119894621Y-86910000I-694621J0D01*
G01*
X120700000Y-84560000D02*
X120700000Y-89260000D01*
X117700000Y-84560000D02*
X117700000Y-89260000D01*
D12*
%TO.C,Q2*%
X100123400Y-65225400D02*
X105323400Y-65225400D01*
X105323400Y-65225400D02*
X105323400Y-64895400D01*
X105323400Y-62155400D02*
X105323400Y-61825400D01*
X105323400Y-61825400D02*
X100123400Y-61825400D01*
X100123400Y-61825400D02*
X100123400Y-62155400D01*
X100123400Y-64895400D02*
X100123400Y-65225400D01*
%TO.C,Q1*%
X100091925Y-69349550D02*
X101685675Y-69349550D01*
X101685675Y-69349550D02*
X101685675Y-70412050D01*
X101685675Y-70412050D02*
X100091925Y-70412050D01*
X100091925Y-70412050D02*
X100091925Y-69349550D01*
D17*
%TO.C,PWR1*%
X119186600Y-49356000D02*
X118920200Y-49166000D01*
X119186600Y-49356000D02*
X118920200Y-49546000D01*
X118920200Y-49546000D02*
X118920200Y-49166000D01*
X119213400Y-49706000D02*
X118873400Y-49706000D01*
X119213400Y-49006000D02*
X118873400Y-49006000D01*
D12*
%TO.C,OSC1*%
X110145000Y-50835000D02*
X110805000Y-50835000D01*
X109225000Y-50015000D02*
X109225000Y-49655000D01*
X111725000Y-50015000D02*
X111725000Y-49655000D01*
X110145000Y-48835000D02*
X110805000Y-48835000D01*
D16*
X109115000Y-49975000D02*
X109115000Y-51245000D01*
X109115000Y-51245000D02*
X110185000Y-51245000D01*
X110185000Y-51245000D02*
X110185000Y-49975000D01*
X110185000Y-49975000D02*
X109115000Y-49975000D01*
D12*
%TO.C,IC8*%
X104529000Y-57600000D02*
X105529000Y-57600000D01*
X105529000Y-59240000D02*
X104529000Y-59240000D01*
X105674000Y-59365000D02*
G75*
G03*
X105674000Y-59365000I-25000J0D01*
G01*
%TO.C,IC10*%
X147820000Y-109500000D02*
X147820000Y-110500000D01*
X146180000Y-110500000D02*
X146180000Y-109500000D01*
X146080000Y-110620000D02*
G75*
G03*
X146080000Y-110620000I-25000J0D01*
G01*
%TO.C,IC4*%
X129475000Y-84600000D02*
X129475000Y-87400000D01*
X126525000Y-87400000D02*
X126525000Y-84600000D01*
X126525000Y-87400000D02*
X126705000Y-87400000D01*
X129475000Y-87400000D02*
X129295000Y-87400000D01*
X129475000Y-84600000D02*
X129295000Y-84600000D01*
X126525000Y-84600000D02*
X126705000Y-84600000D01*
X126405000Y-87560000D02*
G75*
G03*
X126405000Y-87560000I-40000J0D01*
G01*
%TO.C,IC7*%
X161600000Y-89155000D02*
X161450000Y-89155000D01*
X161450000Y-89155000D02*
X161450000Y-92155000D01*
X161450000Y-92155000D02*
X161600000Y-92155000D01*
X164300000Y-92155000D02*
X164450000Y-92155000D01*
X164450000Y-92155000D02*
X164450000Y-89155000D01*
X164450000Y-89155000D02*
X164300000Y-89155000D01*
D18*
X161250000Y-92455000D02*
G75*
G03*
X161250000Y-92455000I-100000J0D01*
G01*
D12*
%TO.C,IC3*%
X158474600Y-54732800D02*
X158034600Y-54732800D01*
X158034600Y-54732800D02*
X158034600Y-55172800D01*
X167034600Y-55172800D02*
X167034600Y-54732800D01*
X167034600Y-54732800D02*
X166594600Y-54732800D01*
X158034600Y-63292800D02*
X158034600Y-63732800D01*
X158034600Y-63732800D02*
X158474600Y-63732800D01*
X166594600Y-63732800D02*
X167034600Y-63732800D01*
X167034600Y-63732800D02*
X167034600Y-63292800D01*
D18*
X157744600Y-54942800D02*
G75*
G03*
X157744600Y-54942800I-90000J0D01*
G01*
D12*
%TO.C,IC6*%
X173150000Y-62272500D02*
G75*
G03*
X173150000Y-62272500I-50000J0D01*
G01*
%TO.C,IC5*%
X172600000Y-55697500D02*
G75*
G03*
X172600000Y-55697500I-50000J0D01*
G01*
%TO.C,IC9*%
X106450000Y-75025000D02*
X106417000Y-75025000D01*
X103483000Y-75025000D02*
X103450000Y-75025000D01*
X103450000Y-75025000D02*
X103450000Y-73425000D01*
X103450000Y-73425000D02*
X103483000Y-73425000D01*
X104516800Y-73425000D02*
X105383200Y-73425000D01*
X106417000Y-73425000D02*
X106450000Y-73425000D01*
X106450000Y-73425000D02*
X106450000Y-75025000D01*
%TO.C,IC2*%
X107200000Y-80710000D02*
X107200000Y-81835000D01*
X109200000Y-80710000D02*
X109200000Y-81710000D01*
D19*
X109570000Y-80067000D02*
G75*
G03*
X109570000Y-80067000I-100000J0D01*
G01*
D12*
X107920000Y-81835000D02*
X108480000Y-81835000D01*
D16*
%TO.C,F1*%
X175800000Y-68060000D02*
X175800000Y-69860000D01*
X177000000Y-69860000D02*
X177000000Y-68060000D01*
D17*
%TO.C,D1*%
X174800000Y-62363200D02*
X175200000Y-62963200D01*
X175200000Y-62963200D02*
X174400000Y-62963200D01*
X174400000Y-62963200D02*
X174800000Y-62363200D01*
X175450000Y-61610000D02*
X175450000Y-62215500D01*
X175450000Y-62215500D02*
X175450000Y-62279000D01*
X175450000Y-62279000D02*
X175450000Y-63710000D01*
X174150000Y-63710000D02*
X174150000Y-62279000D01*
X174150000Y-62279000D02*
X174150000Y-62215500D01*
X174150000Y-62215500D02*
X174150000Y-61610000D01*
D12*
X175450000Y-62215500D02*
X174150000Y-62215500D01*
X174150000Y-62279000D02*
X175450000Y-62279000D01*
D17*
X175450000Y-61610000D02*
X175230000Y-61610000D01*
X175450000Y-63710000D02*
X175230000Y-63710000D01*
X174370000Y-63710000D02*
X174150000Y-63710000D01*
X174370000Y-61610000D02*
X174150000Y-61610000D01*
D12*
%TO.C,C34*%
X167100000Y-66242000D02*
X167100000Y-67258000D01*
%TO.C,C32*%
X170725000Y-53292000D02*
X170725000Y-54308000D01*
%TO.C,C30*%
X155321000Y-57937400D02*
X155321000Y-56921400D01*
%TO.C,C25*%
X164542000Y-49200000D02*
X165558000Y-49200000D01*
%TO.C,C42*%
X119325000Y-91002000D02*
X119325000Y-92018000D01*
%TO.C,C46*%
X106000000Y-48852000D02*
X106000000Y-49868000D01*
%TO.C,X4*%
D20*
X58329233Y-104856747D02*
X58997096Y-105858542D01*
X58997096Y-104856747D02*
X58329233Y-105858542D01*
X59808073Y-105190679D02*
X59808073Y-105858542D01*
X59569550Y-104809043D02*
X59331028Y-105524611D01*
X59951186Y-105524611D01*
%TO.C,U2*%
X69388095Y-61902380D02*
X69388095Y-62711904D01*
X69435714Y-62807142D01*
X69483333Y-62854761D01*
X69578571Y-62902380D01*
X69769047Y-62902380D01*
X69864285Y-62854761D01*
X69911904Y-62807142D01*
X69959523Y-62711904D01*
X69959523Y-61902380D01*
X70388095Y-61997619D02*
X70435714Y-61950000D01*
X70530952Y-61902380D01*
X70769047Y-61902380D01*
X70864285Y-61950000D01*
X70911904Y-61997619D01*
X70959523Y-62092857D01*
X70959523Y-62188095D01*
X70911904Y-62330952D01*
X70340476Y-62902380D01*
X70959523Y-62902380D01*
%TO.C,U1*%
X87388095Y-60677380D02*
X87388095Y-61486904D01*
X87435714Y-61582142D01*
X87483333Y-61629761D01*
X87578571Y-61677380D01*
X87769047Y-61677380D01*
X87864285Y-61629761D01*
X87911904Y-61582142D01*
X87959523Y-61486904D01*
X87959523Y-60677380D01*
X88959523Y-61677380D02*
X88388095Y-61677380D01*
X88673809Y-61677380D02*
X88673809Y-60677380D01*
X88578571Y-60820238D01*
X88483333Y-60915476D01*
X88388095Y-60963095D01*
%TO.C,P2*%
X61427804Y-82863786D02*
X60426867Y-82863786D01*
X60426867Y-82482477D01*
X60474531Y-82387150D01*
X60522195Y-82339486D01*
X60617522Y-82291822D01*
X60760513Y-82291822D01*
X60855840Y-82339486D01*
X60903504Y-82387150D01*
X60951168Y-82482477D01*
X60951168Y-82863786D01*
X60522195Y-81910513D02*
X60474531Y-81862849D01*
X60426867Y-81767522D01*
X60426867Y-81529204D01*
X60474531Y-81433876D01*
X60522195Y-81386213D01*
X60617522Y-81338549D01*
X60712849Y-81338549D01*
X60855840Y-81386213D01*
X61427804Y-81958177D01*
X61427804Y-81338549D01*
%TO.C,P1*%
X61402804Y-72113786D02*
X60401867Y-72113786D01*
X60401867Y-71732477D01*
X60449531Y-71637150D01*
X60497195Y-71589486D01*
X60592522Y-71541822D01*
X60735513Y-71541822D01*
X60830840Y-71589486D01*
X60878504Y-71637150D01*
X60926168Y-71732477D01*
X60926168Y-72113786D01*
X61402804Y-70588549D02*
X61402804Y-71160513D01*
X61402804Y-70874531D02*
X60401867Y-70874531D01*
X60544858Y-70969858D01*
X60640186Y-71065186D01*
X60687849Y-71160513D01*
%TO.C,J3*%
X74141118Y-48576479D02*
X74141118Y-49291941D01*
X74093420Y-49435033D01*
X73998025Y-49530428D01*
X73854933Y-49578125D01*
X73759538Y-49578125D01*
X74522697Y-48576479D02*
X75142764Y-48576479D01*
X74808882Y-48958059D01*
X74951974Y-48958059D01*
X75047369Y-49005756D01*
X75095066Y-49053453D01*
X75142764Y-49148848D01*
X75142764Y-49387335D01*
X75095066Y-49482730D01*
X75047369Y-49530428D01*
X74951974Y-49578125D01*
X74665789Y-49578125D01*
X74570394Y-49530428D01*
X74522697Y-49482730D01*
%TO.C,R6*%
D21*
X65488230Y-57024632D02*
X65120535Y-57282019D01*
X65488230Y-57465866D02*
X64716070Y-57465866D01*
X64716070Y-57171710D01*
X64752840Y-57098171D01*
X64789609Y-57061402D01*
X64863148Y-57024632D01*
X64973457Y-57024632D01*
X65046996Y-57061402D01*
X65083765Y-57098171D01*
X65120535Y-57171710D01*
X65120535Y-57465866D01*
X64716070Y-56362781D02*
X64716070Y-56509859D01*
X64752840Y-56583398D01*
X64789609Y-56620167D01*
X64899918Y-56693706D01*
X65046996Y-56730476D01*
X65341152Y-56730476D01*
X65414691Y-56693706D01*
X65451460Y-56656937D01*
X65488230Y-56583398D01*
X65488230Y-56436320D01*
X65451460Y-56362781D01*
X65414691Y-56326011D01*
X65341152Y-56289242D01*
X65157304Y-56289242D01*
X65083765Y-56326011D01*
X65046996Y-56362781D01*
X65010226Y-56436320D01*
X65010226Y-56583398D01*
X65046996Y-56656937D01*
X65083765Y-56693706D01*
X65157304Y-56730476D01*
%TO.C,R5*%
X66938230Y-56999632D02*
X66570535Y-57257019D01*
X66938230Y-57440866D02*
X66166070Y-57440866D01*
X66166070Y-57146710D01*
X66202840Y-57073171D01*
X66239609Y-57036402D01*
X66313148Y-56999632D01*
X66423457Y-56999632D01*
X66496996Y-57036402D01*
X66533765Y-57073171D01*
X66570535Y-57146710D01*
X66570535Y-57440866D01*
X66166070Y-56301011D02*
X66166070Y-56668706D01*
X66533765Y-56705476D01*
X66496996Y-56668706D01*
X66460226Y-56595167D01*
X66460226Y-56411320D01*
X66496996Y-56337781D01*
X66533765Y-56301011D01*
X66607304Y-56264242D01*
X66791152Y-56264242D01*
X66864691Y-56301011D01*
X66901460Y-56337781D01*
X66938230Y-56411320D01*
X66938230Y-56595167D01*
X66901460Y-56668706D01*
X66864691Y-56705476D01*
%TO.C,R2*%
X83338230Y-57199632D02*
X82970535Y-57457019D01*
X83338230Y-57640866D02*
X82566070Y-57640866D01*
X82566070Y-57346710D01*
X82602840Y-57273171D01*
X82639609Y-57236402D01*
X82713148Y-57199632D01*
X82823457Y-57199632D01*
X82896996Y-57236402D01*
X82933765Y-57273171D01*
X82970535Y-57346710D01*
X82970535Y-57640866D01*
X82639609Y-56905476D02*
X82602840Y-56868706D01*
X82566070Y-56795167D01*
X82566070Y-56611320D01*
X82602840Y-56537781D01*
X82639609Y-56501011D01*
X82713148Y-56464242D01*
X82786687Y-56464242D01*
X82896996Y-56501011D01*
X83338230Y-56942245D01*
X83338230Y-56464242D01*
%TO.C,R1*%
X84763230Y-57174632D02*
X84395535Y-57432019D01*
X84763230Y-57615866D02*
X83991070Y-57615866D01*
X83991070Y-57321710D01*
X84027840Y-57248171D01*
X84064609Y-57211402D01*
X84138148Y-57174632D01*
X84248457Y-57174632D01*
X84321996Y-57211402D01*
X84358765Y-57248171D01*
X84395535Y-57321710D01*
X84395535Y-57615866D01*
X84763230Y-56439242D02*
X84763230Y-56880476D01*
X84763230Y-56659859D02*
X83991070Y-56659859D01*
X84101379Y-56733398D01*
X84174918Y-56806937D01*
X84211687Y-56880476D01*
%TO.C,C41*%
X88656855Y-55314691D02*
X88620085Y-55351460D01*
X88509777Y-55388230D01*
X88436238Y-55388230D01*
X88325929Y-55351460D01*
X88252390Y-55277921D01*
X88215621Y-55204382D01*
X88178851Y-55057304D01*
X88178851Y-54946996D01*
X88215621Y-54799918D01*
X88252390Y-54726379D01*
X88325929Y-54652840D01*
X88436238Y-54616070D01*
X88509777Y-54616070D01*
X88620085Y-54652840D01*
X88656855Y-54689609D01*
X89318706Y-54873457D02*
X89318706Y-55388230D01*
X89134859Y-54579300D02*
X88951011Y-55130843D01*
X89429015Y-55130843D01*
X90127636Y-55388230D02*
X89686402Y-55388230D01*
X89907019Y-55388230D02*
X89907019Y-54616070D01*
X89833480Y-54726379D01*
X89759941Y-54799918D01*
X89686402Y-54836687D01*
%TO.C,C40*%
X59750367Y-58714691D02*
X59713597Y-58751460D01*
X59603289Y-58788230D01*
X59529750Y-58788230D01*
X59419441Y-58751460D01*
X59345902Y-58677921D01*
X59309133Y-58604382D01*
X59272363Y-58457304D01*
X59272363Y-58346996D01*
X59309133Y-58199918D01*
X59345902Y-58126379D01*
X59419441Y-58052840D01*
X59529750Y-58016070D01*
X59603289Y-58016070D01*
X59713597Y-58052840D01*
X59750367Y-58089609D01*
X60412218Y-58273457D02*
X60412218Y-58788230D01*
X60228371Y-57979300D02*
X60044523Y-58530843D01*
X60522527Y-58530843D01*
X60963761Y-58016070D02*
X61037300Y-58016070D01*
X61110839Y-58052840D01*
X61147609Y-58089609D01*
X61184378Y-58163148D01*
X61221148Y-58310226D01*
X61221148Y-58494074D01*
X61184378Y-58641152D01*
X61147609Y-58714691D01*
X61110839Y-58751460D01*
X61037300Y-58788230D01*
X60963761Y-58788230D01*
X60890222Y-58751460D01*
X60853453Y-58714691D01*
X60816683Y-58641152D01*
X60779914Y-58494074D01*
X60779914Y-58310226D01*
X60816683Y-58163148D01*
X60853453Y-58089609D01*
X60890222Y-58052840D01*
X60963761Y-58016070D01*
%TO.C,C39*%
X88731855Y-57064691D02*
X88695085Y-57101460D01*
X88584777Y-57138230D01*
X88511238Y-57138230D01*
X88400929Y-57101460D01*
X88327390Y-57027921D01*
X88290621Y-56954382D01*
X88253851Y-56807304D01*
X88253851Y-56696996D01*
X88290621Y-56549918D01*
X88327390Y-56476379D01*
X88400929Y-56402840D01*
X88511238Y-56366070D01*
X88584777Y-56366070D01*
X88695085Y-56402840D01*
X88731855Y-56439609D01*
X88989242Y-56366070D02*
X89467245Y-56366070D01*
X89209859Y-56660226D01*
X89320167Y-56660226D01*
X89393706Y-56696996D01*
X89430476Y-56733765D01*
X89467245Y-56807304D01*
X89467245Y-56991152D01*
X89430476Y-57064691D01*
X89393706Y-57101460D01*
X89320167Y-57138230D01*
X89099550Y-57138230D01*
X89026011Y-57101460D01*
X88989242Y-57064691D01*
X89834941Y-57138230D02*
X89982019Y-57138230D01*
X90055558Y-57101460D01*
X90092327Y-57064691D01*
X90165866Y-56954382D01*
X90202636Y-56807304D01*
X90202636Y-56513148D01*
X90165866Y-56439609D01*
X90129097Y-56402840D01*
X90055558Y-56366070D01*
X89908480Y-56366070D01*
X89834941Y-56402840D01*
X89798171Y-56439609D01*
X89761402Y-56513148D01*
X89761402Y-56696996D01*
X89798171Y-56770535D01*
X89834941Y-56807304D01*
X89908480Y-56844074D01*
X90055558Y-56844074D01*
X90129097Y-56807304D01*
X90165866Y-56770535D01*
X90202636Y-56696996D01*
%TO.C,C37*%
X57885491Y-63812544D02*
X57922260Y-63849314D01*
X57959030Y-63959622D01*
X57959030Y-64033161D01*
X57922260Y-64143470D01*
X57848721Y-64217009D01*
X57775182Y-64253778D01*
X57628104Y-64290548D01*
X57517796Y-64290548D01*
X57370718Y-64253778D01*
X57297179Y-64217009D01*
X57223640Y-64143470D01*
X57186870Y-64033161D01*
X57186870Y-63959622D01*
X57223640Y-63849314D01*
X57260409Y-63812544D01*
X57186870Y-63555157D02*
X57186870Y-63077154D01*
X57481026Y-63334540D01*
X57481026Y-63224232D01*
X57517796Y-63150693D01*
X57554565Y-63113923D01*
X57628104Y-63077154D01*
X57811952Y-63077154D01*
X57885491Y-63113923D01*
X57922260Y-63150693D01*
X57959030Y-63224232D01*
X57959030Y-63444849D01*
X57922260Y-63518388D01*
X57885491Y-63555157D01*
X57186870Y-62819767D02*
X57186870Y-62304994D01*
X57959030Y-62635919D01*
%TO.C,C36*%
X61464691Y-64349632D02*
X61501460Y-64386402D01*
X61538230Y-64496710D01*
X61538230Y-64570249D01*
X61501460Y-64680558D01*
X61427921Y-64754097D01*
X61354382Y-64790866D01*
X61207304Y-64827636D01*
X61096996Y-64827636D01*
X60949918Y-64790866D01*
X60876379Y-64754097D01*
X60802840Y-64680558D01*
X60766070Y-64570249D01*
X60766070Y-64496710D01*
X60802840Y-64386402D01*
X60839609Y-64349632D01*
X60766070Y-64092245D02*
X60766070Y-63614242D01*
X61060226Y-63871628D01*
X61060226Y-63761320D01*
X61096996Y-63687781D01*
X61133765Y-63651011D01*
X61207304Y-63614242D01*
X61391152Y-63614242D01*
X61464691Y-63651011D01*
X61501460Y-63687781D01*
X61538230Y-63761320D01*
X61538230Y-63981937D01*
X61501460Y-64055476D01*
X61464691Y-64092245D01*
X60766070Y-62952390D02*
X60766070Y-63099468D01*
X60802840Y-63173007D01*
X60839609Y-63209777D01*
X60949918Y-63283316D01*
X61096996Y-63320085D01*
X61391152Y-63320085D01*
X61464691Y-63283316D01*
X61501460Y-63246546D01*
X61538230Y-63173007D01*
X61538230Y-63025929D01*
X61501460Y-62952390D01*
X61464691Y-62915621D01*
X61391152Y-62878851D01*
X61207304Y-62878851D01*
X61133765Y-62915621D01*
X61096996Y-62952390D01*
X61060226Y-63025929D01*
X61060226Y-63173007D01*
X61096996Y-63246546D01*
X61133765Y-63283316D01*
X61207304Y-63320085D01*
%TO.C,C35*%
X63639691Y-71249632D02*
X63676460Y-71286402D01*
X63713230Y-71396710D01*
X63713230Y-71470249D01*
X63676460Y-71580558D01*
X63602921Y-71654097D01*
X63529382Y-71690866D01*
X63382304Y-71727636D01*
X63271996Y-71727636D01*
X63124918Y-71690866D01*
X63051379Y-71654097D01*
X62977840Y-71580558D01*
X62941070Y-71470249D01*
X62941070Y-71396710D01*
X62977840Y-71286402D01*
X63014609Y-71249632D01*
X62941070Y-70992245D02*
X62941070Y-70514242D01*
X63235226Y-70771628D01*
X63235226Y-70661320D01*
X63271996Y-70587781D01*
X63308765Y-70551011D01*
X63382304Y-70514242D01*
X63566152Y-70514242D01*
X63639691Y-70551011D01*
X63676460Y-70587781D01*
X63713230Y-70661320D01*
X63713230Y-70881937D01*
X63676460Y-70955476D01*
X63639691Y-70992245D01*
X62941070Y-69815621D02*
X62941070Y-70183316D01*
X63308765Y-70220085D01*
X63271996Y-70183316D01*
X63235226Y-70109777D01*
X63235226Y-69925929D01*
X63271996Y-69852390D01*
X63308765Y-69815621D01*
X63382304Y-69778851D01*
X63566152Y-69778851D01*
X63639691Y-69815621D01*
X63676460Y-69852390D01*
X63713230Y-69925929D01*
X63713230Y-70109777D01*
X63676460Y-70183316D01*
X63639691Y-70220085D01*
%TO.C,C27*%
X59700367Y-55389691D02*
X59663597Y-55426460D01*
X59553289Y-55463230D01*
X59479750Y-55463230D01*
X59369441Y-55426460D01*
X59295902Y-55352921D01*
X59259133Y-55279382D01*
X59222363Y-55132304D01*
X59222363Y-55021996D01*
X59259133Y-54874918D01*
X59295902Y-54801379D01*
X59369441Y-54727840D01*
X59479750Y-54691070D01*
X59553289Y-54691070D01*
X59663597Y-54727840D01*
X59700367Y-54764609D01*
X59994523Y-54764609D02*
X60031293Y-54727840D01*
X60104832Y-54691070D01*
X60288679Y-54691070D01*
X60362218Y-54727840D01*
X60398988Y-54764609D01*
X60435757Y-54838148D01*
X60435757Y-54911687D01*
X60398988Y-55021996D01*
X59957754Y-55463230D01*
X60435757Y-55463230D01*
X60693144Y-54691070D02*
X61207917Y-54691070D01*
X60876992Y-55463230D01*
%TO.C,C24*%
X59700367Y-57014691D02*
X59663597Y-57051460D01*
X59553289Y-57088230D01*
X59479750Y-57088230D01*
X59369441Y-57051460D01*
X59295902Y-56977921D01*
X59259133Y-56904382D01*
X59222363Y-56757304D01*
X59222363Y-56646996D01*
X59259133Y-56499918D01*
X59295902Y-56426379D01*
X59369441Y-56352840D01*
X59479750Y-56316070D01*
X59553289Y-56316070D01*
X59663597Y-56352840D01*
X59700367Y-56389609D01*
X59994523Y-56389609D02*
X60031293Y-56352840D01*
X60104832Y-56316070D01*
X60288679Y-56316070D01*
X60362218Y-56352840D01*
X60398988Y-56389609D01*
X60435757Y-56463148D01*
X60435757Y-56536687D01*
X60398988Y-56646996D01*
X59957754Y-57088230D01*
X60435757Y-57088230D01*
X61097609Y-56573457D02*
X61097609Y-57088230D01*
X60913761Y-56279300D02*
X60729914Y-56830843D01*
X61207917Y-56830843D01*
%TO.C,C21*%
X88756855Y-58714691D02*
X88720085Y-58751460D01*
X88609777Y-58788230D01*
X88536238Y-58788230D01*
X88425929Y-58751460D01*
X88352390Y-58677921D01*
X88315621Y-58604382D01*
X88278851Y-58457304D01*
X88278851Y-58346996D01*
X88315621Y-58199918D01*
X88352390Y-58126379D01*
X88425929Y-58052840D01*
X88536238Y-58016070D01*
X88609777Y-58016070D01*
X88720085Y-58052840D01*
X88756855Y-58089609D01*
X89051011Y-58089609D02*
X89087781Y-58052840D01*
X89161320Y-58016070D01*
X89345167Y-58016070D01*
X89418706Y-58052840D01*
X89455476Y-58089609D01*
X89492245Y-58163148D01*
X89492245Y-58236687D01*
X89455476Y-58346996D01*
X89014242Y-58788230D01*
X89492245Y-58788230D01*
X90227636Y-58788230D02*
X89786402Y-58788230D01*
X90007019Y-58788230D02*
X90007019Y-58016070D01*
X89933480Y-58126379D01*
X89859941Y-58199918D01*
X89786402Y-58236687D01*
%TO.C,C17*%
X77844767Y-67914691D02*
X77807997Y-67951460D01*
X77697689Y-67988230D01*
X77624150Y-67988230D01*
X77513841Y-67951460D01*
X77440302Y-67877921D01*
X77403533Y-67804382D01*
X77366763Y-67657304D01*
X77366763Y-67546996D01*
X77403533Y-67399918D01*
X77440302Y-67326379D01*
X77513841Y-67252840D01*
X77624150Y-67216070D01*
X77697689Y-67216070D01*
X77807997Y-67252840D01*
X77844767Y-67289609D01*
X78580157Y-67988230D02*
X78138923Y-67988230D01*
X78359540Y-67988230D02*
X78359540Y-67216070D01*
X78286001Y-67326379D01*
X78212462Y-67399918D01*
X78138923Y-67436687D01*
X78837544Y-67216070D02*
X79352317Y-67216070D01*
X79021392Y-67988230D01*
%TO.C,C15*%
X81089691Y-68524632D02*
X81126460Y-68561402D01*
X81163230Y-68671710D01*
X81163230Y-68745249D01*
X81126460Y-68855558D01*
X81052921Y-68929097D01*
X80979382Y-68965866D01*
X80832304Y-69002636D01*
X80721996Y-69002636D01*
X80574918Y-68965866D01*
X80501379Y-68929097D01*
X80427840Y-68855558D01*
X80391070Y-68745249D01*
X80391070Y-68671710D01*
X80427840Y-68561402D01*
X80464609Y-68524632D01*
X81163230Y-67789242D02*
X81163230Y-68230476D01*
X81163230Y-68009859D02*
X80391070Y-68009859D01*
X80501379Y-68083398D01*
X80574918Y-68156937D01*
X80611687Y-68230476D01*
X80391070Y-67090621D02*
X80391070Y-67458316D01*
X80758765Y-67495085D01*
X80721996Y-67458316D01*
X80685226Y-67384777D01*
X80685226Y-67200929D01*
X80721996Y-67127390D01*
X80758765Y-67090621D01*
X80832304Y-67053851D01*
X81016152Y-67053851D01*
X81089691Y-67090621D01*
X81126460Y-67127390D01*
X81163230Y-67200929D01*
X81163230Y-67384777D01*
X81126460Y-67458316D01*
X81089691Y-67495085D01*
%TO.C,C19*%
X78364691Y-64543144D02*
X78401460Y-64579914D01*
X78438230Y-64690222D01*
X78438230Y-64763761D01*
X78401460Y-64874070D01*
X78327921Y-64947609D01*
X78254382Y-64984378D01*
X78107304Y-65021148D01*
X77996996Y-65021148D01*
X77849918Y-64984378D01*
X77776379Y-64947609D01*
X77702840Y-64874070D01*
X77666070Y-64763761D01*
X77666070Y-64690222D01*
X77702840Y-64579914D01*
X77739609Y-64543144D01*
X78438230Y-63807754D02*
X78438230Y-64248988D01*
X78438230Y-64028371D02*
X77666070Y-64028371D01*
X77776379Y-64101910D01*
X77849918Y-64175449D01*
X77886687Y-64248988D01*
X78438230Y-63440058D02*
X78438230Y-63292980D01*
X78401460Y-63219441D01*
X78364691Y-63182672D01*
X78254382Y-63109133D01*
X78107304Y-63072363D01*
X77813148Y-63072363D01*
X77739609Y-63109133D01*
X77702840Y-63145902D01*
X77666070Y-63219441D01*
X77666070Y-63366519D01*
X77702840Y-63440058D01*
X77739609Y-63476828D01*
X77813148Y-63513597D01*
X77996996Y-63513597D01*
X78070535Y-63476828D01*
X78107304Y-63440058D01*
X78144074Y-63366519D01*
X78144074Y-63219441D01*
X78107304Y-63145902D01*
X78070535Y-63109133D01*
X77996996Y-63072363D01*
%TO.C,TP2*%
X86073824Y-69516070D02*
X86515058Y-69516070D01*
X86294441Y-70288230D02*
X86294441Y-69516070D01*
X86772445Y-70288230D02*
X86772445Y-69516070D01*
X87066601Y-69516070D01*
X87140140Y-69552840D01*
X87176910Y-69589609D01*
X87213679Y-69663148D01*
X87213679Y-69773457D01*
X87176910Y-69846996D01*
X87140140Y-69883765D01*
X87066601Y-69920535D01*
X86772445Y-69920535D01*
X87507836Y-69589609D02*
X87544605Y-69552840D01*
X87618144Y-69516070D01*
X87801992Y-69516070D01*
X87875531Y-69552840D01*
X87912300Y-69589609D01*
X87949070Y-69663148D01*
X87949070Y-69736687D01*
X87912300Y-69846996D01*
X87471066Y-70288230D01*
X87949070Y-70288230D01*
%TO.C,TP1*%
X83298824Y-69466070D02*
X83740058Y-69466070D01*
X83519441Y-70238230D02*
X83519441Y-69466070D01*
X83997445Y-70238230D02*
X83997445Y-69466070D01*
X84291601Y-69466070D01*
X84365140Y-69502840D01*
X84401910Y-69539609D01*
X84438679Y-69613148D01*
X84438679Y-69723457D01*
X84401910Y-69796996D01*
X84365140Y-69833765D01*
X84291601Y-69870535D01*
X83997445Y-69870535D01*
X85174070Y-70238230D02*
X84732836Y-70238230D01*
X84953453Y-70238230D02*
X84953453Y-69466070D01*
X84879914Y-69576379D01*
X84806375Y-69649918D01*
X84732836Y-69686687D01*
%TO.C,TP3*%
X64823824Y-69416070D02*
X65265058Y-69416070D01*
X65044441Y-70188230D02*
X65044441Y-69416070D01*
X65522445Y-70188230D02*
X65522445Y-69416070D01*
X65816601Y-69416070D01*
X65890140Y-69452840D01*
X65926910Y-69489609D01*
X65963679Y-69563148D01*
X65963679Y-69673457D01*
X65926910Y-69746996D01*
X65890140Y-69783765D01*
X65816601Y-69820535D01*
X65522445Y-69820535D01*
X66221066Y-69416070D02*
X66699070Y-69416070D01*
X66441683Y-69710226D01*
X66551992Y-69710226D01*
X66625531Y-69746996D01*
X66662300Y-69783765D01*
X66699070Y-69857304D01*
X66699070Y-70041152D01*
X66662300Y-70114691D01*
X66625531Y-70151460D01*
X66551992Y-70188230D01*
X66331375Y-70188230D01*
X66257836Y-70151460D01*
X66221066Y-70114691D01*
%TO.C,TP4*%
X67148824Y-68841070D02*
X67590058Y-68841070D01*
X67369441Y-69613230D02*
X67369441Y-68841070D01*
X67847445Y-69613230D02*
X67847445Y-68841070D01*
X68141601Y-68841070D01*
X68215140Y-68877840D01*
X68251910Y-68914609D01*
X68288679Y-68988148D01*
X68288679Y-69098457D01*
X68251910Y-69171996D01*
X68215140Y-69208765D01*
X68141601Y-69245535D01*
X67847445Y-69245535D01*
X68950531Y-69098457D02*
X68950531Y-69613230D01*
X68766683Y-68804300D02*
X68582836Y-69355843D01*
X69060839Y-69355843D01*
%TO.C,IC1*%
D22*
X110200689Y-80162101D02*
X110163920Y-80125331D01*
X110127150Y-80051792D01*
X110127150Y-79867945D01*
X110163920Y-79794406D01*
X110200689Y-79757636D01*
X110274228Y-79720866D01*
X110347767Y-79720866D01*
X110458076Y-79757636D01*
X110899310Y-80198870D01*
X110899310Y-79720866D01*
X110127150Y-79242863D02*
X110127150Y-79169324D01*
X110163920Y-79095785D01*
X110200689Y-79059015D01*
X110274228Y-79022246D01*
X110421306Y-78985476D01*
X110605154Y-78985476D01*
X110752232Y-79022246D01*
X110825771Y-79059015D01*
X110862540Y-79095785D01*
X110899310Y-79169324D01*
X110899310Y-79242863D01*
X110862540Y-79316402D01*
X110825771Y-79353171D01*
X110752232Y-79389941D01*
X110605154Y-79426710D01*
X110421306Y-79426710D01*
X110274228Y-79389941D01*
X110200689Y-79353171D01*
X110163920Y-79316402D01*
X110127150Y-79242863D01*
X132274310Y-78960476D02*
X132274310Y-79401710D01*
X132274310Y-79181093D02*
X131502150Y-79181093D01*
X131612459Y-79254632D01*
X131685998Y-79328171D01*
X131722767Y-79401710D01*
X134577995Y-52920900D02*
X134945690Y-52920900D01*
X134173530Y-53178286D02*
X134577995Y-52920900D01*
X134173530Y-52663513D01*
X134725073Y-77234747D02*
X134725073Y-76867052D01*
X134945690Y-77308286D02*
X134173530Y-77050900D01*
X134945690Y-76793513D01*
%TO.C,X1*%
D23*
X177091615Y-61093539D02*
X177091615Y-61314156D01*
X177091615Y-61203847D02*
X176705535Y-61203847D01*
X176760689Y-61240617D01*
X176797459Y-61277386D01*
X176815843Y-61314156D01*
X177091615Y-60909691D02*
X177091615Y-60836152D01*
X177073230Y-60799382D01*
X177054845Y-60780998D01*
X176999691Y-60744228D01*
X176926152Y-60725843D01*
X176779074Y-60725843D01*
X176742304Y-60744228D01*
X176723920Y-60762613D01*
X176705535Y-60799382D01*
X176705535Y-60872921D01*
X176723920Y-60909691D01*
X176742304Y-60928076D01*
X176779074Y-60946460D01*
X176870998Y-60946460D01*
X176907767Y-60928076D01*
X176926152Y-60909691D01*
X176944537Y-60872921D01*
X176944537Y-60799382D01*
X176926152Y-60762613D01*
X176907767Y-60744228D01*
X176870998Y-60725843D01*
X177091615Y-55609691D02*
X177091615Y-55830308D01*
X177091615Y-55720000D02*
X176705535Y-55720000D01*
X176760689Y-55756769D01*
X176797459Y-55793539D01*
X176815843Y-55830308D01*
%TO.C,R51*%
D21*
X56263230Y-109393144D02*
X55895535Y-109650531D01*
X56263230Y-109834378D02*
X55491070Y-109834378D01*
X55491070Y-109540222D01*
X55527840Y-109466683D01*
X55564609Y-109429914D01*
X55638148Y-109393144D01*
X55748457Y-109393144D01*
X55821996Y-109429914D01*
X55858765Y-109466683D01*
X55895535Y-109540222D01*
X55895535Y-109834378D01*
X55491070Y-108694523D02*
X55491070Y-109062218D01*
X55858765Y-109098988D01*
X55821996Y-109062218D01*
X55785226Y-108988679D01*
X55785226Y-108804832D01*
X55821996Y-108731293D01*
X55858765Y-108694523D01*
X55932304Y-108657754D01*
X56116152Y-108657754D01*
X56189691Y-108694523D01*
X56226460Y-108731293D01*
X56263230Y-108804832D01*
X56263230Y-108988679D01*
X56226460Y-109062218D01*
X56189691Y-109098988D01*
X56263230Y-107922363D02*
X56263230Y-108363597D01*
X56263230Y-108142980D02*
X55491070Y-108142980D01*
X55601379Y-108216519D01*
X55674918Y-108290058D01*
X55711687Y-108363597D01*
%TO.C,X5*%
X141510594Y-114041070D02*
X142025367Y-114813230D01*
X142025367Y-114041070D02*
X141510594Y-114813230D01*
X142687218Y-114041070D02*
X142319523Y-114041070D01*
X142282754Y-114408765D01*
X142319523Y-114371996D01*
X142393062Y-114335226D01*
X142576910Y-114335226D01*
X142650449Y-114371996D01*
X142687218Y-114408765D01*
X142723988Y-114482304D01*
X142723988Y-114666152D01*
X142687218Y-114739691D01*
X142650449Y-114776460D01*
X142576910Y-114813230D01*
X142393062Y-114813230D01*
X142319523Y-114776460D01*
X142282754Y-114739691D01*
D24*
X146064059Y-118365614D02*
X146144492Y-118365614D01*
X146178964Y-118492009D02*
X146064059Y-118492009D01*
X146064059Y-118250709D01*
X146178964Y-118250709D01*
X146385792Y-118492009D02*
X146385792Y-118250709D01*
X146385792Y-118480519D02*
X146362811Y-118492009D01*
X146316850Y-118492009D01*
X146293869Y-118480519D01*
X146282378Y-118469028D01*
X146270888Y-118446047D01*
X146270888Y-118377104D01*
X146282378Y-118354123D01*
X146293869Y-118342633D01*
X146316850Y-118331142D01*
X146362811Y-118331142D01*
X146385792Y-118342633D01*
X146604111Y-118331142D02*
X146604111Y-118526480D01*
X146592621Y-118549461D01*
X146581130Y-118560952D01*
X146558150Y-118572442D01*
X146523678Y-118572442D01*
X146500697Y-118560952D01*
X146604111Y-118480519D02*
X146581130Y-118492009D01*
X146535169Y-118492009D01*
X146512188Y-118480519D01*
X146500697Y-118469028D01*
X146489207Y-118446047D01*
X146489207Y-118377104D01*
X146500697Y-118354123D01*
X146512188Y-118342633D01*
X146535169Y-118331142D01*
X146581130Y-118331142D01*
X146604111Y-118342633D01*
X146810940Y-118480519D02*
X146787959Y-118492009D01*
X146741997Y-118492009D01*
X146719016Y-118480519D01*
X146707526Y-118457538D01*
X146707526Y-118365614D01*
X146719016Y-118342633D01*
X146741997Y-118331142D01*
X146787959Y-118331142D01*
X146810940Y-118342633D01*
X146822430Y-118365614D01*
X146822430Y-118388595D01*
X146707526Y-118411576D01*
X147144164Y-118492009D02*
X147121183Y-118480519D01*
X147109692Y-118469028D01*
X147098202Y-118446047D01*
X147098202Y-118377104D01*
X147109692Y-118354123D01*
X147121183Y-118342633D01*
X147144164Y-118331142D01*
X147178635Y-118331142D01*
X147201616Y-118342633D01*
X147213107Y-118354123D01*
X147224597Y-118377104D01*
X147224597Y-118446047D01*
X147213107Y-118469028D01*
X147201616Y-118480519D01*
X147178635Y-118492009D01*
X147144164Y-118492009D01*
X147293540Y-118331142D02*
X147385464Y-118331142D01*
X147328011Y-118492009D02*
X147328011Y-118285180D01*
X147339502Y-118262200D01*
X147362483Y-118250709D01*
X147385464Y-118250709D01*
X147649745Y-118492009D02*
X147649745Y-118250709D01*
X147741669Y-118250709D01*
X147764650Y-118262200D01*
X147776140Y-118273690D01*
X147787630Y-118296671D01*
X147787630Y-118331142D01*
X147776140Y-118354123D01*
X147764650Y-118365614D01*
X147741669Y-118377104D01*
X147649745Y-118377104D01*
X148028930Y-118469028D02*
X148017440Y-118480519D01*
X147982969Y-118492009D01*
X147959988Y-118492009D01*
X147925516Y-118480519D01*
X147902535Y-118457538D01*
X147891045Y-118434557D01*
X147879554Y-118388595D01*
X147879554Y-118354123D01*
X147891045Y-118308161D01*
X147902535Y-118285180D01*
X147925516Y-118262200D01*
X147959988Y-118250709D01*
X147982969Y-118250709D01*
X148017440Y-118262200D01*
X148028930Y-118273690D01*
X148212778Y-118365614D02*
X148247250Y-118377104D01*
X148258740Y-118388595D01*
X148270230Y-118411576D01*
X148270230Y-118446047D01*
X148258740Y-118469028D01*
X148247250Y-118480519D01*
X148224269Y-118492009D01*
X148132345Y-118492009D01*
X148132345Y-118250709D01*
X148212778Y-118250709D01*
X148235759Y-118262200D01*
X148247250Y-118273690D01*
X148258740Y-118296671D01*
X148258740Y-118319652D01*
X148247250Y-118342633D01*
X148235759Y-118354123D01*
X148212778Y-118365614D01*
X148132345Y-118365614D01*
%TO.C,X2*%
D21*
X177574123Y-92088838D02*
X178217590Y-93054038D01*
X178217590Y-92088838D02*
X177574123Y-93054038D01*
X178539323Y-92180761D02*
X178585285Y-92134800D01*
X178677209Y-92088838D01*
X178907019Y-92088838D01*
X178998942Y-92134800D01*
X179044904Y-92180761D01*
X179090866Y-92272685D01*
X179090866Y-92364609D01*
X179044904Y-92502495D01*
X178493362Y-93054038D01*
X179090866Y-93054038D01*
D25*
X183193266Y-89906904D02*
X183193266Y-89447285D01*
X183469038Y-89998828D02*
X182503838Y-89677094D01*
X183469038Y-89355361D01*
X183469038Y-89033628D02*
X182503838Y-89033628D01*
X183193266Y-88711894D01*
X182503838Y-88390161D01*
X183469038Y-88390161D01*
X183469038Y-87930542D02*
X182503838Y-87930542D01*
X182503838Y-87562847D01*
X182549800Y-87470923D01*
X182595761Y-87424961D01*
X182687685Y-87378999D01*
X182825571Y-87378999D01*
X182917495Y-87424961D01*
X182963457Y-87470923D01*
X183009419Y-87562847D01*
X183009419Y-87930542D01*
X182503838Y-86321875D02*
X182503838Y-85678409D01*
X183469038Y-86092066D01*
X182917495Y-85172828D02*
X182871533Y-85264752D01*
X182825571Y-85310713D01*
X182733647Y-85356675D01*
X182687685Y-85356675D01*
X182595761Y-85310713D01*
X182549800Y-85264752D01*
X182503838Y-85172828D01*
X182503838Y-84988980D01*
X182549800Y-84897056D01*
X182595761Y-84851094D01*
X182687685Y-84805132D01*
X182733647Y-84805132D01*
X182825571Y-84851094D01*
X182871533Y-84897056D01*
X182917495Y-84988980D01*
X182917495Y-85172828D01*
X182963457Y-85264752D01*
X183009419Y-85310713D01*
X183101342Y-85356675D01*
X183285190Y-85356675D01*
X183377114Y-85310713D01*
X183423076Y-85264752D01*
X183469038Y-85172828D01*
X183469038Y-84988980D01*
X183423076Y-84897056D01*
X183377114Y-84851094D01*
X183285190Y-84805132D01*
X183101342Y-84805132D01*
X183009419Y-84851094D01*
X182963457Y-84897056D01*
X182917495Y-84988980D01*
X182503838Y-84483399D02*
X182503838Y-83839932D01*
X183469038Y-84253590D01*
X182503838Y-83058580D02*
X182503838Y-83242428D01*
X182549800Y-83334352D01*
X182595761Y-83380313D01*
X182733647Y-83472237D01*
X182917495Y-83518199D01*
X183285190Y-83518199D01*
X183377114Y-83472237D01*
X183423076Y-83426275D01*
X183469038Y-83334352D01*
X183469038Y-83150504D01*
X183423076Y-83058580D01*
X183377114Y-83012618D01*
X183285190Y-82966656D01*
X183055380Y-82966656D01*
X182963457Y-83012618D01*
X182917495Y-83058580D01*
X182871533Y-83150504D01*
X182871533Y-83334352D01*
X182917495Y-83426275D01*
X182963457Y-83472237D01*
X183055380Y-83518199D01*
X183469038Y-82047418D02*
X183469038Y-82598961D01*
X183469038Y-82323190D02*
X182503838Y-82323190D01*
X182641723Y-82415113D01*
X182733647Y-82507037D01*
X182779609Y-82598961D01*
X182503838Y-81220104D02*
X182503838Y-81403952D01*
X182549800Y-81495875D01*
X182595761Y-81541837D01*
X182733647Y-81633761D01*
X182917495Y-81679723D01*
X183285190Y-81679723D01*
X183377114Y-81633761D01*
X183423076Y-81587799D01*
X183469038Y-81495875D01*
X183469038Y-81312028D01*
X183423076Y-81220104D01*
X183377114Y-81174142D01*
X183285190Y-81128180D01*
X183055380Y-81128180D01*
X182963457Y-81174142D01*
X182917495Y-81220104D01*
X182871533Y-81312028D01*
X182871533Y-81495875D01*
X182917495Y-81587799D01*
X182963457Y-81633761D01*
X183055380Y-81679723D01*
X183101342Y-80714523D02*
X183101342Y-79979132D01*
X183469038Y-79013932D02*
X183469038Y-79565475D01*
X183469038Y-79289704D02*
X182503838Y-79289704D01*
X182641723Y-79381628D01*
X182733647Y-79473552D01*
X182779609Y-79565475D01*
%TO.C,X3*%
D21*
X154760594Y-109166070D02*
X155275367Y-109938230D01*
X155275367Y-109166070D02*
X154760594Y-109938230D01*
X155495984Y-109166070D02*
X155973988Y-109166070D01*
X155716601Y-109460226D01*
X155826910Y-109460226D01*
X155900449Y-109496996D01*
X155937218Y-109533765D01*
X155973988Y-109607304D01*
X155973988Y-109791152D01*
X155937218Y-109864691D01*
X155900449Y-109901460D01*
X155826910Y-109938230D01*
X155606293Y-109938230D01*
X155532754Y-109901460D01*
X155495984Y-109864691D01*
%TO.C,USR1*%
D26*
X111963838Y-51177609D02*
X112745190Y-51177609D01*
X112837114Y-51131647D01*
X112883076Y-51085685D01*
X112929038Y-50993761D01*
X112929038Y-50809914D01*
X112883076Y-50717990D01*
X112837114Y-50672028D01*
X112745190Y-50626066D01*
X111963838Y-50626066D01*
X112883076Y-50212409D02*
X112929038Y-50074523D01*
X112929038Y-49844714D01*
X112883076Y-49752790D01*
X112837114Y-49706828D01*
X112745190Y-49660866D01*
X112653266Y-49660866D01*
X112561342Y-49706828D01*
X112515380Y-49752790D01*
X112469419Y-49844714D01*
X112423457Y-50028561D01*
X112377495Y-50120485D01*
X112331533Y-50166447D01*
X112239609Y-50212409D01*
X112147685Y-50212409D01*
X112055761Y-50166447D01*
X112009800Y-50120485D01*
X111963838Y-50028561D01*
X111963838Y-49798752D01*
X112009800Y-49660866D01*
X112929038Y-48695666D02*
X112469419Y-49017400D01*
X112929038Y-49247209D02*
X111963838Y-49247209D01*
X111963838Y-48879514D01*
X112009800Y-48787590D01*
X112055761Y-48741628D01*
X112147685Y-48695666D01*
X112285571Y-48695666D01*
X112377495Y-48741628D01*
X112423457Y-48787590D01*
X112469419Y-48879514D01*
X112469419Y-49247209D01*
X112929038Y-47776428D02*
X112929038Y-48327971D01*
X112929038Y-48052200D02*
X111963838Y-48052200D01*
X112101723Y-48144123D01*
X112193647Y-48236047D01*
X112239609Y-48327971D01*
%TO.C,USR2*%
X172747390Y-112963838D02*
X172747390Y-113745190D01*
X172793352Y-113837114D01*
X172839314Y-113883076D01*
X172931238Y-113929038D01*
X173115085Y-113929038D01*
X173207009Y-113883076D01*
X173252971Y-113837114D01*
X173298933Y-113745190D01*
X173298933Y-112963838D01*
X173712590Y-113883076D02*
X173850476Y-113929038D01*
X174080285Y-113929038D01*
X174172209Y-113883076D01*
X174218171Y-113837114D01*
X174264133Y-113745190D01*
X174264133Y-113653266D01*
X174218171Y-113561342D01*
X174172209Y-113515380D01*
X174080285Y-113469419D01*
X173896438Y-113423457D01*
X173804514Y-113377495D01*
X173758552Y-113331533D01*
X173712590Y-113239609D01*
X173712590Y-113147685D01*
X173758552Y-113055761D01*
X173804514Y-113009800D01*
X173896438Y-112963838D01*
X174126247Y-112963838D01*
X174264133Y-113009800D01*
X175229333Y-113929038D02*
X174907600Y-113469419D01*
X174677790Y-113929038D02*
X174677790Y-112963838D01*
X175045485Y-112963838D01*
X175137409Y-113009800D01*
X175183371Y-113055761D01*
X175229333Y-113147685D01*
X175229333Y-113285571D01*
X175183371Y-113377495D01*
X175137409Y-113423457D01*
X175045485Y-113469419D01*
X174677790Y-113469419D01*
X175597028Y-113055761D02*
X175642990Y-113009800D01*
X175734914Y-112963838D01*
X175964723Y-112963838D01*
X176056647Y-113009800D01*
X176102609Y-113055761D01*
X176148571Y-113147685D01*
X176148571Y-113239609D01*
X176102609Y-113377495D01*
X175551066Y-113929038D01*
X176148571Y-113929038D01*
%TO.C,USR3*%
X113597390Y-46813838D02*
X113597390Y-47595190D01*
X113643352Y-47687114D01*
X113689314Y-47733076D01*
X113781238Y-47779038D01*
X113965085Y-47779038D01*
X114057009Y-47733076D01*
X114102971Y-47687114D01*
X114148933Y-47595190D01*
X114148933Y-46813838D01*
X114562590Y-47733076D02*
X114700476Y-47779038D01*
X114930285Y-47779038D01*
X115022209Y-47733076D01*
X115068171Y-47687114D01*
X115114133Y-47595190D01*
X115114133Y-47503266D01*
X115068171Y-47411342D01*
X115022209Y-47365380D01*
X114930285Y-47319419D01*
X114746438Y-47273457D01*
X114654514Y-47227495D01*
X114608552Y-47181533D01*
X114562590Y-47089609D01*
X114562590Y-46997685D01*
X114608552Y-46905761D01*
X114654514Y-46859800D01*
X114746438Y-46813838D01*
X114976247Y-46813838D01*
X115114133Y-46859800D01*
X116079333Y-47779038D02*
X115757600Y-47319419D01*
X115527790Y-47779038D02*
X115527790Y-46813838D01*
X115895485Y-46813838D01*
X115987409Y-46859800D01*
X116033371Y-46905761D01*
X116079333Y-46997685D01*
X116079333Y-47135571D01*
X116033371Y-47227495D01*
X115987409Y-47273457D01*
X115895485Y-47319419D01*
X115527790Y-47319419D01*
X116401066Y-46813838D02*
X116998571Y-46813838D01*
X116676838Y-47181533D01*
X116814723Y-47181533D01*
X116906647Y-47227495D01*
X116952609Y-47273457D01*
X116998571Y-47365380D01*
X116998571Y-47595190D01*
X116952609Y-47687114D01*
X116906647Y-47733076D01*
X116814723Y-47779038D01*
X116538952Y-47779038D01*
X116447028Y-47733076D01*
X116401066Y-47687114D01*
%TO.C,USR4*%
X99572390Y-53013838D02*
X99572390Y-53795190D01*
X99618352Y-53887114D01*
X99664314Y-53933076D01*
X99756238Y-53979038D01*
X99940085Y-53979038D01*
X100032009Y-53933076D01*
X100077971Y-53887114D01*
X100123933Y-53795190D01*
X100123933Y-53013838D01*
X100537590Y-53933076D02*
X100675476Y-53979038D01*
X100905285Y-53979038D01*
X100997209Y-53933076D01*
X101043171Y-53887114D01*
X101089133Y-53795190D01*
X101089133Y-53703266D01*
X101043171Y-53611342D01*
X100997209Y-53565380D01*
X100905285Y-53519419D01*
X100721438Y-53473457D01*
X100629514Y-53427495D01*
X100583552Y-53381533D01*
X100537590Y-53289609D01*
X100537590Y-53197685D01*
X100583552Y-53105761D01*
X100629514Y-53059800D01*
X100721438Y-53013838D01*
X100951247Y-53013838D01*
X101089133Y-53059800D01*
X102054333Y-53979038D02*
X101732600Y-53519419D01*
X101502790Y-53979038D02*
X101502790Y-53013838D01*
X101870485Y-53013838D01*
X101962409Y-53059800D01*
X102008371Y-53105761D01*
X102054333Y-53197685D01*
X102054333Y-53335571D01*
X102008371Y-53427495D01*
X101962409Y-53473457D01*
X101870485Y-53519419D01*
X101502790Y-53519419D01*
X102881647Y-53335571D02*
X102881647Y-53979038D01*
X102651838Y-52967876D02*
X102422028Y-53657304D01*
X103019533Y-53657304D01*
%TO.C,TP8*%
D21*
X132952390Y-49941070D02*
X133393624Y-49941070D01*
X133173007Y-50713230D02*
X133173007Y-49941070D01*
X133651011Y-50713230D02*
X133651011Y-49941070D01*
X133945167Y-49941070D01*
X134018706Y-49977840D01*
X134055476Y-50014609D01*
X134092245Y-50088148D01*
X134092245Y-50198457D01*
X134055476Y-50271996D01*
X134018706Y-50308765D01*
X133945167Y-50345535D01*
X133651011Y-50345535D01*
X134533480Y-50271996D02*
X134459941Y-50235226D01*
X134423171Y-50198457D01*
X134386402Y-50124918D01*
X134386402Y-50088148D01*
X134423171Y-50014609D01*
X134459941Y-49977840D01*
X134533480Y-49941070D01*
X134680558Y-49941070D01*
X134754097Y-49977840D01*
X134790866Y-50014609D01*
X134827636Y-50088148D01*
X134827636Y-50124918D01*
X134790866Y-50198457D01*
X134754097Y-50235226D01*
X134680558Y-50271996D01*
X134533480Y-50271996D01*
X134459941Y-50308765D01*
X134423171Y-50345535D01*
X134386402Y-50419074D01*
X134386402Y-50566152D01*
X134423171Y-50639691D01*
X134459941Y-50676460D01*
X134533480Y-50713230D01*
X134680558Y-50713230D01*
X134754097Y-50676460D01*
X134790866Y-50639691D01*
X134827636Y-50566152D01*
X134827636Y-50419074D01*
X134790866Y-50345535D01*
X134754097Y-50308765D01*
X134680558Y-50271996D01*
%TO.C,TP7*%
X135048824Y-48016070D02*
X135490058Y-48016070D01*
X135269441Y-48788230D02*
X135269441Y-48016070D01*
X135747445Y-48788230D02*
X135747445Y-48016070D01*
X136041601Y-48016070D01*
X136115140Y-48052840D01*
X136151910Y-48089609D01*
X136188679Y-48163148D01*
X136188679Y-48273457D01*
X136151910Y-48346996D01*
X136115140Y-48383765D01*
X136041601Y-48420535D01*
X135747445Y-48420535D01*
X136446066Y-48016070D02*
X136960839Y-48016070D01*
X136629914Y-48788230D01*
%TO.C,TP6*%
X132023824Y-48091070D02*
X132465058Y-48091070D01*
X132244441Y-48863230D02*
X132244441Y-48091070D01*
X132722445Y-48863230D02*
X132722445Y-48091070D01*
X133016601Y-48091070D01*
X133090140Y-48127840D01*
X133126910Y-48164609D01*
X133163679Y-48238148D01*
X133163679Y-48348457D01*
X133126910Y-48421996D01*
X133090140Y-48458765D01*
X133016601Y-48495535D01*
X132722445Y-48495535D01*
X133825531Y-48091070D02*
X133678453Y-48091070D01*
X133604914Y-48127840D01*
X133568144Y-48164609D01*
X133494605Y-48274918D01*
X133457836Y-48421996D01*
X133457836Y-48716152D01*
X133494605Y-48789691D01*
X133531375Y-48826460D01*
X133604914Y-48863230D01*
X133751992Y-48863230D01*
X133825531Y-48826460D01*
X133862300Y-48789691D01*
X133899070Y-48716152D01*
X133899070Y-48532304D01*
X133862300Y-48458765D01*
X133825531Y-48421996D01*
X133751992Y-48385226D01*
X133604914Y-48385226D01*
X133531375Y-48421996D01*
X133494605Y-48458765D01*
X133457836Y-48532304D01*
%TO.C,TP5*%
X99473824Y-75041070D02*
X99915058Y-75041070D01*
X99694441Y-75813230D02*
X99694441Y-75041070D01*
X100172445Y-75813230D02*
X100172445Y-75041070D01*
X100466601Y-75041070D01*
X100540140Y-75077840D01*
X100576910Y-75114609D01*
X100613679Y-75188148D01*
X100613679Y-75298457D01*
X100576910Y-75371996D01*
X100540140Y-75408765D01*
X100466601Y-75445535D01*
X100172445Y-75445535D01*
X101312300Y-75041070D02*
X100944605Y-75041070D01*
X100907836Y-75408765D01*
X100944605Y-75371996D01*
X101018144Y-75335226D01*
X101201992Y-75335226D01*
X101275531Y-75371996D01*
X101312300Y-75408765D01*
X101349070Y-75482304D01*
X101349070Y-75666152D01*
X101312300Y-75739691D01*
X101275531Y-75776460D01*
X101201992Y-75813230D01*
X101018144Y-75813230D01*
X100944605Y-75776460D01*
X100907836Y-75739691D01*
%TO.C,T2*%
X150323824Y-57416070D02*
X150765058Y-57416070D01*
X150544441Y-58188230D02*
X150544441Y-57416070D01*
X150985676Y-57489609D02*
X151022445Y-57452840D01*
X151095984Y-57416070D01*
X151279832Y-57416070D01*
X151353371Y-57452840D01*
X151390140Y-57489609D01*
X151426910Y-57563148D01*
X151426910Y-57636687D01*
X151390140Y-57746996D01*
X150948906Y-58188230D01*
X151426910Y-58188230D01*
%TO.C,T1*%
X141191070Y-62426175D02*
X141191070Y-61984941D01*
X141963230Y-62205558D02*
X141191070Y-62205558D01*
X141963230Y-61323089D02*
X141963230Y-61764323D01*
X141963230Y-61543706D02*
X141191070Y-61543706D01*
X141301379Y-61617245D01*
X141374918Y-61690784D01*
X141411687Y-61764323D01*
%TO.C,RESET1*%
X121988230Y-88353698D02*
X121620535Y-88611085D01*
X121988230Y-88794933D02*
X121216070Y-88794933D01*
X121216070Y-88500777D01*
X121252840Y-88427237D01*
X121289609Y-88390468D01*
X121363148Y-88353698D01*
X121473457Y-88353698D01*
X121546996Y-88390468D01*
X121583765Y-88427237D01*
X121620535Y-88500777D01*
X121620535Y-88794933D01*
X121583765Y-88022773D02*
X121583765Y-87765386D01*
X121988230Y-87655077D02*
X121988230Y-88022773D01*
X121216070Y-88022773D01*
X121216070Y-87655077D01*
X121951460Y-87360921D02*
X121988230Y-87250613D01*
X121988230Y-87066765D01*
X121951460Y-86993226D01*
X121914691Y-86956457D01*
X121841152Y-86919687D01*
X121767613Y-86919687D01*
X121694074Y-86956457D01*
X121657304Y-86993226D01*
X121620535Y-87066765D01*
X121583765Y-87213843D01*
X121546996Y-87287382D01*
X121510226Y-87324152D01*
X121436687Y-87360921D01*
X121363148Y-87360921D01*
X121289609Y-87324152D01*
X121252840Y-87287382D01*
X121216070Y-87213843D01*
X121216070Y-87029996D01*
X121252840Y-86919687D01*
X121583765Y-86588761D02*
X121583765Y-86331375D01*
X121988230Y-86221066D02*
X121988230Y-86588761D01*
X121216070Y-86588761D01*
X121216070Y-86221066D01*
X121216070Y-86000449D02*
X121216070Y-85559215D01*
X121988230Y-85779832D02*
X121216070Y-85779832D01*
X121988230Y-84897363D02*
X121988230Y-85338597D01*
X121988230Y-85117980D02*
X121216070Y-85117980D01*
X121326379Y-85191519D01*
X121399918Y-85265058D01*
X121436687Y-85338597D01*
%TO.C,R20*%
X102256855Y-56688230D02*
X101999468Y-56320535D01*
X101815621Y-56688230D02*
X101815621Y-55916070D01*
X102109777Y-55916070D01*
X102183316Y-55952840D01*
X102220085Y-55989609D01*
X102256855Y-56063148D01*
X102256855Y-56173457D01*
X102220085Y-56246996D01*
X102183316Y-56283765D01*
X102109777Y-56320535D01*
X101815621Y-56320535D01*
X102551011Y-55989609D02*
X102587781Y-55952840D01*
X102661320Y-55916070D01*
X102845167Y-55916070D01*
X102918706Y-55952840D01*
X102955476Y-55989609D01*
X102992245Y-56063148D01*
X102992245Y-56136687D01*
X102955476Y-56246996D01*
X102514242Y-56688230D01*
X102992245Y-56688230D01*
X103470249Y-55916070D02*
X103543788Y-55916070D01*
X103617327Y-55952840D01*
X103654097Y-55989609D01*
X103690866Y-56063148D01*
X103727636Y-56210226D01*
X103727636Y-56394074D01*
X103690866Y-56541152D01*
X103654097Y-56614691D01*
X103617327Y-56651460D01*
X103543788Y-56688230D01*
X103470249Y-56688230D01*
X103396710Y-56651460D01*
X103359941Y-56614691D01*
X103323171Y-56541152D01*
X103286402Y-56394074D01*
X103286402Y-56210226D01*
X103323171Y-56063148D01*
X103359941Y-55989609D01*
X103396710Y-55952840D01*
X103470249Y-55916070D01*
%TO.C,R7*%
X139400367Y-59163230D02*
X139142980Y-58795535D01*
X138959133Y-59163230D02*
X138959133Y-58391070D01*
X139253289Y-58391070D01*
X139326828Y-58427840D01*
X139363597Y-58464609D01*
X139400367Y-58538148D01*
X139400367Y-58648457D01*
X139363597Y-58721996D01*
X139326828Y-58758765D01*
X139253289Y-58795535D01*
X138959133Y-58795535D01*
X139657754Y-58391070D02*
X140172527Y-58391070D01*
X139841601Y-59163230D01*
%TO.C,R9*%
X174725367Y-66638230D02*
X174467980Y-66270535D01*
X174284133Y-66638230D02*
X174284133Y-65866070D01*
X174578289Y-65866070D01*
X174651828Y-65902840D01*
X174688597Y-65939609D01*
X174725367Y-66013148D01*
X174725367Y-66123457D01*
X174688597Y-66196996D01*
X174651828Y-66233765D01*
X174578289Y-66270535D01*
X174284133Y-66270535D01*
X175093062Y-66638230D02*
X175240140Y-66638230D01*
X175313679Y-66601460D01*
X175350449Y-66564691D01*
X175423988Y-66454382D01*
X175460757Y-66307304D01*
X175460757Y-66013148D01*
X175423988Y-65939609D01*
X175387218Y-65902840D01*
X175313679Y-65866070D01*
X175166601Y-65866070D01*
X175093062Y-65902840D01*
X175056293Y-65939609D01*
X175019523Y-66013148D01*
X175019523Y-66196996D01*
X175056293Y-66270535D01*
X175093062Y-66307304D01*
X175166601Y-66344074D01*
X175313679Y-66344074D01*
X175387218Y-66307304D01*
X175423988Y-66270535D01*
X175460757Y-66196996D01*
%TO.C,R13*%
X168838230Y-61943144D02*
X168470535Y-62200531D01*
X168838230Y-62384378D02*
X168066070Y-62384378D01*
X168066070Y-62090222D01*
X168102840Y-62016683D01*
X168139609Y-61979914D01*
X168213148Y-61943144D01*
X168323457Y-61943144D01*
X168396996Y-61979914D01*
X168433765Y-62016683D01*
X168470535Y-62090222D01*
X168470535Y-62384378D01*
X168838230Y-61207754D02*
X168838230Y-61648988D01*
X168838230Y-61428371D02*
X168066070Y-61428371D01*
X168176379Y-61501910D01*
X168249918Y-61575449D01*
X168286687Y-61648988D01*
X168066070Y-60950367D02*
X168066070Y-60472363D01*
X168360226Y-60729750D01*
X168360226Y-60619441D01*
X168396996Y-60545902D01*
X168433765Y-60509133D01*
X168507304Y-60472363D01*
X168691152Y-60472363D01*
X168764691Y-60509133D01*
X168801460Y-60545902D01*
X168838230Y-60619441D01*
X168838230Y-60840058D01*
X168801460Y-60913597D01*
X168764691Y-60950367D01*
%TO.C,R12*%
D27*
X176094214Y-62996428D02*
X175894214Y-62710714D01*
X175751357Y-62996428D02*
X175751357Y-62396428D01*
X175979928Y-62396428D01*
X176037071Y-62425000D01*
X176065642Y-62453571D01*
X176094214Y-62510714D01*
X176094214Y-62596428D01*
X176065642Y-62653571D01*
X176037071Y-62682142D01*
X175979928Y-62710714D01*
X175751357Y-62710714D01*
X176665642Y-62996428D02*
X176322785Y-62996428D01*
X176494214Y-62996428D02*
X176494214Y-62396428D01*
X176437071Y-62482142D01*
X176379928Y-62539285D01*
X176322785Y-62567857D01*
X176894214Y-62453571D02*
X176922785Y-62425000D01*
X176979928Y-62396428D01*
X177122785Y-62396428D01*
X177179928Y-62425000D01*
X177208500Y-62453571D01*
X177237071Y-62510714D01*
X177237071Y-62567857D01*
X177208500Y-62653571D01*
X176865642Y-62996428D01*
X177237071Y-62996428D01*
%TO.C,R11*%
D21*
X178450367Y-65238230D02*
X178192980Y-64870535D01*
X178009133Y-65238230D02*
X178009133Y-64466070D01*
X178303289Y-64466070D01*
X178376828Y-64502840D01*
X178413597Y-64539609D01*
X178450367Y-64613148D01*
X178450367Y-64723457D01*
X178413597Y-64796996D01*
X178376828Y-64833765D01*
X178303289Y-64870535D01*
X178009133Y-64870535D01*
X179185757Y-65238230D02*
X178744523Y-65238230D01*
X178965140Y-65238230D02*
X178965140Y-64466070D01*
X178891601Y-64576379D01*
X178818062Y-64649918D01*
X178744523Y-64686687D01*
X179921148Y-65238230D02*
X179479914Y-65238230D01*
X179700531Y-65238230D02*
X179700531Y-64466070D01*
X179626992Y-64576379D01*
X179553453Y-64649918D01*
X179479914Y-64686687D01*
%TO.C,R8*%
X167942245Y-52463230D02*
X167684859Y-52095535D01*
X167501011Y-52463230D02*
X167501011Y-51691070D01*
X167795167Y-51691070D01*
X167868706Y-51727840D01*
X167905476Y-51764609D01*
X167942245Y-51838148D01*
X167942245Y-51948457D01*
X167905476Y-52021996D01*
X167868706Y-52058765D01*
X167795167Y-52095535D01*
X167501011Y-52095535D01*
X168383480Y-52021996D02*
X168309941Y-51985226D01*
X168273171Y-51948457D01*
X168236402Y-51874918D01*
X168236402Y-51838148D01*
X168273171Y-51764609D01*
X168309941Y-51727840D01*
X168383480Y-51691070D01*
X168530558Y-51691070D01*
X168604097Y-51727840D01*
X168640866Y-51764609D01*
X168677636Y-51838148D01*
X168677636Y-51874918D01*
X168640866Y-51948457D01*
X168604097Y-51985226D01*
X168530558Y-52021996D01*
X168383480Y-52021996D01*
X168309941Y-52058765D01*
X168273171Y-52095535D01*
X168236402Y-52169074D01*
X168236402Y-52316152D01*
X168273171Y-52389691D01*
X168309941Y-52426460D01*
X168383480Y-52463230D01*
X168530558Y-52463230D01*
X168604097Y-52426460D01*
X168640866Y-52389691D01*
X168677636Y-52316152D01*
X168677636Y-52169074D01*
X168640866Y-52095535D01*
X168604097Y-52058765D01*
X168530558Y-52021996D01*
%TO.C,R14*%
X104981855Y-51863230D02*
X104724468Y-51495535D01*
X104540621Y-51863230D02*
X104540621Y-51091070D01*
X104834777Y-51091070D01*
X104908316Y-51127840D01*
X104945085Y-51164609D01*
X104981855Y-51238148D01*
X104981855Y-51348457D01*
X104945085Y-51421996D01*
X104908316Y-51458765D01*
X104834777Y-51495535D01*
X104540621Y-51495535D01*
X105717245Y-51863230D02*
X105276011Y-51863230D01*
X105496628Y-51863230D02*
X105496628Y-51091070D01*
X105423089Y-51201379D01*
X105349550Y-51274918D01*
X105276011Y-51311687D01*
X106379097Y-51348457D02*
X106379097Y-51863230D01*
X106195249Y-51054300D02*
X106011402Y-51605843D01*
X106489405Y-51605843D01*
%TO.C,R64*%
X105400367Y-54188230D02*
X105142980Y-53820535D01*
X104959133Y-54188230D02*
X104959133Y-53416070D01*
X105253289Y-53416070D01*
X105326828Y-53452840D01*
X105363597Y-53489609D01*
X105400367Y-53563148D01*
X105400367Y-53673457D01*
X105363597Y-53746996D01*
X105326828Y-53783765D01*
X105253289Y-53820535D01*
X104959133Y-53820535D01*
X106062218Y-53416070D02*
X105915140Y-53416070D01*
X105841601Y-53452840D01*
X105804832Y-53489609D01*
X105731293Y-53599918D01*
X105694523Y-53746996D01*
X105694523Y-54041152D01*
X105731293Y-54114691D01*
X105768062Y-54151460D01*
X105841601Y-54188230D01*
X105988679Y-54188230D01*
X106062218Y-54151460D01*
X106098988Y-54114691D01*
X106135757Y-54041152D01*
X106135757Y-53857304D01*
X106098988Y-53783765D01*
X106062218Y-53746996D01*
X105988679Y-53710226D01*
X105841601Y-53710226D01*
X105768062Y-53746996D01*
X105731293Y-53783765D01*
X105694523Y-53857304D01*
X106797609Y-53673457D02*
X106797609Y-54188230D01*
X106613761Y-53379300D02*
X106429914Y-53930843D01*
X106907917Y-53930843D01*
%TO.C,R63*%
X116406855Y-51963230D02*
X116149468Y-51595535D01*
X115965621Y-51963230D02*
X115965621Y-51191070D01*
X116259777Y-51191070D01*
X116333316Y-51227840D01*
X116370085Y-51264609D01*
X116406855Y-51338148D01*
X116406855Y-51448457D01*
X116370085Y-51521996D01*
X116333316Y-51558765D01*
X116259777Y-51595535D01*
X115965621Y-51595535D01*
X117068706Y-51191070D02*
X116921628Y-51191070D01*
X116848089Y-51227840D01*
X116811320Y-51264609D01*
X116737781Y-51374918D01*
X116701011Y-51521996D01*
X116701011Y-51816152D01*
X116737781Y-51889691D01*
X116774550Y-51926460D01*
X116848089Y-51963230D01*
X116995167Y-51963230D01*
X117068706Y-51926460D01*
X117105476Y-51889691D01*
X117142245Y-51816152D01*
X117142245Y-51632304D01*
X117105476Y-51558765D01*
X117068706Y-51521996D01*
X116995167Y-51485226D01*
X116848089Y-51485226D01*
X116774550Y-51521996D01*
X116737781Y-51558765D01*
X116701011Y-51632304D01*
X117399632Y-51191070D02*
X117877636Y-51191070D01*
X117620249Y-51485226D01*
X117730558Y-51485226D01*
X117804097Y-51521996D01*
X117840866Y-51558765D01*
X117877636Y-51632304D01*
X117877636Y-51816152D01*
X117840866Y-51889691D01*
X117804097Y-51926460D01*
X117730558Y-51963230D01*
X117509941Y-51963230D01*
X117436402Y-51926460D01*
X117399632Y-51889691D01*
%TO.C,R62*%
X173875367Y-110388230D02*
X173617980Y-110020535D01*
X173434133Y-110388230D02*
X173434133Y-109616070D01*
X173728289Y-109616070D01*
X173801828Y-109652840D01*
X173838597Y-109689609D01*
X173875367Y-109763148D01*
X173875367Y-109873457D01*
X173838597Y-109946996D01*
X173801828Y-109983765D01*
X173728289Y-110020535D01*
X173434133Y-110020535D01*
X174537218Y-109616070D02*
X174390140Y-109616070D01*
X174316601Y-109652840D01*
X174279832Y-109689609D01*
X174206293Y-109799918D01*
X174169523Y-109946996D01*
X174169523Y-110241152D01*
X174206293Y-110314691D01*
X174243062Y-110351460D01*
X174316601Y-110388230D01*
X174463679Y-110388230D01*
X174537218Y-110351460D01*
X174573988Y-110314691D01*
X174610757Y-110241152D01*
X174610757Y-110057304D01*
X174573988Y-109983765D01*
X174537218Y-109946996D01*
X174463679Y-109910226D01*
X174316601Y-109910226D01*
X174243062Y-109946996D01*
X174206293Y-109983765D01*
X174169523Y-110057304D01*
X174904914Y-109689609D02*
X174941683Y-109652840D01*
X175015222Y-109616070D01*
X175199070Y-109616070D01*
X175272609Y-109652840D01*
X175309378Y-109689609D01*
X175346148Y-109763148D01*
X175346148Y-109836687D01*
X175309378Y-109946996D01*
X174868144Y-110388230D01*
X175346148Y-110388230D01*
%TO.C,R61*%
X114331855Y-51963230D02*
X114074468Y-51595535D01*
X113890621Y-51963230D02*
X113890621Y-51191070D01*
X114184777Y-51191070D01*
X114258316Y-51227840D01*
X114295085Y-51264609D01*
X114331855Y-51338148D01*
X114331855Y-51448457D01*
X114295085Y-51521996D01*
X114258316Y-51558765D01*
X114184777Y-51595535D01*
X113890621Y-51595535D01*
X114993706Y-51191070D02*
X114846628Y-51191070D01*
X114773089Y-51227840D01*
X114736320Y-51264609D01*
X114662781Y-51374918D01*
X114626011Y-51521996D01*
X114626011Y-51816152D01*
X114662781Y-51889691D01*
X114699550Y-51926460D01*
X114773089Y-51963230D01*
X114920167Y-51963230D01*
X114993706Y-51926460D01*
X115030476Y-51889691D01*
X115067245Y-51816152D01*
X115067245Y-51632304D01*
X115030476Y-51558765D01*
X114993706Y-51521996D01*
X114920167Y-51485226D01*
X114773089Y-51485226D01*
X114699550Y-51521996D01*
X114662781Y-51558765D01*
X114626011Y-51632304D01*
X115802636Y-51963230D02*
X115361402Y-51963230D01*
X115582019Y-51963230D02*
X115582019Y-51191070D01*
X115508480Y-51301379D01*
X115434941Y-51374918D01*
X115361402Y-51411687D01*
%TO.C,R50*%
D27*
X155388261Y-63751190D02*
X155221595Y-63513095D01*
X155102547Y-63751190D02*
X155102547Y-63251190D01*
X155293023Y-63251190D01*
X155340642Y-63275000D01*
X155364452Y-63298809D01*
X155388261Y-63346428D01*
X155388261Y-63417857D01*
X155364452Y-63465476D01*
X155340642Y-63489285D01*
X155293023Y-63513095D01*
X155102547Y-63513095D01*
X155840642Y-63251190D02*
X155602547Y-63251190D01*
X155578738Y-63489285D01*
X155602547Y-63465476D01*
X155650166Y-63441666D01*
X155769214Y-63441666D01*
X155816833Y-63465476D01*
X155840642Y-63489285D01*
X155864452Y-63536904D01*
X155864452Y-63655952D01*
X155840642Y-63703571D01*
X155816833Y-63727380D01*
X155769214Y-63751190D01*
X155650166Y-63751190D01*
X155602547Y-63727380D01*
X155578738Y-63703571D01*
X156173976Y-63251190D02*
X156221595Y-63251190D01*
X156269214Y-63275000D01*
X156293023Y-63298809D01*
X156316833Y-63346428D01*
X156340642Y-63441666D01*
X156340642Y-63560714D01*
X156316833Y-63655952D01*
X156293023Y-63703571D01*
X156269214Y-63727380D01*
X156221595Y-63751190D01*
X156173976Y-63751190D01*
X156126357Y-63727380D01*
X156102547Y-63703571D01*
X156078738Y-63655952D01*
X156054928Y-63560714D01*
X156054928Y-63441666D01*
X156078738Y-63346428D01*
X156102547Y-63298809D01*
X156126357Y-63275000D01*
X156173976Y-63251190D01*
%TO.C,R49*%
D14*
X136466666Y-63043333D02*
X136133333Y-63276666D01*
X136466666Y-63443333D02*
X135766666Y-63443333D01*
X135766666Y-63176666D01*
X135800000Y-63110000D01*
X135833333Y-63076666D01*
X135900000Y-63043333D01*
X136000000Y-63043333D01*
X136066666Y-63076666D01*
X136100000Y-63110000D01*
X136133333Y-63176666D01*
X136133333Y-63443333D01*
X136000000Y-62443333D02*
X136466666Y-62443333D01*
X135733333Y-62610000D02*
X136233333Y-62776666D01*
X136233333Y-62343333D01*
X136466666Y-62043333D02*
X136466666Y-61910000D01*
X136433333Y-61843333D01*
X136400000Y-61810000D01*
X136300000Y-61743333D01*
X136166666Y-61710000D01*
X135900000Y-61710000D01*
X135833333Y-61743333D01*
X135800000Y-61776666D01*
X135766666Y-61843333D01*
X135766666Y-61976666D01*
X135800000Y-62043333D01*
X135833333Y-62076666D01*
X135900000Y-62110000D01*
X136066666Y-62110000D01*
X136133333Y-62076666D01*
X136166666Y-62043333D01*
X136200000Y-61976666D01*
X136200000Y-61843333D01*
X136166666Y-61776666D01*
X136133333Y-61743333D01*
X136066666Y-61710000D01*
%TO.C,R47*%
D21*
X136300367Y-65638230D02*
X136042980Y-65270535D01*
X135859133Y-65638230D02*
X135859133Y-64866070D01*
X136153289Y-64866070D01*
X136226828Y-64902840D01*
X136263597Y-64939609D01*
X136300367Y-65013148D01*
X136300367Y-65123457D01*
X136263597Y-65196996D01*
X136226828Y-65233765D01*
X136153289Y-65270535D01*
X135859133Y-65270535D01*
X136962218Y-65123457D02*
X136962218Y-65638230D01*
X136778371Y-64829300D02*
X136594523Y-65380843D01*
X137072527Y-65380843D01*
X137293144Y-64866070D02*
X137807917Y-64866070D01*
X137476992Y-65638230D01*
%TO.C,R48*%
X129732367Y-49703230D02*
X129474980Y-49335535D01*
X129291133Y-49703230D02*
X129291133Y-48931070D01*
X129585289Y-48931070D01*
X129658828Y-48967840D01*
X129695597Y-49004609D01*
X129732367Y-49078148D01*
X129732367Y-49188457D01*
X129695597Y-49261996D01*
X129658828Y-49298765D01*
X129585289Y-49335535D01*
X129291133Y-49335535D01*
X130394218Y-49188457D02*
X130394218Y-49703230D01*
X130210371Y-48894300D02*
X130026523Y-49445843D01*
X130504527Y-49445843D01*
X130908992Y-49261996D02*
X130835453Y-49225226D01*
X130798683Y-49188457D01*
X130761914Y-49114918D01*
X130761914Y-49078148D01*
X130798683Y-49004609D01*
X130835453Y-48967840D01*
X130908992Y-48931070D01*
X131056070Y-48931070D01*
X131129609Y-48967840D01*
X131166378Y-49004609D01*
X131203148Y-49078148D01*
X131203148Y-49114918D01*
X131166378Y-49188457D01*
X131129609Y-49225226D01*
X131056070Y-49261996D01*
X130908992Y-49261996D01*
X130835453Y-49298765D01*
X130798683Y-49335535D01*
X130761914Y-49409074D01*
X130761914Y-49556152D01*
X130798683Y-49629691D01*
X130835453Y-49666460D01*
X130908992Y-49703230D01*
X131056070Y-49703230D01*
X131129609Y-49666460D01*
X131166378Y-49629691D01*
X131203148Y-49556152D01*
X131203148Y-49409074D01*
X131166378Y-49335535D01*
X131129609Y-49298765D01*
X131056070Y-49261996D01*
%TO.C,R46*%
D27*
X136288261Y-59901190D02*
X136121595Y-59663095D01*
X136002547Y-59901190D02*
X136002547Y-59401190D01*
X136193023Y-59401190D01*
X136240642Y-59425000D01*
X136264452Y-59448809D01*
X136288261Y-59496428D01*
X136288261Y-59567857D01*
X136264452Y-59615476D01*
X136240642Y-59639285D01*
X136193023Y-59663095D01*
X136002547Y-59663095D01*
X136716833Y-59567857D02*
X136716833Y-59901190D01*
X136597785Y-59377380D02*
X136478738Y-59734523D01*
X136788261Y-59734523D01*
X137193023Y-59401190D02*
X137097785Y-59401190D01*
X137050166Y-59425000D01*
X137026357Y-59448809D01*
X136978738Y-59520238D01*
X136954928Y-59615476D01*
X136954928Y-59805952D01*
X136978738Y-59853571D01*
X137002547Y-59877380D01*
X137050166Y-59901190D01*
X137145404Y-59901190D01*
X137193023Y-59877380D01*
X137216833Y-59853571D01*
X137240642Y-59805952D01*
X137240642Y-59686904D01*
X137216833Y-59639285D01*
X137193023Y-59615476D01*
X137145404Y-59591666D01*
X137050166Y-59591666D01*
X137002547Y-59615476D01*
X136978738Y-59639285D01*
X136954928Y-59686904D01*
%TO.C,R45*%
X136238261Y-58201190D02*
X136071595Y-57963095D01*
X135952547Y-58201190D02*
X135952547Y-57701190D01*
X136143023Y-57701190D01*
X136190642Y-57725000D01*
X136214452Y-57748809D01*
X136238261Y-57796428D01*
X136238261Y-57867857D01*
X136214452Y-57915476D01*
X136190642Y-57939285D01*
X136143023Y-57963095D01*
X135952547Y-57963095D01*
X136666833Y-57867857D02*
X136666833Y-58201190D01*
X136547785Y-57677380D02*
X136428738Y-58034523D01*
X136738261Y-58034523D01*
X137166833Y-57701190D02*
X136928738Y-57701190D01*
X136904928Y-57939285D01*
X136928738Y-57915476D01*
X136976357Y-57891666D01*
X137095404Y-57891666D01*
X137143023Y-57915476D01*
X137166833Y-57939285D01*
X137190642Y-57986904D01*
X137190642Y-58105952D01*
X137166833Y-58153571D01*
X137143023Y-58177380D01*
X137095404Y-58201190D01*
X136976357Y-58201190D01*
X136928738Y-58177380D01*
X136904928Y-58153571D01*
%TO.C,R44*%
D21*
X142900367Y-69088230D02*
X142642980Y-68720535D01*
X142459133Y-69088230D02*
X142459133Y-68316070D01*
X142753289Y-68316070D01*
X142826828Y-68352840D01*
X142863597Y-68389609D01*
X142900367Y-68463148D01*
X142900367Y-68573457D01*
X142863597Y-68646996D01*
X142826828Y-68683765D01*
X142753289Y-68720535D01*
X142459133Y-68720535D01*
X143562218Y-68573457D02*
X143562218Y-69088230D01*
X143378371Y-68279300D02*
X143194523Y-68830843D01*
X143672527Y-68830843D01*
X144297609Y-68573457D02*
X144297609Y-69088230D01*
X144113761Y-68279300D02*
X143929914Y-68830843D01*
X144407917Y-68830843D01*
%TO.C,R43*%
X155450367Y-55613230D02*
X155192980Y-55245535D01*
X155009133Y-55613230D02*
X155009133Y-54841070D01*
X155303289Y-54841070D01*
X155376828Y-54877840D01*
X155413597Y-54914609D01*
X155450367Y-54988148D01*
X155450367Y-55098457D01*
X155413597Y-55171996D01*
X155376828Y-55208765D01*
X155303289Y-55245535D01*
X155009133Y-55245535D01*
X156112218Y-55098457D02*
X156112218Y-55613230D01*
X155928371Y-54804300D02*
X155744523Y-55355843D01*
X156222527Y-55355843D01*
X156443144Y-54841070D02*
X156921148Y-54841070D01*
X156663761Y-55135226D01*
X156774070Y-55135226D01*
X156847609Y-55171996D01*
X156884378Y-55208765D01*
X156921148Y-55282304D01*
X156921148Y-55466152D01*
X156884378Y-55539691D01*
X156847609Y-55576460D01*
X156774070Y-55613230D01*
X156553453Y-55613230D01*
X156479914Y-55576460D01*
X156443144Y-55539691D01*
%TO.C,R42*%
X139138230Y-57074632D02*
X138770535Y-57332019D01*
X139138230Y-57515866D02*
X138366070Y-57515866D01*
X138366070Y-57221710D01*
X138402840Y-57148171D01*
X138439609Y-57111402D01*
X138513148Y-57074632D01*
X138623457Y-57074632D01*
X138696996Y-57111402D01*
X138733765Y-57148171D01*
X138770535Y-57221710D01*
X138770535Y-57515866D01*
X138623457Y-56412781D02*
X139138230Y-56412781D01*
X138329300Y-56596628D02*
X138880843Y-56780476D01*
X138880843Y-56302472D01*
X138439609Y-56045085D02*
X138402840Y-56008316D01*
X138366070Y-55934777D01*
X138366070Y-55750929D01*
X138402840Y-55677390D01*
X138439609Y-55640621D01*
X138513148Y-55603851D01*
X138586687Y-55603851D01*
X138696996Y-55640621D01*
X139138230Y-56081855D01*
X139138230Y-55603851D01*
%TO.C,R35*%
X125150367Y-50938230D02*
X124892980Y-50570535D01*
X124709133Y-50938230D02*
X124709133Y-50166070D01*
X125003289Y-50166070D01*
X125076828Y-50202840D01*
X125113597Y-50239609D01*
X125150367Y-50313148D01*
X125150367Y-50423457D01*
X125113597Y-50496996D01*
X125076828Y-50533765D01*
X125003289Y-50570535D01*
X124709133Y-50570535D01*
X125407754Y-50166070D02*
X125885757Y-50166070D01*
X125628371Y-50460226D01*
X125738679Y-50460226D01*
X125812218Y-50496996D01*
X125848988Y-50533765D01*
X125885757Y-50607304D01*
X125885757Y-50791152D01*
X125848988Y-50864691D01*
X125812218Y-50901460D01*
X125738679Y-50938230D01*
X125518062Y-50938230D01*
X125444523Y-50901460D01*
X125407754Y-50864691D01*
X126584378Y-50166070D02*
X126216683Y-50166070D01*
X126179914Y-50533765D01*
X126216683Y-50496996D01*
X126290222Y-50460226D01*
X126474070Y-50460226D01*
X126547609Y-50496996D01*
X126584378Y-50533765D01*
X126621148Y-50607304D01*
X126621148Y-50791152D01*
X126584378Y-50864691D01*
X126547609Y-50901460D01*
X126474070Y-50938230D01*
X126290222Y-50938230D01*
X126216683Y-50901460D01*
X126179914Y-50864691D01*
%TO.C,R34*%
X143956855Y-53388230D02*
X143699468Y-53020535D01*
X143515621Y-53388230D02*
X143515621Y-52616070D01*
X143809777Y-52616070D01*
X143883316Y-52652840D01*
X143920085Y-52689609D01*
X143956855Y-52763148D01*
X143956855Y-52873457D01*
X143920085Y-52946996D01*
X143883316Y-52983765D01*
X143809777Y-53020535D01*
X143515621Y-53020535D01*
X144214242Y-52616070D02*
X144692245Y-52616070D01*
X144434859Y-52910226D01*
X144545167Y-52910226D01*
X144618706Y-52946996D01*
X144655476Y-52983765D01*
X144692245Y-53057304D01*
X144692245Y-53241152D01*
X144655476Y-53314691D01*
X144618706Y-53351460D01*
X144545167Y-53388230D01*
X144324550Y-53388230D01*
X144251011Y-53351460D01*
X144214242Y-53314691D01*
X145354097Y-52873457D02*
X145354097Y-53388230D01*
X145170249Y-52579300D02*
X144986402Y-53130843D01*
X145464405Y-53130843D01*
%TO.C,R33*%
X142061367Y-46728230D02*
X141803980Y-46360535D01*
X141620133Y-46728230D02*
X141620133Y-45956070D01*
X141914289Y-45956070D01*
X141987828Y-45992840D01*
X142024597Y-46029609D01*
X142061367Y-46103148D01*
X142061367Y-46213457D01*
X142024597Y-46286996D01*
X141987828Y-46323765D01*
X141914289Y-46360535D01*
X141620133Y-46360535D01*
X142318754Y-45956070D02*
X142796757Y-45956070D01*
X142539371Y-46250226D01*
X142649679Y-46250226D01*
X142723218Y-46286996D01*
X142759988Y-46323765D01*
X142796757Y-46397304D01*
X142796757Y-46581152D01*
X142759988Y-46654691D01*
X142723218Y-46691460D01*
X142649679Y-46728230D01*
X142429062Y-46728230D01*
X142355523Y-46691460D01*
X142318754Y-46654691D01*
X143054144Y-45956070D02*
X143532148Y-45956070D01*
X143274761Y-46250226D01*
X143385070Y-46250226D01*
X143458609Y-46286996D01*
X143495378Y-46323765D01*
X143532148Y-46397304D01*
X143532148Y-46581152D01*
X143495378Y-46654691D01*
X143458609Y-46691460D01*
X143385070Y-46728230D01*
X143164453Y-46728230D01*
X143090914Y-46691460D01*
X143054144Y-46654691D01*
%TO.C,R31*%
X139931855Y-54563230D02*
X139674468Y-54195535D01*
X139490621Y-54563230D02*
X139490621Y-53791070D01*
X139784777Y-53791070D01*
X139858316Y-53827840D01*
X139895085Y-53864609D01*
X139931855Y-53938148D01*
X139931855Y-54048457D01*
X139895085Y-54121996D01*
X139858316Y-54158765D01*
X139784777Y-54195535D01*
X139490621Y-54195535D01*
X140189242Y-53791070D02*
X140667245Y-53791070D01*
X140409859Y-54085226D01*
X140520167Y-54085226D01*
X140593706Y-54121996D01*
X140630476Y-54158765D01*
X140667245Y-54232304D01*
X140667245Y-54416152D01*
X140630476Y-54489691D01*
X140593706Y-54526460D01*
X140520167Y-54563230D01*
X140299550Y-54563230D01*
X140226011Y-54526460D01*
X140189242Y-54489691D01*
X141402636Y-54563230D02*
X140961402Y-54563230D01*
X141182019Y-54563230D02*
X141182019Y-53791070D01*
X141108480Y-53901379D01*
X141034941Y-53974918D01*
X140961402Y-54011687D01*
%TO.C,R29*%
X158225367Y-52313230D02*
X157967980Y-51945535D01*
X157784133Y-52313230D02*
X157784133Y-51541070D01*
X158078289Y-51541070D01*
X158151828Y-51577840D01*
X158188597Y-51614609D01*
X158225367Y-51688148D01*
X158225367Y-51798457D01*
X158188597Y-51871996D01*
X158151828Y-51908765D01*
X158078289Y-51945535D01*
X157784133Y-51945535D01*
X158519523Y-51614609D02*
X158556293Y-51577840D01*
X158629832Y-51541070D01*
X158813679Y-51541070D01*
X158887218Y-51577840D01*
X158923988Y-51614609D01*
X158960757Y-51688148D01*
X158960757Y-51761687D01*
X158923988Y-51871996D01*
X158482754Y-52313230D01*
X158960757Y-52313230D01*
X159328453Y-52313230D02*
X159475531Y-52313230D01*
X159549070Y-52276460D01*
X159585839Y-52239691D01*
X159659378Y-52129382D01*
X159696148Y-51982304D01*
X159696148Y-51688148D01*
X159659378Y-51614609D01*
X159622609Y-51577840D01*
X159549070Y-51541070D01*
X159401992Y-51541070D01*
X159328453Y-51577840D01*
X159291683Y-51614609D01*
X159254914Y-51688148D01*
X159254914Y-51871996D01*
X159291683Y-51945535D01*
X159328453Y-51982304D01*
X159401992Y-52019074D01*
X159549070Y-52019074D01*
X159622609Y-51982304D01*
X159659378Y-51945535D01*
X159696148Y-51871996D01*
%TO.C,R28*%
X136300367Y-50863230D02*
X136042980Y-50495535D01*
X135859133Y-50863230D02*
X135859133Y-50091070D01*
X136153289Y-50091070D01*
X136226828Y-50127840D01*
X136263597Y-50164609D01*
X136300367Y-50238148D01*
X136300367Y-50348457D01*
X136263597Y-50421996D01*
X136226828Y-50458765D01*
X136153289Y-50495535D01*
X135859133Y-50495535D01*
X136594523Y-50164609D02*
X136631293Y-50127840D01*
X136704832Y-50091070D01*
X136888679Y-50091070D01*
X136962218Y-50127840D01*
X136998988Y-50164609D01*
X137035757Y-50238148D01*
X137035757Y-50311687D01*
X136998988Y-50421996D01*
X136557754Y-50863230D01*
X137035757Y-50863230D01*
X137476992Y-50421996D02*
X137403453Y-50385226D01*
X137366683Y-50348457D01*
X137329914Y-50274918D01*
X137329914Y-50238148D01*
X137366683Y-50164609D01*
X137403453Y-50127840D01*
X137476992Y-50091070D01*
X137624070Y-50091070D01*
X137697609Y-50127840D01*
X137734378Y-50164609D01*
X137771148Y-50238148D01*
X137771148Y-50274918D01*
X137734378Y-50348457D01*
X137697609Y-50385226D01*
X137624070Y-50421996D01*
X137476992Y-50421996D01*
X137403453Y-50458765D01*
X137366683Y-50495535D01*
X137329914Y-50569074D01*
X137329914Y-50716152D01*
X137366683Y-50789691D01*
X137403453Y-50826460D01*
X137476992Y-50863230D01*
X137624070Y-50863230D01*
X137697609Y-50826460D01*
X137734378Y-50789691D01*
X137771148Y-50716152D01*
X137771148Y-50569074D01*
X137734378Y-50495535D01*
X137697609Y-50458765D01*
X137624070Y-50421996D01*
%TO.C,R26*%
X160600367Y-51938230D02*
X160342980Y-51570535D01*
X160159133Y-51938230D02*
X160159133Y-51166070D01*
X160453289Y-51166070D01*
X160526828Y-51202840D01*
X160563597Y-51239609D01*
X160600367Y-51313148D01*
X160600367Y-51423457D01*
X160563597Y-51496996D01*
X160526828Y-51533765D01*
X160453289Y-51570535D01*
X160159133Y-51570535D01*
X160894523Y-51239609D02*
X160931293Y-51202840D01*
X161004832Y-51166070D01*
X161188679Y-51166070D01*
X161262218Y-51202840D01*
X161298988Y-51239609D01*
X161335757Y-51313148D01*
X161335757Y-51386687D01*
X161298988Y-51496996D01*
X160857754Y-51938230D01*
X161335757Y-51938230D01*
X161997609Y-51166070D02*
X161850531Y-51166070D01*
X161776992Y-51202840D01*
X161740222Y-51239609D01*
X161666683Y-51349918D01*
X161629914Y-51496996D01*
X161629914Y-51791152D01*
X161666683Y-51864691D01*
X161703453Y-51901460D01*
X161776992Y-51938230D01*
X161924070Y-51938230D01*
X161997609Y-51901460D01*
X162034378Y-51864691D01*
X162071148Y-51791152D01*
X162071148Y-51607304D01*
X162034378Y-51533765D01*
X161997609Y-51496996D01*
X161924070Y-51460226D01*
X161776992Y-51460226D01*
X161703453Y-51496996D01*
X161666683Y-51533765D01*
X161629914Y-51607304D01*
%TO.C,R3*%
X98088230Y-69724632D02*
X97720535Y-69982019D01*
X98088230Y-70165866D02*
X97316070Y-70165866D01*
X97316070Y-69871710D01*
X97352840Y-69798171D01*
X97389609Y-69761402D01*
X97463148Y-69724632D01*
X97573457Y-69724632D01*
X97646996Y-69761402D01*
X97683765Y-69798171D01*
X97720535Y-69871710D01*
X97720535Y-70165866D01*
X97316070Y-69467245D02*
X97316070Y-68989242D01*
X97610226Y-69246628D01*
X97610226Y-69136320D01*
X97646996Y-69062781D01*
X97683765Y-69026011D01*
X97757304Y-68989242D01*
X97941152Y-68989242D01*
X98014691Y-69026011D01*
X98051460Y-69062781D01*
X98088230Y-69136320D01*
X98088230Y-69356937D01*
X98051460Y-69430476D01*
X98014691Y-69467245D01*
%TO.C,R55*%
X123206855Y-49638230D02*
X122949468Y-49270535D01*
X122765621Y-49638230D02*
X122765621Y-48866070D01*
X123059777Y-48866070D01*
X123133316Y-48902840D01*
X123170085Y-48939609D01*
X123206855Y-49013148D01*
X123206855Y-49123457D01*
X123170085Y-49196996D01*
X123133316Y-49233765D01*
X123059777Y-49270535D01*
X122765621Y-49270535D01*
X123905476Y-48866070D02*
X123537781Y-48866070D01*
X123501011Y-49233765D01*
X123537781Y-49196996D01*
X123611320Y-49160226D01*
X123795167Y-49160226D01*
X123868706Y-49196996D01*
X123905476Y-49233765D01*
X123942245Y-49307304D01*
X123942245Y-49491152D01*
X123905476Y-49564691D01*
X123868706Y-49601460D01*
X123795167Y-49638230D01*
X123611320Y-49638230D01*
X123537781Y-49601460D01*
X123501011Y-49564691D01*
X124640866Y-48866070D02*
X124273171Y-48866070D01*
X124236402Y-49233765D01*
X124273171Y-49196996D01*
X124346710Y-49160226D01*
X124530558Y-49160226D01*
X124604097Y-49196996D01*
X124640866Y-49233765D01*
X124677636Y-49307304D01*
X124677636Y-49491152D01*
X124640866Y-49564691D01*
X124604097Y-49601460D01*
X124530558Y-49638230D01*
X124346710Y-49638230D01*
X124273171Y-49601460D01*
X124236402Y-49564691D01*
%TO.C,R68*%
X144881855Y-62113230D02*
X144624468Y-61745535D01*
X144440621Y-62113230D02*
X144440621Y-61341070D01*
X144734777Y-61341070D01*
X144808316Y-61377840D01*
X144845085Y-61414609D01*
X144881855Y-61488148D01*
X144881855Y-61598457D01*
X144845085Y-61671996D01*
X144808316Y-61708765D01*
X144734777Y-61745535D01*
X144440621Y-61745535D01*
X145543706Y-61341070D02*
X145396628Y-61341070D01*
X145323089Y-61377840D01*
X145286320Y-61414609D01*
X145212781Y-61524918D01*
X145176011Y-61671996D01*
X145176011Y-61966152D01*
X145212781Y-62039691D01*
X145249550Y-62076460D01*
X145323089Y-62113230D01*
X145470167Y-62113230D01*
X145543706Y-62076460D01*
X145580476Y-62039691D01*
X145617245Y-61966152D01*
X145617245Y-61782304D01*
X145580476Y-61708765D01*
X145543706Y-61671996D01*
X145470167Y-61635226D01*
X145323089Y-61635226D01*
X145249550Y-61671996D01*
X145212781Y-61708765D01*
X145176011Y-61782304D01*
X146058480Y-61671996D02*
X145984941Y-61635226D01*
X145948171Y-61598457D01*
X145911402Y-61524918D01*
X145911402Y-61488148D01*
X145948171Y-61414609D01*
X145984941Y-61377840D01*
X146058480Y-61341070D01*
X146205558Y-61341070D01*
X146279097Y-61377840D01*
X146315866Y-61414609D01*
X146352636Y-61488148D01*
X146352636Y-61524918D01*
X146315866Y-61598457D01*
X146279097Y-61635226D01*
X146205558Y-61671996D01*
X146058480Y-61671996D01*
X145984941Y-61708765D01*
X145948171Y-61745535D01*
X145911402Y-61819074D01*
X145911402Y-61966152D01*
X145948171Y-62039691D01*
X145984941Y-62076460D01*
X146058480Y-62113230D01*
X146205558Y-62113230D01*
X146279097Y-62076460D01*
X146315866Y-62039691D01*
X146352636Y-61966152D01*
X146352636Y-61819074D01*
X146315866Y-61745535D01*
X146279097Y-61708765D01*
X146205558Y-61671996D01*
%TO.C,R67*%
X143911367Y-50478230D02*
X143653980Y-50110535D01*
X143470133Y-50478230D02*
X143470133Y-49706070D01*
X143764289Y-49706070D01*
X143837828Y-49742840D01*
X143874597Y-49779609D01*
X143911367Y-49853148D01*
X143911367Y-49963457D01*
X143874597Y-50036996D01*
X143837828Y-50073765D01*
X143764289Y-50110535D01*
X143470133Y-50110535D01*
X144573218Y-49706070D02*
X144426140Y-49706070D01*
X144352601Y-49742840D01*
X144315832Y-49779609D01*
X144242293Y-49889918D01*
X144205523Y-50036996D01*
X144205523Y-50331152D01*
X144242293Y-50404691D01*
X144279062Y-50441460D01*
X144352601Y-50478230D01*
X144499679Y-50478230D01*
X144573218Y-50441460D01*
X144609988Y-50404691D01*
X144646757Y-50331152D01*
X144646757Y-50147304D01*
X144609988Y-50073765D01*
X144573218Y-50036996D01*
X144499679Y-50000226D01*
X144352601Y-50000226D01*
X144279062Y-50036996D01*
X144242293Y-50073765D01*
X144205523Y-50147304D01*
X144904144Y-49706070D02*
X145418917Y-49706070D01*
X145087992Y-50478230D01*
%TO.C,R66*%
X144131855Y-57163230D02*
X143874468Y-56795535D01*
X143690621Y-57163230D02*
X143690621Y-56391070D01*
X143984777Y-56391070D01*
X144058316Y-56427840D01*
X144095085Y-56464609D01*
X144131855Y-56538148D01*
X144131855Y-56648457D01*
X144095085Y-56721996D01*
X144058316Y-56758765D01*
X143984777Y-56795535D01*
X143690621Y-56795535D01*
X144793706Y-56391070D02*
X144646628Y-56391070D01*
X144573089Y-56427840D01*
X144536320Y-56464609D01*
X144462781Y-56574918D01*
X144426011Y-56721996D01*
X144426011Y-57016152D01*
X144462781Y-57089691D01*
X144499550Y-57126460D01*
X144573089Y-57163230D01*
X144720167Y-57163230D01*
X144793706Y-57126460D01*
X144830476Y-57089691D01*
X144867245Y-57016152D01*
X144867245Y-56832304D01*
X144830476Y-56758765D01*
X144793706Y-56721996D01*
X144720167Y-56685226D01*
X144573089Y-56685226D01*
X144499550Y-56721996D01*
X144462781Y-56758765D01*
X144426011Y-56832304D01*
X145529097Y-56391070D02*
X145382019Y-56391070D01*
X145308480Y-56427840D01*
X145271710Y-56464609D01*
X145198171Y-56574918D01*
X145161402Y-56721996D01*
X145161402Y-57016152D01*
X145198171Y-57089691D01*
X145234941Y-57126460D01*
X145308480Y-57163230D01*
X145455558Y-57163230D01*
X145529097Y-57126460D01*
X145565866Y-57089691D01*
X145602636Y-57016152D01*
X145602636Y-56832304D01*
X145565866Y-56758765D01*
X145529097Y-56721996D01*
X145455558Y-56685226D01*
X145308480Y-56685226D01*
X145234941Y-56721996D01*
X145198171Y-56758765D01*
X145161402Y-56832304D01*
%TO.C,R65*%
X142775367Y-59313230D02*
X142517980Y-58945535D01*
X142334133Y-59313230D02*
X142334133Y-58541070D01*
X142628289Y-58541070D01*
X142701828Y-58577840D01*
X142738597Y-58614609D01*
X142775367Y-58688148D01*
X142775367Y-58798457D01*
X142738597Y-58871996D01*
X142701828Y-58908765D01*
X142628289Y-58945535D01*
X142334133Y-58945535D01*
X143437218Y-58541070D02*
X143290140Y-58541070D01*
X143216601Y-58577840D01*
X143179832Y-58614609D01*
X143106293Y-58724918D01*
X143069523Y-58871996D01*
X143069523Y-59166152D01*
X143106293Y-59239691D01*
X143143062Y-59276460D01*
X143216601Y-59313230D01*
X143363679Y-59313230D01*
X143437218Y-59276460D01*
X143473988Y-59239691D01*
X143510757Y-59166152D01*
X143510757Y-58982304D01*
X143473988Y-58908765D01*
X143437218Y-58871996D01*
X143363679Y-58835226D01*
X143216601Y-58835226D01*
X143143062Y-58871996D01*
X143106293Y-58908765D01*
X143069523Y-58982304D01*
X144209378Y-58541070D02*
X143841683Y-58541070D01*
X143804914Y-58908765D01*
X143841683Y-58871996D01*
X143915222Y-58835226D01*
X144099070Y-58835226D01*
X144172609Y-58871996D01*
X144209378Y-58908765D01*
X144246148Y-58982304D01*
X144246148Y-59166152D01*
X144209378Y-59239691D01*
X144172609Y-59276460D01*
X144099070Y-59313230D01*
X143915222Y-59313230D01*
X143841683Y-59276460D01*
X143804914Y-59239691D01*
%TO.C,R59*%
X144131855Y-67438230D02*
X143874468Y-67070535D01*
X143690621Y-67438230D02*
X143690621Y-66666070D01*
X143984777Y-66666070D01*
X144058316Y-66702840D01*
X144095085Y-66739609D01*
X144131855Y-66813148D01*
X144131855Y-66923457D01*
X144095085Y-66996996D01*
X144058316Y-67033765D01*
X143984777Y-67070535D01*
X143690621Y-67070535D01*
X144830476Y-66666070D02*
X144462781Y-66666070D01*
X144426011Y-67033765D01*
X144462781Y-66996996D01*
X144536320Y-66960226D01*
X144720167Y-66960226D01*
X144793706Y-66996996D01*
X144830476Y-67033765D01*
X144867245Y-67107304D01*
X144867245Y-67291152D01*
X144830476Y-67364691D01*
X144793706Y-67401460D01*
X144720167Y-67438230D01*
X144536320Y-67438230D01*
X144462781Y-67401460D01*
X144426011Y-67364691D01*
X145234941Y-67438230D02*
X145382019Y-67438230D01*
X145455558Y-67401460D01*
X145492327Y-67364691D01*
X145565866Y-67254382D01*
X145602636Y-67107304D01*
X145602636Y-66813148D01*
X145565866Y-66739609D01*
X145529097Y-66702840D01*
X145455558Y-66666070D01*
X145308480Y-66666070D01*
X145234941Y-66702840D01*
X145198171Y-66739609D01*
X145161402Y-66813148D01*
X145161402Y-66996996D01*
X145198171Y-67070535D01*
X145234941Y-67107304D01*
X145308480Y-67144074D01*
X145455558Y-67144074D01*
X145529097Y-67107304D01*
X145565866Y-67070535D01*
X145602636Y-66996996D01*
%TO.C,R58*%
X141406855Y-66888230D02*
X141149468Y-66520535D01*
X140965621Y-66888230D02*
X140965621Y-66116070D01*
X141259777Y-66116070D01*
X141333316Y-66152840D01*
X141370085Y-66189609D01*
X141406855Y-66263148D01*
X141406855Y-66373457D01*
X141370085Y-66446996D01*
X141333316Y-66483765D01*
X141259777Y-66520535D01*
X140965621Y-66520535D01*
X142105476Y-66116070D02*
X141737781Y-66116070D01*
X141701011Y-66483765D01*
X141737781Y-66446996D01*
X141811320Y-66410226D01*
X141995167Y-66410226D01*
X142068706Y-66446996D01*
X142105476Y-66483765D01*
X142142245Y-66557304D01*
X142142245Y-66741152D01*
X142105476Y-66814691D01*
X142068706Y-66851460D01*
X141995167Y-66888230D01*
X141811320Y-66888230D01*
X141737781Y-66851460D01*
X141701011Y-66814691D01*
X142583480Y-66446996D02*
X142509941Y-66410226D01*
X142473171Y-66373457D01*
X142436402Y-66299918D01*
X142436402Y-66263148D01*
X142473171Y-66189609D01*
X142509941Y-66152840D01*
X142583480Y-66116070D01*
X142730558Y-66116070D01*
X142804097Y-66152840D01*
X142840866Y-66189609D01*
X142877636Y-66263148D01*
X142877636Y-66299918D01*
X142840866Y-66373457D01*
X142804097Y-66410226D01*
X142730558Y-66446996D01*
X142583480Y-66446996D01*
X142509941Y-66483765D01*
X142473171Y-66520535D01*
X142436402Y-66594074D01*
X142436402Y-66741152D01*
X142473171Y-66814691D01*
X142509941Y-66851460D01*
X142583480Y-66888230D01*
X142730558Y-66888230D01*
X142804097Y-66851460D01*
X142840866Y-66814691D01*
X142877636Y-66741152D01*
X142877636Y-66594074D01*
X142840866Y-66520535D01*
X142804097Y-66483765D01*
X142730558Y-66446996D01*
%TO.C,R57*%
X151263230Y-67449632D02*
X150895535Y-67707019D01*
X151263230Y-67890866D02*
X150491070Y-67890866D01*
X150491070Y-67596710D01*
X150527840Y-67523171D01*
X150564609Y-67486402D01*
X150638148Y-67449632D01*
X150748457Y-67449632D01*
X150821996Y-67486402D01*
X150858765Y-67523171D01*
X150895535Y-67596710D01*
X150895535Y-67890866D01*
X150491070Y-66751011D02*
X150491070Y-67118706D01*
X150858765Y-67155476D01*
X150821996Y-67118706D01*
X150785226Y-67045167D01*
X150785226Y-66861320D01*
X150821996Y-66787781D01*
X150858765Y-66751011D01*
X150932304Y-66714242D01*
X151116152Y-66714242D01*
X151189691Y-66751011D01*
X151226460Y-66787781D01*
X151263230Y-66861320D01*
X151263230Y-67045167D01*
X151226460Y-67118706D01*
X151189691Y-67155476D01*
X150491070Y-66456855D02*
X150491070Y-65942082D01*
X151263230Y-66273007D01*
%TO.C,R56*%
X141356855Y-65638230D02*
X141099468Y-65270535D01*
X140915621Y-65638230D02*
X140915621Y-64866070D01*
X141209777Y-64866070D01*
X141283316Y-64902840D01*
X141320085Y-64939609D01*
X141356855Y-65013148D01*
X141356855Y-65123457D01*
X141320085Y-65196996D01*
X141283316Y-65233765D01*
X141209777Y-65270535D01*
X140915621Y-65270535D01*
X142055476Y-64866070D02*
X141687781Y-64866070D01*
X141651011Y-65233765D01*
X141687781Y-65196996D01*
X141761320Y-65160226D01*
X141945167Y-65160226D01*
X142018706Y-65196996D01*
X142055476Y-65233765D01*
X142092245Y-65307304D01*
X142092245Y-65491152D01*
X142055476Y-65564691D01*
X142018706Y-65601460D01*
X141945167Y-65638230D01*
X141761320Y-65638230D01*
X141687781Y-65601460D01*
X141651011Y-65564691D01*
X142754097Y-64866070D02*
X142607019Y-64866070D01*
X142533480Y-64902840D01*
X142496710Y-64939609D01*
X142423171Y-65049918D01*
X142386402Y-65196996D01*
X142386402Y-65491152D01*
X142423171Y-65564691D01*
X142459941Y-65601460D01*
X142533480Y-65638230D01*
X142680558Y-65638230D01*
X142754097Y-65601460D01*
X142790866Y-65564691D01*
X142827636Y-65491152D01*
X142827636Y-65307304D01*
X142790866Y-65233765D01*
X142754097Y-65196996D01*
X142680558Y-65160226D01*
X142533480Y-65160226D01*
X142459941Y-65196996D01*
X142423171Y-65233765D01*
X142386402Y-65307304D01*
%TO.C,R53*%
X105125367Y-78488230D02*
X104867980Y-78120535D01*
X104684133Y-78488230D02*
X104684133Y-77716070D01*
X104978289Y-77716070D01*
X105051828Y-77752840D01*
X105088597Y-77789609D01*
X105125367Y-77863148D01*
X105125367Y-77973457D01*
X105088597Y-78046996D01*
X105051828Y-78083765D01*
X104978289Y-78120535D01*
X104684133Y-78120535D01*
X105823988Y-77716070D02*
X105456293Y-77716070D01*
X105419523Y-78083765D01*
X105456293Y-78046996D01*
X105529832Y-78010226D01*
X105713679Y-78010226D01*
X105787218Y-78046996D01*
X105823988Y-78083765D01*
X105860757Y-78157304D01*
X105860757Y-78341152D01*
X105823988Y-78414691D01*
X105787218Y-78451460D01*
X105713679Y-78488230D01*
X105529832Y-78488230D01*
X105456293Y-78451460D01*
X105419523Y-78414691D01*
X106118144Y-77716070D02*
X106596148Y-77716070D01*
X106338761Y-78010226D01*
X106449070Y-78010226D01*
X106522609Y-78046996D01*
X106559378Y-78083765D01*
X106596148Y-78157304D01*
X106596148Y-78341152D01*
X106559378Y-78414691D01*
X106522609Y-78451460D01*
X106449070Y-78488230D01*
X106228453Y-78488230D01*
X106154914Y-78451460D01*
X106118144Y-78414691D01*
%TO.C,R52*%
X103063230Y-78299632D02*
X102695535Y-78557019D01*
X103063230Y-78740866D02*
X102291070Y-78740866D01*
X102291070Y-78446710D01*
X102327840Y-78373171D01*
X102364609Y-78336402D01*
X102438148Y-78299632D01*
X102548457Y-78299632D01*
X102621996Y-78336402D01*
X102658765Y-78373171D01*
X102695535Y-78446710D01*
X102695535Y-78740866D01*
X102291070Y-77601011D02*
X102291070Y-77968706D01*
X102658765Y-78005476D01*
X102621996Y-77968706D01*
X102585226Y-77895167D01*
X102585226Y-77711320D01*
X102621996Y-77637781D01*
X102658765Y-77601011D01*
X102732304Y-77564242D01*
X102916152Y-77564242D01*
X102989691Y-77601011D01*
X103026460Y-77637781D01*
X103063230Y-77711320D01*
X103063230Y-77895167D01*
X103026460Y-77968706D01*
X102989691Y-78005476D01*
X102364609Y-77270085D02*
X102327840Y-77233316D01*
X102291070Y-77159777D01*
X102291070Y-76975929D01*
X102327840Y-76902390D01*
X102364609Y-76865621D01*
X102438148Y-76828851D01*
X102511687Y-76828851D01*
X102621996Y-76865621D01*
X103063230Y-77306855D01*
X103063230Y-76828851D01*
%TO.C,R54*%
X102188230Y-73393144D02*
X101820535Y-73650531D01*
X102188230Y-73834378D02*
X101416070Y-73834378D01*
X101416070Y-73540222D01*
X101452840Y-73466683D01*
X101489609Y-73429914D01*
X101563148Y-73393144D01*
X101673457Y-73393144D01*
X101746996Y-73429914D01*
X101783765Y-73466683D01*
X101820535Y-73540222D01*
X101820535Y-73834378D01*
X101416070Y-72694523D02*
X101416070Y-73062218D01*
X101783765Y-73098988D01*
X101746996Y-73062218D01*
X101710226Y-72988679D01*
X101710226Y-72804832D01*
X101746996Y-72731293D01*
X101783765Y-72694523D01*
X101857304Y-72657754D01*
X102041152Y-72657754D01*
X102114691Y-72694523D01*
X102151460Y-72731293D01*
X102188230Y-72804832D01*
X102188230Y-72988679D01*
X102151460Y-73062218D01*
X102114691Y-73098988D01*
X101673457Y-71995902D02*
X102188230Y-71995902D01*
X101379300Y-72179750D02*
X101930843Y-72363597D01*
X101930843Y-71885594D01*
%TO.C,R39*%
X151931855Y-65138230D02*
X151674468Y-64770535D01*
X151490621Y-65138230D02*
X151490621Y-64366070D01*
X151784777Y-64366070D01*
X151858316Y-64402840D01*
X151895085Y-64439609D01*
X151931855Y-64513148D01*
X151931855Y-64623457D01*
X151895085Y-64696996D01*
X151858316Y-64733765D01*
X151784777Y-64770535D01*
X151490621Y-64770535D01*
X152189242Y-64366070D02*
X152667245Y-64366070D01*
X152409859Y-64660226D01*
X152520167Y-64660226D01*
X152593706Y-64696996D01*
X152630476Y-64733765D01*
X152667245Y-64807304D01*
X152667245Y-64991152D01*
X152630476Y-65064691D01*
X152593706Y-65101460D01*
X152520167Y-65138230D01*
X152299550Y-65138230D01*
X152226011Y-65101460D01*
X152189242Y-65064691D01*
X153034941Y-65138230D02*
X153182019Y-65138230D01*
X153255558Y-65101460D01*
X153292327Y-65064691D01*
X153365866Y-64954382D01*
X153402636Y-64807304D01*
X153402636Y-64513148D01*
X153365866Y-64439609D01*
X153329097Y-64402840D01*
X153255558Y-64366070D01*
X153108480Y-64366070D01*
X153034941Y-64402840D01*
X152998171Y-64439609D01*
X152961402Y-64513148D01*
X152961402Y-64696996D01*
X152998171Y-64770535D01*
X153034941Y-64807304D01*
X153108480Y-64844074D01*
X153255558Y-64844074D01*
X153329097Y-64807304D01*
X153365866Y-64770535D01*
X153402636Y-64696996D01*
%TO.C,R40*%
X115875367Y-81688230D02*
X115617980Y-81320535D01*
X115434133Y-81688230D02*
X115434133Y-80916070D01*
X115728289Y-80916070D01*
X115801828Y-80952840D01*
X115838597Y-80989609D01*
X115875367Y-81063148D01*
X115875367Y-81173457D01*
X115838597Y-81246996D01*
X115801828Y-81283765D01*
X115728289Y-81320535D01*
X115434133Y-81320535D01*
X116537218Y-81173457D02*
X116537218Y-81688230D01*
X116353371Y-80879300D02*
X116169523Y-81430843D01*
X116647527Y-81430843D01*
X117088761Y-80916070D02*
X117162300Y-80916070D01*
X117235839Y-80952840D01*
X117272609Y-80989609D01*
X117309378Y-81063148D01*
X117346148Y-81210226D01*
X117346148Y-81394074D01*
X117309378Y-81541152D01*
X117272609Y-81614691D01*
X117235839Y-81651460D01*
X117162300Y-81688230D01*
X117088761Y-81688230D01*
X117015222Y-81651460D01*
X116978453Y-81614691D01*
X116941683Y-81541152D01*
X116904914Y-81394074D01*
X116904914Y-81210226D01*
X116941683Y-81063148D01*
X116978453Y-80989609D01*
X117015222Y-80952840D01*
X117088761Y-80916070D01*
%TO.C,R38*%
X156106855Y-68288230D02*
X155849468Y-67920535D01*
X155665621Y-68288230D02*
X155665621Y-67516070D01*
X155959777Y-67516070D01*
X156033316Y-67552840D01*
X156070085Y-67589609D01*
X156106855Y-67663148D01*
X156106855Y-67773457D01*
X156070085Y-67846996D01*
X156033316Y-67883765D01*
X155959777Y-67920535D01*
X155665621Y-67920535D01*
X156364242Y-67516070D02*
X156842245Y-67516070D01*
X156584859Y-67810226D01*
X156695167Y-67810226D01*
X156768706Y-67846996D01*
X156805476Y-67883765D01*
X156842245Y-67957304D01*
X156842245Y-68141152D01*
X156805476Y-68214691D01*
X156768706Y-68251460D01*
X156695167Y-68288230D01*
X156474550Y-68288230D01*
X156401011Y-68251460D01*
X156364242Y-68214691D01*
X157283480Y-67846996D02*
X157209941Y-67810226D01*
X157173171Y-67773457D01*
X157136402Y-67699918D01*
X157136402Y-67663148D01*
X157173171Y-67589609D01*
X157209941Y-67552840D01*
X157283480Y-67516070D01*
X157430558Y-67516070D01*
X157504097Y-67552840D01*
X157540866Y-67589609D01*
X157577636Y-67663148D01*
X157577636Y-67699918D01*
X157540866Y-67773457D01*
X157504097Y-67810226D01*
X157430558Y-67846996D01*
X157283480Y-67846996D01*
X157209941Y-67883765D01*
X157173171Y-67920535D01*
X157136402Y-67994074D01*
X157136402Y-68141152D01*
X157173171Y-68214691D01*
X157209941Y-68251460D01*
X157283480Y-68288230D01*
X157430558Y-68288230D01*
X157504097Y-68251460D01*
X157540866Y-68214691D01*
X157577636Y-68141152D01*
X157577636Y-67994074D01*
X157540866Y-67920535D01*
X157504097Y-67883765D01*
X157430558Y-67846996D01*
%TO.C,R41*%
X115850367Y-80238230D02*
X115592980Y-79870535D01*
X115409133Y-80238230D02*
X115409133Y-79466070D01*
X115703289Y-79466070D01*
X115776828Y-79502840D01*
X115813597Y-79539609D01*
X115850367Y-79613148D01*
X115850367Y-79723457D01*
X115813597Y-79796996D01*
X115776828Y-79833765D01*
X115703289Y-79870535D01*
X115409133Y-79870535D01*
X116512218Y-79723457D02*
X116512218Y-80238230D01*
X116328371Y-79429300D02*
X116144523Y-79980843D01*
X116622527Y-79980843D01*
X117321148Y-80238230D02*
X116879914Y-80238230D01*
X117100531Y-80238230D02*
X117100531Y-79466070D01*
X117026992Y-79576379D01*
X116953453Y-79649918D01*
X116879914Y-79686687D01*
%TO.C,R37*%
X153206855Y-67388230D02*
X152949468Y-67020535D01*
X152765621Y-67388230D02*
X152765621Y-66616070D01*
X153059777Y-66616070D01*
X153133316Y-66652840D01*
X153170085Y-66689609D01*
X153206855Y-66763148D01*
X153206855Y-66873457D01*
X153170085Y-66946996D01*
X153133316Y-66983765D01*
X153059777Y-67020535D01*
X152765621Y-67020535D01*
X153464242Y-66616070D02*
X153942245Y-66616070D01*
X153684859Y-66910226D01*
X153795167Y-66910226D01*
X153868706Y-66946996D01*
X153905476Y-66983765D01*
X153942245Y-67057304D01*
X153942245Y-67241152D01*
X153905476Y-67314691D01*
X153868706Y-67351460D01*
X153795167Y-67388230D01*
X153574550Y-67388230D01*
X153501011Y-67351460D01*
X153464242Y-67314691D01*
X154199632Y-66616070D02*
X154714405Y-66616070D01*
X154383480Y-67388230D01*
%TO.C,R36*%
X140431855Y-49288230D02*
X140174468Y-48920535D01*
X139990621Y-49288230D02*
X139990621Y-48516070D01*
X140284777Y-48516070D01*
X140358316Y-48552840D01*
X140395085Y-48589609D01*
X140431855Y-48663148D01*
X140431855Y-48773457D01*
X140395085Y-48846996D01*
X140358316Y-48883765D01*
X140284777Y-48920535D01*
X139990621Y-48920535D01*
X140689242Y-48516070D02*
X141167245Y-48516070D01*
X140909859Y-48810226D01*
X141020167Y-48810226D01*
X141093706Y-48846996D01*
X141130476Y-48883765D01*
X141167245Y-48957304D01*
X141167245Y-49141152D01*
X141130476Y-49214691D01*
X141093706Y-49251460D01*
X141020167Y-49288230D01*
X140799550Y-49288230D01*
X140726011Y-49251460D01*
X140689242Y-49214691D01*
X141829097Y-48516070D02*
X141682019Y-48516070D01*
X141608480Y-48552840D01*
X141571710Y-48589609D01*
X141498171Y-48699918D01*
X141461402Y-48846996D01*
X141461402Y-49141152D01*
X141498171Y-49214691D01*
X141534941Y-49251460D01*
X141608480Y-49288230D01*
X141755558Y-49288230D01*
X141829097Y-49251460D01*
X141865866Y-49214691D01*
X141902636Y-49141152D01*
X141902636Y-48957304D01*
X141865866Y-48883765D01*
X141829097Y-48846996D01*
X141755558Y-48810226D01*
X141608480Y-48810226D01*
X141534941Y-48846996D01*
X141498171Y-48883765D01*
X141461402Y-48957304D01*
%TO.C,R15*%
X115500367Y-90313230D02*
X115242980Y-89945535D01*
X115059133Y-90313230D02*
X115059133Y-89541070D01*
X115353289Y-89541070D01*
X115426828Y-89577840D01*
X115463597Y-89614609D01*
X115500367Y-89688148D01*
X115500367Y-89798457D01*
X115463597Y-89871996D01*
X115426828Y-89908765D01*
X115353289Y-89945535D01*
X115059133Y-89945535D01*
X116235757Y-90313230D02*
X115794523Y-90313230D01*
X116015140Y-90313230D02*
X116015140Y-89541070D01*
X115941601Y-89651379D01*
X115868062Y-89724918D01*
X115794523Y-89761687D01*
X116934378Y-89541070D02*
X116566683Y-89541070D01*
X116529914Y-89908765D01*
X116566683Y-89871996D01*
X116640222Y-89835226D01*
X116824070Y-89835226D01*
X116897609Y-89871996D01*
X116934378Y-89908765D01*
X116971148Y-89982304D01*
X116971148Y-90166152D01*
X116934378Y-90239691D01*
X116897609Y-90276460D01*
X116824070Y-90313230D01*
X116640222Y-90313230D01*
X116566683Y-90276460D01*
X116529914Y-90239691D01*
%TO.C,R17*%
X103081855Y-60513230D02*
X102824468Y-60145535D01*
X102640621Y-60513230D02*
X102640621Y-59741070D01*
X102934777Y-59741070D01*
X103008316Y-59777840D01*
X103045085Y-59814609D01*
X103081855Y-59888148D01*
X103081855Y-59998457D01*
X103045085Y-60071996D01*
X103008316Y-60108765D01*
X102934777Y-60145535D01*
X102640621Y-60145535D01*
X103817245Y-60513230D02*
X103376011Y-60513230D01*
X103596628Y-60513230D02*
X103596628Y-59741070D01*
X103523089Y-59851379D01*
X103449550Y-59924918D01*
X103376011Y-59961687D01*
X104074632Y-59741070D02*
X104589405Y-59741070D01*
X104258480Y-60513230D01*
%TO.C,R21*%
X121025367Y-50988230D02*
X120767980Y-50620535D01*
X120584133Y-50988230D02*
X120584133Y-50216070D01*
X120878289Y-50216070D01*
X120951828Y-50252840D01*
X120988597Y-50289609D01*
X121025367Y-50363148D01*
X121025367Y-50473457D01*
X120988597Y-50546996D01*
X120951828Y-50583765D01*
X120878289Y-50620535D01*
X120584133Y-50620535D01*
X121319523Y-50289609D02*
X121356293Y-50252840D01*
X121429832Y-50216070D01*
X121613679Y-50216070D01*
X121687218Y-50252840D01*
X121723988Y-50289609D01*
X121760757Y-50363148D01*
X121760757Y-50436687D01*
X121723988Y-50546996D01*
X121282754Y-50988230D01*
X121760757Y-50988230D01*
X122496148Y-50988230D02*
X122054914Y-50988230D01*
X122275531Y-50988230D02*
X122275531Y-50216070D01*
X122201992Y-50326379D01*
X122128453Y-50399918D01*
X122054914Y-50436687D01*
%TO.C,R60*%
X128563430Y-80149632D02*
X128195735Y-80407019D01*
X128563430Y-80590866D02*
X127791270Y-80590866D01*
X127791270Y-80296710D01*
X127828040Y-80223171D01*
X127864809Y-80186402D01*
X127938348Y-80149632D01*
X128048657Y-80149632D01*
X128122196Y-80186402D01*
X128158965Y-80223171D01*
X128195735Y-80296710D01*
X128195735Y-80590866D01*
X127791270Y-79487781D02*
X127791270Y-79634859D01*
X127828040Y-79708398D01*
X127864809Y-79745167D01*
X127975118Y-79818706D01*
X128122196Y-79855476D01*
X128416352Y-79855476D01*
X128489891Y-79818706D01*
X128526660Y-79781937D01*
X128563430Y-79708398D01*
X128563430Y-79561320D01*
X128526660Y-79487781D01*
X128489891Y-79451011D01*
X128416352Y-79414242D01*
X128232504Y-79414242D01*
X128158965Y-79451011D01*
X128122196Y-79487781D01*
X128085426Y-79561320D01*
X128085426Y-79708398D01*
X128122196Y-79781937D01*
X128158965Y-79818706D01*
X128232504Y-79855476D01*
X127791270Y-78936238D02*
X127791270Y-78862699D01*
X127828040Y-78789160D01*
X127864809Y-78752390D01*
X127938348Y-78715621D01*
X128085426Y-78678851D01*
X128269274Y-78678851D01*
X128416352Y-78715621D01*
X128489891Y-78752390D01*
X128526660Y-78789160D01*
X128563430Y-78862699D01*
X128563430Y-78936238D01*
X128526660Y-79009777D01*
X128489891Y-79046546D01*
X128416352Y-79083316D01*
X128269274Y-79120085D01*
X128085426Y-79120085D01*
X127938348Y-79083316D01*
X127864809Y-79046546D01*
X127828040Y-79009777D01*
X127791270Y-78936238D01*
%TO.C,R19*%
X122063230Y-80918144D02*
X121695535Y-81175531D01*
X122063230Y-81359378D02*
X121291070Y-81359378D01*
X121291070Y-81065222D01*
X121327840Y-80991683D01*
X121364609Y-80954914D01*
X121438148Y-80918144D01*
X121548457Y-80918144D01*
X121621996Y-80954914D01*
X121658765Y-80991683D01*
X121695535Y-81065222D01*
X121695535Y-81359378D01*
X122063230Y-80182754D02*
X122063230Y-80623988D01*
X122063230Y-80403371D02*
X121291070Y-80403371D01*
X121401379Y-80476910D01*
X121474918Y-80550449D01*
X121511687Y-80623988D01*
X122063230Y-79815058D02*
X122063230Y-79667980D01*
X122026460Y-79594441D01*
X121989691Y-79557672D01*
X121879382Y-79484133D01*
X121732304Y-79447363D01*
X121438148Y-79447363D01*
X121364609Y-79484133D01*
X121327840Y-79520902D01*
X121291070Y-79594441D01*
X121291070Y-79741519D01*
X121327840Y-79815058D01*
X121364609Y-79851828D01*
X121438148Y-79888597D01*
X121621996Y-79888597D01*
X121695535Y-79851828D01*
X121732304Y-79815058D01*
X121769074Y-79741519D01*
X121769074Y-79594441D01*
X121732304Y-79520902D01*
X121695535Y-79484133D01*
X121621996Y-79447363D01*
%TO.C,R18*%
X125663230Y-80949632D02*
X125295535Y-81207019D01*
X125663230Y-81390866D02*
X124891070Y-81390866D01*
X124891070Y-81096710D01*
X124927840Y-81023171D01*
X124964609Y-80986402D01*
X125038148Y-80949632D01*
X125148457Y-80949632D01*
X125221996Y-80986402D01*
X125258765Y-81023171D01*
X125295535Y-81096710D01*
X125295535Y-81390866D01*
X125663230Y-80214242D02*
X125663230Y-80655476D01*
X125663230Y-80434859D02*
X124891070Y-80434859D01*
X125001379Y-80508398D01*
X125074918Y-80581937D01*
X125111687Y-80655476D01*
X125221996Y-79773007D02*
X125185226Y-79846546D01*
X125148457Y-79883316D01*
X125074918Y-79920085D01*
X125038148Y-79920085D01*
X124964609Y-79883316D01*
X124927840Y-79846546D01*
X124891070Y-79773007D01*
X124891070Y-79625929D01*
X124927840Y-79552390D01*
X124964609Y-79515621D01*
X125038148Y-79478851D01*
X125074918Y-79478851D01*
X125148457Y-79515621D01*
X125185226Y-79552390D01*
X125221996Y-79625929D01*
X125221996Y-79773007D01*
X125258765Y-79846546D01*
X125295535Y-79883316D01*
X125369074Y-79920085D01*
X125516152Y-79920085D01*
X125589691Y-79883316D01*
X125626460Y-79846546D01*
X125663230Y-79773007D01*
X125663230Y-79625929D01*
X125626460Y-79552390D01*
X125589691Y-79515621D01*
X125516152Y-79478851D01*
X125369074Y-79478851D01*
X125295535Y-79515621D01*
X125258765Y-79552390D01*
X125221996Y-79625929D01*
%TO.C,R16*%
X166875367Y-92038230D02*
X166617980Y-91670535D01*
X166434133Y-92038230D02*
X166434133Y-91266070D01*
X166728289Y-91266070D01*
X166801828Y-91302840D01*
X166838597Y-91339609D01*
X166875367Y-91413148D01*
X166875367Y-91523457D01*
X166838597Y-91596996D01*
X166801828Y-91633765D01*
X166728289Y-91670535D01*
X166434133Y-91670535D01*
X167610757Y-92038230D02*
X167169523Y-92038230D01*
X167390140Y-92038230D02*
X167390140Y-91266070D01*
X167316601Y-91376379D01*
X167243062Y-91449918D01*
X167169523Y-91486687D01*
X168272609Y-91266070D02*
X168125531Y-91266070D01*
X168051992Y-91302840D01*
X168015222Y-91339609D01*
X167941683Y-91449918D01*
X167904914Y-91596996D01*
X167904914Y-91891152D01*
X167941683Y-91964691D01*
X167978453Y-92001460D01*
X168051992Y-92038230D01*
X168199070Y-92038230D01*
X168272609Y-92001460D01*
X168309378Y-91964691D01*
X168346148Y-91891152D01*
X168346148Y-91707304D01*
X168309378Y-91633765D01*
X168272609Y-91596996D01*
X168199070Y-91560226D01*
X168051992Y-91560226D01*
X167978453Y-91596996D01*
X167941683Y-91633765D01*
X167904914Y-91707304D01*
%TO.C,R10*%
X110675367Y-83338230D02*
X110417980Y-82970535D01*
X110234133Y-83338230D02*
X110234133Y-82566070D01*
X110528289Y-82566070D01*
X110601828Y-82602840D01*
X110638597Y-82639609D01*
X110675367Y-82713148D01*
X110675367Y-82823457D01*
X110638597Y-82896996D01*
X110601828Y-82933765D01*
X110528289Y-82970535D01*
X110234133Y-82970535D01*
X111410757Y-83338230D02*
X110969523Y-83338230D01*
X111190140Y-83338230D02*
X111190140Y-82566070D01*
X111116601Y-82676379D01*
X111043062Y-82749918D01*
X110969523Y-82786687D01*
X111888761Y-82566070D02*
X111962300Y-82566070D01*
X112035839Y-82602840D01*
X112072609Y-82639609D01*
X112109378Y-82713148D01*
X112146148Y-82860226D01*
X112146148Y-83044074D01*
X112109378Y-83191152D01*
X112072609Y-83264691D01*
X112035839Y-83301460D01*
X111962300Y-83338230D01*
X111888761Y-83338230D01*
X111815222Y-83301460D01*
X111778453Y-83264691D01*
X111741683Y-83191152D01*
X111704914Y-83044074D01*
X111704914Y-82860226D01*
X111741683Y-82713148D01*
X111778453Y-82639609D01*
X111815222Y-82602840D01*
X111888761Y-82566070D01*
%TO.C,R4*%
X103417430Y-67073954D02*
X103049735Y-67331340D01*
X103417430Y-67515188D02*
X102645270Y-67515188D01*
X102645270Y-67221032D01*
X102682040Y-67147493D01*
X102718809Y-67110723D01*
X102792348Y-67073954D01*
X102902657Y-67073954D01*
X102976196Y-67110723D01*
X103012965Y-67147493D01*
X103049735Y-67221032D01*
X103049735Y-67515188D01*
X102902657Y-66412102D02*
X103417430Y-66412102D01*
X102608500Y-66595950D02*
X103160043Y-66779797D01*
X103160043Y-66301794D01*
%TO.C,R32*%
X112750367Y-87588230D02*
X112492980Y-87220535D01*
X112309133Y-87588230D02*
X112309133Y-86816070D01*
X112603289Y-86816070D01*
X112676828Y-86852840D01*
X112713597Y-86889609D01*
X112750367Y-86963148D01*
X112750367Y-87073457D01*
X112713597Y-87146996D01*
X112676828Y-87183765D01*
X112603289Y-87220535D01*
X112309133Y-87220535D01*
X113007754Y-86816070D02*
X113485757Y-86816070D01*
X113228371Y-87110226D01*
X113338679Y-87110226D01*
X113412218Y-87146996D01*
X113448988Y-87183765D01*
X113485757Y-87257304D01*
X113485757Y-87441152D01*
X113448988Y-87514691D01*
X113412218Y-87551460D01*
X113338679Y-87588230D01*
X113118062Y-87588230D01*
X113044523Y-87551460D01*
X113007754Y-87514691D01*
X113779914Y-86889609D02*
X113816683Y-86852840D01*
X113890222Y-86816070D01*
X114074070Y-86816070D01*
X114147609Y-86852840D01*
X114184378Y-86889609D01*
X114221148Y-86963148D01*
X114221148Y-87036687D01*
X114184378Y-87146996D01*
X113743144Y-87588230D01*
X114221148Y-87588230D01*
%TO.C,R30*%
X103231855Y-71763230D02*
X102974468Y-71395535D01*
X102790621Y-71763230D02*
X102790621Y-70991070D01*
X103084777Y-70991070D01*
X103158316Y-71027840D01*
X103195085Y-71064609D01*
X103231855Y-71138148D01*
X103231855Y-71248457D01*
X103195085Y-71321996D01*
X103158316Y-71358765D01*
X103084777Y-71395535D01*
X102790621Y-71395535D01*
X103489242Y-70991070D02*
X103967245Y-70991070D01*
X103709859Y-71285226D01*
X103820167Y-71285226D01*
X103893706Y-71321996D01*
X103930476Y-71358765D01*
X103967245Y-71432304D01*
X103967245Y-71616152D01*
X103930476Y-71689691D01*
X103893706Y-71726460D01*
X103820167Y-71763230D01*
X103599550Y-71763230D01*
X103526011Y-71726460D01*
X103489242Y-71689691D01*
X104445249Y-70991070D02*
X104518788Y-70991070D01*
X104592327Y-71027840D01*
X104629097Y-71064609D01*
X104665866Y-71138148D01*
X104702636Y-71285226D01*
X104702636Y-71469074D01*
X104665866Y-71616152D01*
X104629097Y-71689691D01*
X104592327Y-71726460D01*
X104518788Y-71763230D01*
X104445249Y-71763230D01*
X104371710Y-71726460D01*
X104334941Y-71689691D01*
X104298171Y-71616152D01*
X104261402Y-71469074D01*
X104261402Y-71285226D01*
X104298171Y-71138148D01*
X104334941Y-71064609D01*
X104371710Y-71027840D01*
X104445249Y-70991070D01*
%TO.C,R27*%
X103406855Y-80488230D02*
X103149468Y-80120535D01*
X102965621Y-80488230D02*
X102965621Y-79716070D01*
X103259777Y-79716070D01*
X103333316Y-79752840D01*
X103370085Y-79789609D01*
X103406855Y-79863148D01*
X103406855Y-79973457D01*
X103370085Y-80046996D01*
X103333316Y-80083765D01*
X103259777Y-80120535D01*
X102965621Y-80120535D01*
X103701011Y-79789609D02*
X103737781Y-79752840D01*
X103811320Y-79716070D01*
X103995167Y-79716070D01*
X104068706Y-79752840D01*
X104105476Y-79789609D01*
X104142245Y-79863148D01*
X104142245Y-79936687D01*
X104105476Y-80046996D01*
X103664242Y-80488230D01*
X104142245Y-80488230D01*
X104399632Y-79716070D02*
X104914405Y-79716070D01*
X104583480Y-80488230D01*
%TO.C,R25*%
X104320855Y-68098230D02*
X104063468Y-67730535D01*
X103879621Y-68098230D02*
X103879621Y-67326070D01*
X104173777Y-67326070D01*
X104247316Y-67362840D01*
X104284085Y-67399609D01*
X104320855Y-67473148D01*
X104320855Y-67583457D01*
X104284085Y-67656996D01*
X104247316Y-67693765D01*
X104173777Y-67730535D01*
X103879621Y-67730535D01*
X104615011Y-67399609D02*
X104651781Y-67362840D01*
X104725320Y-67326070D01*
X104909167Y-67326070D01*
X104982706Y-67362840D01*
X105019476Y-67399609D01*
X105056245Y-67473148D01*
X105056245Y-67546687D01*
X105019476Y-67656996D01*
X104578242Y-68098230D01*
X105056245Y-68098230D01*
X105754866Y-67326070D02*
X105387171Y-67326070D01*
X105350402Y-67693765D01*
X105387171Y-67656996D01*
X105460710Y-67620226D01*
X105644558Y-67620226D01*
X105718097Y-67656996D01*
X105754866Y-67693765D01*
X105791636Y-67767304D01*
X105791636Y-67951152D01*
X105754866Y-68024691D01*
X105718097Y-68061460D01*
X105644558Y-68098230D01*
X105460710Y-68098230D01*
X105387171Y-68061460D01*
X105350402Y-68024691D01*
%TO.C,R24*%
X131863230Y-81649632D02*
X131495535Y-81907019D01*
X131863230Y-82090866D02*
X131091070Y-82090866D01*
X131091070Y-81796710D01*
X131127840Y-81723171D01*
X131164609Y-81686402D01*
X131238148Y-81649632D01*
X131348457Y-81649632D01*
X131421996Y-81686402D01*
X131458765Y-81723171D01*
X131495535Y-81796710D01*
X131495535Y-82090866D01*
X131164609Y-81355476D02*
X131127840Y-81318706D01*
X131091070Y-81245167D01*
X131091070Y-81061320D01*
X131127840Y-80987781D01*
X131164609Y-80951011D01*
X131238148Y-80914242D01*
X131311687Y-80914242D01*
X131421996Y-80951011D01*
X131863230Y-81392245D01*
X131863230Y-80914242D01*
X131348457Y-80252390D02*
X131863230Y-80252390D01*
X131054300Y-80436238D02*
X131605843Y-80620085D01*
X131605843Y-80142082D01*
%TO.C,R23*%
X134388230Y-83774632D02*
X134020535Y-84032019D01*
X134388230Y-84215866D02*
X133616070Y-84215866D01*
X133616070Y-83921710D01*
X133652840Y-83848171D01*
X133689609Y-83811402D01*
X133763148Y-83774632D01*
X133873457Y-83774632D01*
X133946996Y-83811402D01*
X133983765Y-83848171D01*
X134020535Y-83921710D01*
X134020535Y-84215866D01*
X133689609Y-83480476D02*
X133652840Y-83443706D01*
X133616070Y-83370167D01*
X133616070Y-83186320D01*
X133652840Y-83112781D01*
X133689609Y-83076011D01*
X133763148Y-83039242D01*
X133836687Y-83039242D01*
X133946996Y-83076011D01*
X134388230Y-83517245D01*
X134388230Y-83039242D01*
X133616070Y-82781855D02*
X133616070Y-82303851D01*
X133910226Y-82561238D01*
X133910226Y-82450929D01*
X133946996Y-82377390D01*
X133983765Y-82340621D01*
X134057304Y-82303851D01*
X134241152Y-82303851D01*
X134314691Y-82340621D01*
X134351460Y-82377390D01*
X134388230Y-82450929D01*
X134388230Y-82671546D01*
X134351460Y-82745085D01*
X134314691Y-82781855D01*
%TO.C,R22*%
X135688230Y-83699632D02*
X135320535Y-83957019D01*
X135688230Y-84140866D02*
X134916070Y-84140866D01*
X134916070Y-83846710D01*
X134952840Y-83773171D01*
X134989609Y-83736402D01*
X135063148Y-83699632D01*
X135173457Y-83699632D01*
X135246996Y-83736402D01*
X135283765Y-83773171D01*
X135320535Y-83846710D01*
X135320535Y-84140866D01*
X134989609Y-83405476D02*
X134952840Y-83368706D01*
X134916070Y-83295167D01*
X134916070Y-83111320D01*
X134952840Y-83037781D01*
X134989609Y-83001011D01*
X135063148Y-82964242D01*
X135136687Y-82964242D01*
X135246996Y-83001011D01*
X135688230Y-83442245D01*
X135688230Y-82964242D01*
X134989609Y-82670085D02*
X134952840Y-82633316D01*
X134916070Y-82559777D01*
X134916070Y-82375929D01*
X134952840Y-82302390D01*
X134989609Y-82265621D01*
X135063148Y-82228851D01*
X135136687Y-82228851D01*
X135246996Y-82265621D01*
X135688230Y-82706855D01*
X135688230Y-82228851D01*
%TO.C,Q2*%
X101948906Y-61736769D02*
X101875367Y-61700000D01*
X101801828Y-61626460D01*
X101691519Y-61516152D01*
X101617980Y-61479382D01*
X101544441Y-61479382D01*
X101581211Y-61663230D02*
X101507672Y-61626460D01*
X101434133Y-61552921D01*
X101397363Y-61405843D01*
X101397363Y-61148457D01*
X101434133Y-61001379D01*
X101507672Y-60927840D01*
X101581211Y-60891070D01*
X101728289Y-60891070D01*
X101801828Y-60927840D01*
X101875367Y-61001379D01*
X101912137Y-61148457D01*
X101912137Y-61405843D01*
X101875367Y-61552921D01*
X101801828Y-61626460D01*
X101728289Y-61663230D01*
X101581211Y-61663230D01*
X102206293Y-60964609D02*
X102243062Y-60927840D01*
X102316601Y-60891070D01*
X102500449Y-60891070D01*
X102573988Y-60927840D01*
X102610757Y-60964609D01*
X102647527Y-61038148D01*
X102647527Y-61111687D01*
X102610757Y-61221996D01*
X102169523Y-61663230D01*
X102647527Y-61663230D01*
%TO.C,Q1*%
X102911769Y-69870984D02*
X102875000Y-69944523D01*
X102801460Y-70018062D01*
X102691152Y-70128371D01*
X102654382Y-70201910D01*
X102654382Y-70275449D01*
X102838230Y-70238679D02*
X102801460Y-70312218D01*
X102727921Y-70385757D01*
X102580843Y-70422527D01*
X102323457Y-70422527D01*
X102176379Y-70385757D01*
X102102840Y-70312218D01*
X102066070Y-70238679D01*
X102066070Y-70091601D01*
X102102840Y-70018062D01*
X102176379Y-69944523D01*
X102323457Y-69907754D01*
X102580843Y-69907754D01*
X102727921Y-69944523D01*
X102801460Y-70018062D01*
X102838230Y-70091601D01*
X102838230Y-70238679D01*
X102838230Y-69172363D02*
X102838230Y-69613597D01*
X102838230Y-69392980D02*
X102066070Y-69392980D01*
X102176379Y-69466519D01*
X102249918Y-69540058D01*
X102286687Y-69613597D01*
%TO.C,PWR1*%
D26*
X117403447Y-48529038D02*
X117403447Y-47563838D01*
X117771142Y-47563838D01*
X117863066Y-47609800D01*
X117909028Y-47655761D01*
X117954990Y-47747685D01*
X117954990Y-47885571D01*
X117909028Y-47977495D01*
X117863066Y-48023457D01*
X117771142Y-48069419D01*
X117403447Y-48069419D01*
X118276723Y-47563838D02*
X118506533Y-48529038D01*
X118690380Y-47839609D01*
X118874228Y-48529038D01*
X119104038Y-47563838D01*
X120023276Y-48529038D02*
X119701542Y-48069419D01*
X119471733Y-48529038D02*
X119471733Y-47563838D01*
X119839428Y-47563838D01*
X119931352Y-47609800D01*
X119977314Y-47655761D01*
X120023276Y-47747685D01*
X120023276Y-47885571D01*
X119977314Y-47977495D01*
X119931352Y-48023457D01*
X119839428Y-48069419D01*
X119471733Y-48069419D01*
X120942514Y-48529038D02*
X120390971Y-48529038D01*
X120666742Y-48529038D02*
X120666742Y-47563838D01*
X120574819Y-47701723D01*
X120482895Y-47793647D01*
X120390971Y-47839609D01*
%TO.C,OSC1*%
D21*
X108531211Y-47541070D02*
X108678289Y-47541070D01*
X108751828Y-47577840D01*
X108825367Y-47651379D01*
X108862137Y-47798457D01*
X108862137Y-48055843D01*
X108825367Y-48202921D01*
X108751828Y-48276460D01*
X108678289Y-48313230D01*
X108531211Y-48313230D01*
X108457672Y-48276460D01*
X108384133Y-48202921D01*
X108347363Y-48055843D01*
X108347363Y-47798457D01*
X108384133Y-47651379D01*
X108457672Y-47577840D01*
X108531211Y-47541070D01*
X109156293Y-48276460D02*
X109266601Y-48313230D01*
X109450449Y-48313230D01*
X109523988Y-48276460D01*
X109560757Y-48239691D01*
X109597527Y-48166152D01*
X109597527Y-48092613D01*
X109560757Y-48019074D01*
X109523988Y-47982304D01*
X109450449Y-47945535D01*
X109303371Y-47908765D01*
X109229832Y-47871996D01*
X109193062Y-47835226D01*
X109156293Y-47761687D01*
X109156293Y-47688148D01*
X109193062Y-47614609D01*
X109229832Y-47577840D01*
X109303371Y-47541070D01*
X109487218Y-47541070D01*
X109597527Y-47577840D01*
X110369687Y-48239691D02*
X110332917Y-48276460D01*
X110222609Y-48313230D01*
X110149070Y-48313230D01*
X110038761Y-48276460D01*
X109965222Y-48202921D01*
X109928453Y-48129382D01*
X109891683Y-47982304D01*
X109891683Y-47871996D01*
X109928453Y-47724918D01*
X109965222Y-47651379D01*
X110038761Y-47577840D01*
X110149070Y-47541070D01*
X110222609Y-47541070D01*
X110332917Y-47577840D01*
X110369687Y-47614609D01*
X111105077Y-48313230D02*
X110663843Y-48313230D01*
X110884460Y-48313230D02*
X110884460Y-47541070D01*
X110810921Y-47651379D01*
X110737382Y-47724918D01*
X110663843Y-47761687D01*
%TO.C,IC8*%
X106638230Y-59215866D02*
X105866070Y-59215866D01*
X106564691Y-58406937D02*
X106601460Y-58443706D01*
X106638230Y-58554015D01*
X106638230Y-58627554D01*
X106601460Y-58737862D01*
X106527921Y-58811402D01*
X106454382Y-58848171D01*
X106307304Y-58884941D01*
X106196996Y-58884941D01*
X106049918Y-58848171D01*
X105976379Y-58811402D01*
X105902840Y-58737862D01*
X105866070Y-58627554D01*
X105866070Y-58554015D01*
X105902840Y-58443706D01*
X105939609Y-58406937D01*
X106196996Y-57965702D02*
X106160226Y-58039242D01*
X106123457Y-58076011D01*
X106049918Y-58112781D01*
X106013148Y-58112781D01*
X105939609Y-58076011D01*
X105902840Y-58039242D01*
X105866070Y-57965702D01*
X105866070Y-57818624D01*
X105902840Y-57745085D01*
X105939609Y-57708316D01*
X106013148Y-57671546D01*
X106049918Y-57671546D01*
X106123457Y-57708316D01*
X106160226Y-57745085D01*
X106196996Y-57818624D01*
X106196996Y-57965702D01*
X106233765Y-58039242D01*
X106270535Y-58076011D01*
X106344074Y-58112781D01*
X106491152Y-58112781D01*
X106564691Y-58076011D01*
X106601460Y-58039242D01*
X106638230Y-57965702D01*
X106638230Y-57818624D01*
X106601460Y-57745085D01*
X106564691Y-57708316D01*
X106491152Y-57671546D01*
X106344074Y-57671546D01*
X106270535Y-57708316D01*
X106233765Y-57745085D01*
X106196996Y-57818624D01*
%TO.C,IC10*%
X146184133Y-108988230D02*
X146184133Y-108216070D01*
X146993062Y-108914691D02*
X146956293Y-108951460D01*
X146845984Y-108988230D01*
X146772445Y-108988230D01*
X146662137Y-108951460D01*
X146588597Y-108877921D01*
X146551828Y-108804382D01*
X146515058Y-108657304D01*
X146515058Y-108546996D01*
X146551828Y-108399918D01*
X146588597Y-108326379D01*
X146662137Y-108252840D01*
X146772445Y-108216070D01*
X146845984Y-108216070D01*
X146956293Y-108252840D01*
X146993062Y-108289609D01*
X147728453Y-108988230D02*
X147287218Y-108988230D01*
X147507836Y-108988230D02*
X147507836Y-108216070D01*
X147434297Y-108326379D01*
X147360757Y-108399918D01*
X147287218Y-108436687D01*
X148206457Y-108216070D02*
X148279996Y-108216070D01*
X148353535Y-108252840D01*
X148390304Y-108289609D01*
X148427074Y-108363148D01*
X148463843Y-108510226D01*
X148463843Y-108694074D01*
X148427074Y-108841152D01*
X148390304Y-108914691D01*
X148353535Y-108951460D01*
X148279996Y-108988230D01*
X148206457Y-108988230D01*
X148132917Y-108951460D01*
X148096148Y-108914691D01*
X148059378Y-108841152D01*
X148022609Y-108694074D01*
X148022609Y-108510226D01*
X148059378Y-108363148D01*
X148096148Y-108289609D01*
X148132917Y-108252840D01*
X148206457Y-108216070D01*
%TO.C,IC4*%
X129984133Y-86363230D02*
X129984133Y-85591070D01*
X130793062Y-86289691D02*
X130756293Y-86326460D01*
X130645984Y-86363230D01*
X130572445Y-86363230D01*
X130462137Y-86326460D01*
X130388597Y-86252921D01*
X130351828Y-86179382D01*
X130315058Y-86032304D01*
X130315058Y-85921996D01*
X130351828Y-85774918D01*
X130388597Y-85701379D01*
X130462137Y-85627840D01*
X130572445Y-85591070D01*
X130645984Y-85591070D01*
X130756293Y-85627840D01*
X130793062Y-85664609D01*
X131454914Y-85848457D02*
X131454914Y-86363230D01*
X131271066Y-85554300D02*
X131087218Y-86105843D01*
X131565222Y-86105843D01*
%TO.C,IC7*%
X160963230Y-91165866D02*
X160191070Y-91165866D01*
X160889691Y-90356937D02*
X160926460Y-90393706D01*
X160963230Y-90504015D01*
X160963230Y-90577554D01*
X160926460Y-90687862D01*
X160852921Y-90761402D01*
X160779382Y-90798171D01*
X160632304Y-90834941D01*
X160521996Y-90834941D01*
X160374918Y-90798171D01*
X160301379Y-90761402D01*
X160227840Y-90687862D01*
X160191070Y-90577554D01*
X160191070Y-90504015D01*
X160227840Y-90393706D01*
X160264609Y-90356937D01*
X160191070Y-90099550D02*
X160191070Y-89584777D01*
X160963230Y-89915702D01*
%TO.C,IC3*%
X161209133Y-65038230D02*
X161209133Y-64266070D01*
X162018062Y-64964691D02*
X161981293Y-65001460D01*
X161870984Y-65038230D01*
X161797445Y-65038230D01*
X161687137Y-65001460D01*
X161613597Y-64927921D01*
X161576828Y-64854382D01*
X161540058Y-64707304D01*
X161540058Y-64596996D01*
X161576828Y-64449918D01*
X161613597Y-64376379D01*
X161687137Y-64302840D01*
X161797445Y-64266070D01*
X161870984Y-64266070D01*
X161981293Y-64302840D01*
X162018062Y-64339609D01*
X162275449Y-64266070D02*
X162753453Y-64266070D01*
X162496066Y-64560226D01*
X162606375Y-64560226D01*
X162679914Y-64596996D01*
X162716683Y-64633765D01*
X162753453Y-64707304D01*
X162753453Y-64891152D01*
X162716683Y-64964691D01*
X162679914Y-65001460D01*
X162606375Y-65038230D01*
X162385757Y-65038230D01*
X162312218Y-65001460D01*
X162275449Y-64964691D01*
%TO.C,IC6*%
X171071224Y-62063230D02*
X171071224Y-61291070D01*
X171880154Y-61989691D02*
X171843384Y-62026460D01*
X171733076Y-62063230D01*
X171659537Y-62063230D01*
X171549228Y-62026460D01*
X171475689Y-61952921D01*
X171438920Y-61879382D01*
X171402150Y-61732304D01*
X171402150Y-61621996D01*
X171438920Y-61474918D01*
X171475689Y-61401379D01*
X171549228Y-61327840D01*
X171659537Y-61291070D01*
X171733076Y-61291070D01*
X171843384Y-61327840D01*
X171880154Y-61364609D01*
X172542005Y-61291070D02*
X172394927Y-61291070D01*
X172321388Y-61327840D01*
X172284619Y-61364609D01*
X172211080Y-61474918D01*
X172174310Y-61621996D01*
X172174310Y-61916152D01*
X172211080Y-61989691D01*
X172247849Y-62026460D01*
X172321388Y-62063230D01*
X172468466Y-62063230D01*
X172542005Y-62026460D01*
X172578775Y-61989691D01*
X172615544Y-61916152D01*
X172615544Y-61732304D01*
X172578775Y-61658765D01*
X172542005Y-61621996D01*
X172468466Y-61585226D01*
X172321388Y-61585226D01*
X172247849Y-61621996D01*
X172211080Y-61658765D01*
X172174310Y-61732304D01*
%TO.C,IC5*%
X173196224Y-53988230D02*
X173196224Y-53216070D01*
X174005154Y-53914691D02*
X173968384Y-53951460D01*
X173858076Y-53988230D01*
X173784537Y-53988230D01*
X173674228Y-53951460D01*
X173600689Y-53877921D01*
X173563920Y-53804382D01*
X173527150Y-53657304D01*
X173527150Y-53546996D01*
X173563920Y-53399918D01*
X173600689Y-53326379D01*
X173674228Y-53252840D01*
X173784537Y-53216070D01*
X173858076Y-53216070D01*
X173968384Y-53252840D01*
X174005154Y-53289609D01*
X174703775Y-53216070D02*
X174336080Y-53216070D01*
X174299310Y-53583765D01*
X174336080Y-53546996D01*
X174409619Y-53510226D01*
X174593466Y-53510226D01*
X174667005Y-53546996D01*
X174703775Y-53583765D01*
X174740544Y-53657304D01*
X174740544Y-53841152D01*
X174703775Y-53914691D01*
X174667005Y-53951460D01*
X174593466Y-53988230D01*
X174409619Y-53988230D01*
X174336080Y-53951460D01*
X174299310Y-53914691D01*
%TO.C,IC12*%
X147159133Y-61613230D02*
X147159133Y-60841070D01*
X147968062Y-61539691D02*
X147931293Y-61576460D01*
X147820984Y-61613230D01*
X147747445Y-61613230D01*
X147637137Y-61576460D01*
X147563597Y-61502921D01*
X147526828Y-61429382D01*
X147490058Y-61282304D01*
X147490058Y-61171996D01*
X147526828Y-61024918D01*
X147563597Y-60951379D01*
X147637137Y-60877840D01*
X147747445Y-60841070D01*
X147820984Y-60841070D01*
X147931293Y-60877840D01*
X147968062Y-60914609D01*
X148703453Y-61613230D02*
X148262218Y-61613230D01*
X148482836Y-61613230D02*
X148482836Y-60841070D01*
X148409297Y-60951379D01*
X148335757Y-61024918D01*
X148262218Y-61061687D01*
X148997609Y-60914609D02*
X149034378Y-60877840D01*
X149107917Y-60841070D01*
X149291765Y-60841070D01*
X149365304Y-60877840D01*
X149402074Y-60914609D01*
X149438843Y-60988148D01*
X149438843Y-61061687D01*
X149402074Y-61171996D01*
X148960839Y-61613230D01*
X149438843Y-61613230D01*
%TO.C,IC11*%
X146859133Y-66638230D02*
X146859133Y-65866070D01*
X147668062Y-66564691D02*
X147631293Y-66601460D01*
X147520984Y-66638230D01*
X147447445Y-66638230D01*
X147337137Y-66601460D01*
X147263597Y-66527921D01*
X147226828Y-66454382D01*
X147190058Y-66307304D01*
X147190058Y-66196996D01*
X147226828Y-66049918D01*
X147263597Y-65976379D01*
X147337137Y-65902840D01*
X147447445Y-65866070D01*
X147520984Y-65866070D01*
X147631293Y-65902840D01*
X147668062Y-65939609D01*
X148403453Y-66638230D02*
X147962218Y-66638230D01*
X148182836Y-66638230D02*
X148182836Y-65866070D01*
X148109297Y-65976379D01*
X148035757Y-66049918D01*
X147962218Y-66086687D01*
X149138843Y-66638230D02*
X148697609Y-66638230D01*
X148918226Y-66638230D02*
X148918226Y-65866070D01*
X148844687Y-65976379D01*
X148771148Y-66049918D01*
X148697609Y-66086687D01*
%TO.C,IC9*%
D28*
X102489547Y-76251190D02*
X102489547Y-75751190D01*
X103013357Y-76203571D02*
X102989547Y-76227380D01*
X102918119Y-76251190D01*
X102870500Y-76251190D01*
X102799071Y-76227380D01*
X102751452Y-76179761D01*
X102727642Y-76132142D01*
X102703833Y-76036904D01*
X102703833Y-75965476D01*
X102727642Y-75870238D01*
X102751452Y-75822619D01*
X102799071Y-75775000D01*
X102870500Y-75751190D01*
X102918119Y-75751190D01*
X102989547Y-75775000D01*
X103013357Y-75798809D01*
X103251452Y-76251190D02*
X103346690Y-76251190D01*
X103394309Y-76227380D01*
X103418119Y-76203571D01*
X103465738Y-76132142D01*
X103489547Y-76036904D01*
X103489547Y-75846428D01*
X103465738Y-75798809D01*
X103441928Y-75775000D01*
X103394309Y-75751190D01*
X103299071Y-75751190D01*
X103251452Y-75775000D01*
X103227642Y-75798809D01*
X103203833Y-75846428D01*
X103203833Y-75965476D01*
X103227642Y-76013095D01*
X103251452Y-76036904D01*
X103299071Y-76060714D01*
X103394309Y-76060714D01*
X103441928Y-76036904D01*
X103465738Y-76013095D01*
X103489547Y-75965476D01*
%TO.C,IC2*%
D21*
X105484133Y-82063230D02*
X105484133Y-81291070D01*
X106293062Y-81989691D02*
X106256293Y-82026460D01*
X106145984Y-82063230D01*
X106072445Y-82063230D01*
X105962137Y-82026460D01*
X105888597Y-81952921D01*
X105851828Y-81879382D01*
X105815058Y-81732304D01*
X105815058Y-81621996D01*
X105851828Y-81474918D01*
X105888597Y-81401379D01*
X105962137Y-81327840D01*
X106072445Y-81291070D01*
X106145984Y-81291070D01*
X106256293Y-81327840D01*
X106293062Y-81364609D01*
X106587218Y-81364609D02*
X106623988Y-81327840D01*
X106697527Y-81291070D01*
X106881375Y-81291070D01*
X106954914Y-81327840D01*
X106991683Y-81364609D01*
X107028453Y-81438148D01*
X107028453Y-81511687D01*
X106991683Y-81621996D01*
X106550449Y-82063230D01*
X107028453Y-82063230D01*
%TO.C,FB3*%
X109166519Y-88058765D02*
X108909133Y-88058765D01*
X108909133Y-88463230D02*
X108909133Y-87691070D01*
X109276828Y-87691070D01*
X109828371Y-88058765D02*
X109938679Y-88095535D01*
X109975449Y-88132304D01*
X110012218Y-88205843D01*
X110012218Y-88316152D01*
X109975449Y-88389691D01*
X109938679Y-88426460D01*
X109865140Y-88463230D01*
X109570984Y-88463230D01*
X109570984Y-87691070D01*
X109828371Y-87691070D01*
X109901910Y-87727840D01*
X109938679Y-87764609D01*
X109975449Y-87838148D01*
X109975449Y-87911687D01*
X109938679Y-87985226D01*
X109901910Y-88021996D01*
X109828371Y-88058765D01*
X109570984Y-88058765D01*
X110269605Y-87691070D02*
X110747609Y-87691070D01*
X110490222Y-87985226D01*
X110600531Y-87985226D01*
X110674070Y-88021996D01*
X110710839Y-88058765D01*
X110747609Y-88132304D01*
X110747609Y-88316152D01*
X110710839Y-88389691D01*
X110674070Y-88426460D01*
X110600531Y-88463230D01*
X110379914Y-88463230D01*
X110306375Y-88426460D01*
X110269605Y-88389691D01*
%TO.C,FB4*%
X144577519Y-81973765D02*
X144320133Y-81973765D01*
X144320133Y-82378230D02*
X144320133Y-81606070D01*
X144687828Y-81606070D01*
X145239371Y-81973765D02*
X145349679Y-82010535D01*
X145386449Y-82047304D01*
X145423218Y-82120843D01*
X145423218Y-82231152D01*
X145386449Y-82304691D01*
X145349679Y-82341460D01*
X145276140Y-82378230D01*
X144981984Y-82378230D01*
X144981984Y-81606070D01*
X145239371Y-81606070D01*
X145312910Y-81642840D01*
X145349679Y-81679609D01*
X145386449Y-81753148D01*
X145386449Y-81826687D01*
X145349679Y-81900226D01*
X145312910Y-81936996D01*
X145239371Y-81973765D01*
X144981984Y-81973765D01*
X146085070Y-81863457D02*
X146085070Y-82378230D01*
X145901222Y-81569300D02*
X145717375Y-82120843D01*
X146195378Y-82120843D01*
%TO.C,FB2*%
X123566519Y-88508765D02*
X123309133Y-88508765D01*
X123309133Y-88913230D02*
X123309133Y-88141070D01*
X123676828Y-88141070D01*
X124228371Y-88508765D02*
X124338679Y-88545535D01*
X124375449Y-88582304D01*
X124412218Y-88655843D01*
X124412218Y-88766152D01*
X124375449Y-88839691D01*
X124338679Y-88876460D01*
X124265140Y-88913230D01*
X123970984Y-88913230D01*
X123970984Y-88141070D01*
X124228371Y-88141070D01*
X124301910Y-88177840D01*
X124338679Y-88214609D01*
X124375449Y-88288148D01*
X124375449Y-88361687D01*
X124338679Y-88435226D01*
X124301910Y-88471996D01*
X124228371Y-88508765D01*
X123970984Y-88508765D01*
X124706375Y-88214609D02*
X124743144Y-88177840D01*
X124816683Y-88141070D01*
X125000531Y-88141070D01*
X125074070Y-88177840D01*
X125110839Y-88214609D01*
X125147609Y-88288148D01*
X125147609Y-88361687D01*
X125110839Y-88471996D01*
X124669605Y-88913230D01*
X125147609Y-88913230D01*
%TO.C,FB5*%
X160571546Y-83483765D02*
X160314160Y-83483765D01*
X160314160Y-83888230D02*
X160314160Y-83116070D01*
X160681855Y-83116070D01*
X161233398Y-83483765D02*
X161343706Y-83520535D01*
X161380476Y-83557304D01*
X161417245Y-83630843D01*
X161417245Y-83741152D01*
X161380476Y-83814691D01*
X161343706Y-83851460D01*
X161270167Y-83888230D01*
X160976011Y-83888230D01*
X160976011Y-83116070D01*
X161233398Y-83116070D01*
X161306937Y-83152840D01*
X161343706Y-83189609D01*
X161380476Y-83263148D01*
X161380476Y-83336687D01*
X161343706Y-83410226D01*
X161306937Y-83446996D01*
X161233398Y-83483765D01*
X160976011Y-83483765D01*
X162115866Y-83116070D02*
X161748171Y-83116070D01*
X161711402Y-83483765D01*
X161748171Y-83446996D01*
X161821710Y-83410226D01*
X162005558Y-83410226D01*
X162079097Y-83446996D01*
X162115866Y-83483765D01*
X162152636Y-83557304D01*
X162152636Y-83741152D01*
X162115866Y-83814691D01*
X162079097Y-83851460D01*
X162005558Y-83888230D01*
X161821710Y-83888230D01*
X161748171Y-83851460D01*
X161711402Y-83814691D01*
%TO.C,FB6*%
X169674965Y-87814080D02*
X169674965Y-88071466D01*
X170079430Y-88071466D02*
X169307270Y-88071466D01*
X169307270Y-87703771D01*
X169674965Y-87152228D02*
X169711735Y-87041920D01*
X169748504Y-87005150D01*
X169822043Y-86968381D01*
X169932352Y-86968381D01*
X170005891Y-87005150D01*
X170042660Y-87041920D01*
X170079430Y-87115459D01*
X170079430Y-87409615D01*
X169307270Y-87409615D01*
X169307270Y-87152228D01*
X169344040Y-87078689D01*
X169380809Y-87041920D01*
X169454348Y-87005150D01*
X169527887Y-87005150D01*
X169601426Y-87041920D01*
X169638196Y-87078689D01*
X169674965Y-87152228D01*
X169674965Y-87409615D01*
X169307270Y-86306529D02*
X169307270Y-86453607D01*
X169344040Y-86527146D01*
X169380809Y-86563916D01*
X169491118Y-86637455D01*
X169638196Y-86674224D01*
X169932352Y-86674224D01*
X170005891Y-86637455D01*
X170042660Y-86600685D01*
X170079430Y-86527146D01*
X170079430Y-86380068D01*
X170042660Y-86306529D01*
X170005891Y-86269760D01*
X169932352Y-86232990D01*
X169748504Y-86232990D01*
X169674965Y-86269760D01*
X169638196Y-86306529D01*
X169601426Y-86380068D01*
X169601426Y-86527146D01*
X169638196Y-86600685D01*
X169674965Y-86637455D01*
X169748504Y-86674224D01*
%TO.C,FB1*%
X151341519Y-61208765D02*
X151084133Y-61208765D01*
X151084133Y-61613230D02*
X151084133Y-60841070D01*
X151451828Y-60841070D01*
X152003371Y-61208765D02*
X152113679Y-61245535D01*
X152150449Y-61282304D01*
X152187218Y-61355843D01*
X152187218Y-61466152D01*
X152150449Y-61539691D01*
X152113679Y-61576460D01*
X152040140Y-61613230D01*
X151745984Y-61613230D01*
X151745984Y-60841070D01*
X152003371Y-60841070D01*
X152076910Y-60877840D01*
X152113679Y-60914609D01*
X152150449Y-60988148D01*
X152150449Y-61061687D01*
X152113679Y-61135226D01*
X152076910Y-61171996D01*
X152003371Y-61208765D01*
X151745984Y-61208765D01*
X152922609Y-61613230D02*
X152481375Y-61613230D01*
X152701992Y-61613230D02*
X152701992Y-60841070D01*
X152628453Y-60951379D01*
X152554914Y-61024918D01*
X152481375Y-61061687D01*
%TO.C,F1*%
X174268706Y-68958765D02*
X174011320Y-68958765D01*
X174011320Y-69363230D02*
X174011320Y-68591070D01*
X174379015Y-68591070D01*
X175077636Y-69363230D02*
X174636402Y-69363230D01*
X174857019Y-69363230D02*
X174857019Y-68591070D01*
X174783480Y-68701379D01*
X174709941Y-68774918D01*
X174636402Y-68811687D01*
%TO.C,D1*%
X175229830Y-65295788D02*
X174457670Y-65295788D01*
X174457670Y-65111940D01*
X174494440Y-65001632D01*
X174567979Y-64928093D01*
X174641518Y-64891323D01*
X174788596Y-64854554D01*
X174898904Y-64854554D01*
X175045982Y-64891323D01*
X175119521Y-64928093D01*
X175193060Y-65001632D01*
X175229830Y-65111940D01*
X175229830Y-65295788D01*
X175229830Y-64119163D02*
X175229830Y-64560397D01*
X175229830Y-64339780D02*
X174457670Y-64339780D01*
X174567979Y-64413319D01*
X174641518Y-64486858D01*
X174678287Y-64560397D01*
%TO.C,C44*%
X126500367Y-43689691D02*
X126463597Y-43726460D01*
X126353289Y-43763230D01*
X126279750Y-43763230D01*
X126169441Y-43726460D01*
X126095902Y-43652921D01*
X126059133Y-43579382D01*
X126022363Y-43432304D01*
X126022363Y-43321996D01*
X126059133Y-43174918D01*
X126095902Y-43101379D01*
X126169441Y-43027840D01*
X126279750Y-42991070D01*
X126353289Y-42991070D01*
X126463597Y-43027840D01*
X126500367Y-43064609D01*
X127162218Y-43248457D02*
X127162218Y-43763230D01*
X126978371Y-42954300D02*
X126794523Y-43505843D01*
X127272527Y-43505843D01*
X127897609Y-43248457D02*
X127897609Y-43763230D01*
X127713761Y-42954300D02*
X127529914Y-43505843D01*
X128007917Y-43505843D01*
%TO.C,C49*%
X141306855Y-110839691D02*
X141270085Y-110876460D01*
X141159777Y-110913230D01*
X141086238Y-110913230D01*
X140975929Y-110876460D01*
X140902390Y-110802921D01*
X140865621Y-110729382D01*
X140828851Y-110582304D01*
X140828851Y-110471996D01*
X140865621Y-110324918D01*
X140902390Y-110251379D01*
X140975929Y-110177840D01*
X141086238Y-110141070D01*
X141159777Y-110141070D01*
X141270085Y-110177840D01*
X141306855Y-110214609D01*
X141968706Y-110398457D02*
X141968706Y-110913230D01*
X141784859Y-110104300D02*
X141601011Y-110655843D01*
X142079015Y-110655843D01*
X142409941Y-110913230D02*
X142557019Y-110913230D01*
X142630558Y-110876460D01*
X142667327Y-110839691D01*
X142740866Y-110729382D01*
X142777636Y-110582304D01*
X142777636Y-110288148D01*
X142740866Y-110214609D01*
X142704097Y-110177840D01*
X142630558Y-110141070D01*
X142483480Y-110141070D01*
X142409941Y-110177840D01*
X142373171Y-110214609D01*
X142336402Y-110288148D01*
X142336402Y-110471996D01*
X142373171Y-110545535D01*
X142409941Y-110582304D01*
X142483480Y-110619074D01*
X142630558Y-110619074D01*
X142704097Y-110582304D01*
X142740866Y-110545535D01*
X142777636Y-110471996D01*
%TO.C,C45*%
X102156855Y-58164691D02*
X102120085Y-58201460D01*
X102009777Y-58238230D01*
X101936238Y-58238230D01*
X101825929Y-58201460D01*
X101752390Y-58127921D01*
X101715621Y-58054382D01*
X101678851Y-57907304D01*
X101678851Y-57796996D01*
X101715621Y-57649918D01*
X101752390Y-57576379D01*
X101825929Y-57502840D01*
X101936238Y-57466070D01*
X102009777Y-57466070D01*
X102120085Y-57502840D01*
X102156855Y-57539609D01*
X102818706Y-57723457D02*
X102818706Y-58238230D01*
X102634859Y-57429300D02*
X102451011Y-57980843D01*
X102929015Y-57980843D01*
X103590866Y-57466070D02*
X103223171Y-57466070D01*
X103186402Y-57833765D01*
X103223171Y-57796996D01*
X103296710Y-57760226D01*
X103480558Y-57760226D01*
X103554097Y-57796996D01*
X103590866Y-57833765D01*
X103627636Y-57907304D01*
X103627636Y-58091152D01*
X103590866Y-58164691D01*
X103554097Y-58201460D01*
X103480558Y-58238230D01*
X103296710Y-58238230D01*
X103223171Y-58201460D01*
X103186402Y-58164691D01*
%TO.C,C34*%
X166650367Y-68264691D02*
X166613597Y-68301460D01*
X166503289Y-68338230D01*
X166429750Y-68338230D01*
X166319441Y-68301460D01*
X166245902Y-68227921D01*
X166209133Y-68154382D01*
X166172363Y-68007304D01*
X166172363Y-67896996D01*
X166209133Y-67749918D01*
X166245902Y-67676379D01*
X166319441Y-67602840D01*
X166429750Y-67566070D01*
X166503289Y-67566070D01*
X166613597Y-67602840D01*
X166650367Y-67639609D01*
X166907754Y-67566070D02*
X167385757Y-67566070D01*
X167128371Y-67860226D01*
X167238679Y-67860226D01*
X167312218Y-67896996D01*
X167348988Y-67933765D01*
X167385757Y-68007304D01*
X167385757Y-68191152D01*
X167348988Y-68264691D01*
X167312218Y-68301460D01*
X167238679Y-68338230D01*
X167018062Y-68338230D01*
X166944523Y-68301460D01*
X166907754Y-68264691D01*
X168047609Y-67823457D02*
X168047609Y-68338230D01*
X167863761Y-67529300D02*
X167679914Y-68080843D01*
X168157917Y-68080843D01*
%TO.C,C32*%
X170325367Y-52964691D02*
X170288597Y-53001460D01*
X170178289Y-53038230D01*
X170104750Y-53038230D01*
X169994441Y-53001460D01*
X169920902Y-52927921D01*
X169884133Y-52854382D01*
X169847363Y-52707304D01*
X169847363Y-52596996D01*
X169884133Y-52449918D01*
X169920902Y-52376379D01*
X169994441Y-52302840D01*
X170104750Y-52266070D01*
X170178289Y-52266070D01*
X170288597Y-52302840D01*
X170325367Y-52339609D01*
X170582754Y-52266070D02*
X171060757Y-52266070D01*
X170803371Y-52560226D01*
X170913679Y-52560226D01*
X170987218Y-52596996D01*
X171023988Y-52633765D01*
X171060757Y-52707304D01*
X171060757Y-52891152D01*
X171023988Y-52964691D01*
X170987218Y-53001460D01*
X170913679Y-53038230D01*
X170693062Y-53038230D01*
X170619523Y-53001460D01*
X170582754Y-52964691D01*
X171354914Y-52339609D02*
X171391683Y-52302840D01*
X171465222Y-52266070D01*
X171649070Y-52266070D01*
X171722609Y-52302840D01*
X171759378Y-52339609D01*
X171796148Y-52413148D01*
X171796148Y-52486687D01*
X171759378Y-52596996D01*
X171318144Y-53038230D01*
X171796148Y-53038230D01*
%TO.C,C30*%
D14*
X153950000Y-56231666D02*
X153983333Y-56265000D01*
X154016666Y-56365000D01*
X154016666Y-56431666D01*
X153983333Y-56531666D01*
X153916666Y-56598333D01*
X153850000Y-56631666D01*
X153716666Y-56665000D01*
X153616666Y-56665000D01*
X153483333Y-56631666D01*
X153416666Y-56598333D01*
X153350000Y-56531666D01*
X153316666Y-56431666D01*
X153316666Y-56365000D01*
X153350000Y-56265000D01*
X153383333Y-56231666D01*
X153316666Y-55998333D02*
X153316666Y-55565000D01*
X153583333Y-55798333D01*
X153583333Y-55698333D01*
X153616666Y-55631666D01*
X153650000Y-55598333D01*
X153716666Y-55565000D01*
X153883333Y-55565000D01*
X153950000Y-55598333D01*
X153983333Y-55631666D01*
X154016666Y-55698333D01*
X154016666Y-55898333D01*
X153983333Y-55965000D01*
X153950000Y-55998333D01*
X153316666Y-55131666D02*
X153316666Y-55065000D01*
X153350000Y-54998333D01*
X153383333Y-54965000D01*
X153450000Y-54931666D01*
X153583333Y-54898333D01*
X153750000Y-54898333D01*
X153883333Y-54931666D01*
X153950000Y-54965000D01*
X153983333Y-54998333D01*
X154016666Y-55065000D01*
X154016666Y-55131666D01*
X153983333Y-55198333D01*
X153950000Y-55231666D01*
X153883333Y-55265000D01*
X153750000Y-55298333D01*
X153583333Y-55298333D01*
X153450000Y-55265000D01*
X153383333Y-55231666D01*
X153350000Y-55198333D01*
X153316666Y-55131666D01*
%TO.C,C25*%
D21*
X166539691Y-49549632D02*
X166576460Y-49586402D01*
X166613230Y-49696710D01*
X166613230Y-49770249D01*
X166576460Y-49880558D01*
X166502921Y-49954097D01*
X166429382Y-49990866D01*
X166282304Y-50027636D01*
X166171996Y-50027636D01*
X166024918Y-49990866D01*
X165951379Y-49954097D01*
X165877840Y-49880558D01*
X165841070Y-49770249D01*
X165841070Y-49696710D01*
X165877840Y-49586402D01*
X165914609Y-49549632D01*
X165914609Y-49255476D02*
X165877840Y-49218706D01*
X165841070Y-49145167D01*
X165841070Y-48961320D01*
X165877840Y-48887781D01*
X165914609Y-48851011D01*
X165988148Y-48814242D01*
X166061687Y-48814242D01*
X166171996Y-48851011D01*
X166613230Y-49292245D01*
X166613230Y-48814242D01*
X165841070Y-48115621D02*
X165841070Y-48483316D01*
X166208765Y-48520085D01*
X166171996Y-48483316D01*
X166135226Y-48409777D01*
X166135226Y-48225929D01*
X166171996Y-48152390D01*
X166208765Y-48115621D01*
X166282304Y-48078851D01*
X166466152Y-48078851D01*
X166539691Y-48115621D01*
X166576460Y-48152390D01*
X166613230Y-48225929D01*
X166613230Y-48409777D01*
X166576460Y-48483316D01*
X166539691Y-48520085D01*
%TO.C,C33*%
X169275367Y-57414691D02*
X169238597Y-57451460D01*
X169128289Y-57488230D01*
X169054750Y-57488230D01*
X168944441Y-57451460D01*
X168870902Y-57377921D01*
X168834133Y-57304382D01*
X168797363Y-57157304D01*
X168797363Y-57046996D01*
X168834133Y-56899918D01*
X168870902Y-56826379D01*
X168944441Y-56752840D01*
X169054750Y-56716070D01*
X169128289Y-56716070D01*
X169238597Y-56752840D01*
X169275367Y-56789609D01*
X169532754Y-56716070D02*
X170010757Y-56716070D01*
X169753371Y-57010226D01*
X169863679Y-57010226D01*
X169937218Y-57046996D01*
X169973988Y-57083765D01*
X170010757Y-57157304D01*
X170010757Y-57341152D01*
X169973988Y-57414691D01*
X169937218Y-57451460D01*
X169863679Y-57488230D01*
X169643062Y-57488230D01*
X169569523Y-57451460D01*
X169532754Y-57414691D01*
X170268144Y-56716070D02*
X170746148Y-56716070D01*
X170488761Y-57010226D01*
X170599070Y-57010226D01*
X170672609Y-57046996D01*
X170709378Y-57083765D01*
X170746148Y-57157304D01*
X170746148Y-57341152D01*
X170709378Y-57414691D01*
X170672609Y-57451460D01*
X170599070Y-57488230D01*
X170378453Y-57488230D01*
X170304914Y-57451460D01*
X170268144Y-57414691D01*
%TO.C,C31*%
X170039691Y-61868144D02*
X170076460Y-61904914D01*
X170113230Y-62015222D01*
X170113230Y-62088761D01*
X170076460Y-62199070D01*
X170002921Y-62272609D01*
X169929382Y-62309378D01*
X169782304Y-62346148D01*
X169671996Y-62346148D01*
X169524918Y-62309378D01*
X169451379Y-62272609D01*
X169377840Y-62199070D01*
X169341070Y-62088761D01*
X169341070Y-62015222D01*
X169377840Y-61904914D01*
X169414609Y-61868144D01*
X169341070Y-61610757D02*
X169341070Y-61132754D01*
X169635226Y-61390140D01*
X169635226Y-61279832D01*
X169671996Y-61206293D01*
X169708765Y-61169523D01*
X169782304Y-61132754D01*
X169966152Y-61132754D01*
X170039691Y-61169523D01*
X170076460Y-61206293D01*
X170113230Y-61279832D01*
X170113230Y-61500449D01*
X170076460Y-61573988D01*
X170039691Y-61610757D01*
X170113230Y-60397363D02*
X170113230Y-60838597D01*
X170113230Y-60617980D02*
X169341070Y-60617980D01*
X169451379Y-60691519D01*
X169524918Y-60765058D01*
X169561687Y-60838597D01*
%TO.C,C28*%
X165050367Y-53514691D02*
X165013597Y-53551460D01*
X164903289Y-53588230D01*
X164829750Y-53588230D01*
X164719441Y-53551460D01*
X164645902Y-53477921D01*
X164609133Y-53404382D01*
X164572363Y-53257304D01*
X164572363Y-53146996D01*
X164609133Y-52999918D01*
X164645902Y-52926379D01*
X164719441Y-52852840D01*
X164829750Y-52816070D01*
X164903289Y-52816070D01*
X165013597Y-52852840D01*
X165050367Y-52889609D01*
X165344523Y-52889609D02*
X165381293Y-52852840D01*
X165454832Y-52816070D01*
X165638679Y-52816070D01*
X165712218Y-52852840D01*
X165748988Y-52889609D01*
X165785757Y-52963148D01*
X165785757Y-53036687D01*
X165748988Y-53146996D01*
X165307754Y-53588230D01*
X165785757Y-53588230D01*
X166226992Y-53146996D02*
X166153453Y-53110226D01*
X166116683Y-53073457D01*
X166079914Y-52999918D01*
X166079914Y-52963148D01*
X166116683Y-52889609D01*
X166153453Y-52852840D01*
X166226992Y-52816070D01*
X166374070Y-52816070D01*
X166447609Y-52852840D01*
X166484378Y-52889609D01*
X166521148Y-52963148D01*
X166521148Y-52999918D01*
X166484378Y-53073457D01*
X166447609Y-53110226D01*
X166374070Y-53146996D01*
X166226992Y-53146996D01*
X166153453Y-53183765D01*
X166116683Y-53220535D01*
X166079914Y-53294074D01*
X166079914Y-53441152D01*
X166116683Y-53514691D01*
X166153453Y-53551460D01*
X166226992Y-53588230D01*
X166374070Y-53588230D01*
X166447609Y-53551460D01*
X166484378Y-53514691D01*
X166521148Y-53441152D01*
X166521148Y-53294074D01*
X166484378Y-53220535D01*
X166447609Y-53183765D01*
X166374070Y-53146996D01*
%TO.C,C22*%
X163989691Y-66093144D02*
X164026460Y-66129914D01*
X164063230Y-66240222D01*
X164063230Y-66313761D01*
X164026460Y-66424070D01*
X163952921Y-66497609D01*
X163879382Y-66534378D01*
X163732304Y-66571148D01*
X163621996Y-66571148D01*
X163474918Y-66534378D01*
X163401379Y-66497609D01*
X163327840Y-66424070D01*
X163291070Y-66313761D01*
X163291070Y-66240222D01*
X163327840Y-66129914D01*
X163364609Y-66093144D01*
X163364609Y-65798988D02*
X163327840Y-65762218D01*
X163291070Y-65688679D01*
X163291070Y-65504832D01*
X163327840Y-65431293D01*
X163364609Y-65394523D01*
X163438148Y-65357754D01*
X163511687Y-65357754D01*
X163621996Y-65394523D01*
X164063230Y-65835757D01*
X164063230Y-65357754D01*
X163364609Y-65063597D02*
X163327840Y-65026828D01*
X163291070Y-64953289D01*
X163291070Y-64769441D01*
X163327840Y-64695902D01*
X163364609Y-64659133D01*
X163438148Y-64622363D01*
X163511687Y-64622363D01*
X163621996Y-64659133D01*
X164063230Y-65100367D01*
X164063230Y-64622363D01*
%TO.C,C43*%
X168881855Y-69964691D02*
X168845085Y-70001460D01*
X168734777Y-70038230D01*
X168661238Y-70038230D01*
X168550929Y-70001460D01*
X168477390Y-69927921D01*
X168440621Y-69854382D01*
X168403851Y-69707304D01*
X168403851Y-69596996D01*
X168440621Y-69449918D01*
X168477390Y-69376379D01*
X168550929Y-69302840D01*
X168661238Y-69266070D01*
X168734777Y-69266070D01*
X168845085Y-69302840D01*
X168881855Y-69339609D01*
X169543706Y-69523457D02*
X169543706Y-70038230D01*
X169359859Y-69229300D02*
X169176011Y-69780843D01*
X169654015Y-69780843D01*
X169874632Y-69266070D02*
X170352636Y-69266070D01*
X170095249Y-69560226D01*
X170205558Y-69560226D01*
X170279097Y-69596996D01*
X170315866Y-69633765D01*
X170352636Y-69707304D01*
X170352636Y-69891152D01*
X170315866Y-69964691D01*
X170279097Y-70001460D01*
X170205558Y-70038230D01*
X169984941Y-70038230D01*
X169911402Y-70001460D01*
X169874632Y-69964691D01*
%TO.C,C38*%
X137839691Y-80049632D02*
X137876460Y-80086402D01*
X137913230Y-80196710D01*
X137913230Y-80270249D01*
X137876460Y-80380558D01*
X137802921Y-80454097D01*
X137729382Y-80490866D01*
X137582304Y-80527636D01*
X137471996Y-80527636D01*
X137324918Y-80490866D01*
X137251379Y-80454097D01*
X137177840Y-80380558D01*
X137141070Y-80270249D01*
X137141070Y-80196710D01*
X137177840Y-80086402D01*
X137214609Y-80049632D01*
X137141070Y-79792245D02*
X137141070Y-79314242D01*
X137435226Y-79571628D01*
X137435226Y-79461320D01*
X137471996Y-79387781D01*
X137508765Y-79351011D01*
X137582304Y-79314242D01*
X137766152Y-79314242D01*
X137839691Y-79351011D01*
X137876460Y-79387781D01*
X137913230Y-79461320D01*
X137913230Y-79681937D01*
X137876460Y-79755476D01*
X137839691Y-79792245D01*
X137471996Y-78873007D02*
X137435226Y-78946546D01*
X137398457Y-78983316D01*
X137324918Y-79020085D01*
X137288148Y-79020085D01*
X137214609Y-78983316D01*
X137177840Y-78946546D01*
X137141070Y-78873007D01*
X137141070Y-78725929D01*
X137177840Y-78652390D01*
X137214609Y-78615621D01*
X137288148Y-78578851D01*
X137324918Y-78578851D01*
X137398457Y-78615621D01*
X137435226Y-78652390D01*
X137471996Y-78725929D01*
X137471996Y-78873007D01*
X137508765Y-78946546D01*
X137545535Y-78983316D01*
X137619074Y-79020085D01*
X137766152Y-79020085D01*
X137839691Y-78983316D01*
X137876460Y-78946546D01*
X137913230Y-78873007D01*
X137913230Y-78725929D01*
X137876460Y-78652390D01*
X137839691Y-78615621D01*
X137766152Y-78578851D01*
X137619074Y-78578851D01*
X137545535Y-78615621D01*
X137508765Y-78652390D01*
X137471996Y-78725929D01*
%TO.C,C29*%
X144180367Y-63832191D02*
X144143597Y-63868960D01*
X144033289Y-63905730D01*
X143959750Y-63905730D01*
X143849441Y-63868960D01*
X143775902Y-63795421D01*
X143739133Y-63721882D01*
X143702363Y-63574804D01*
X143702363Y-63464496D01*
X143739133Y-63317418D01*
X143775902Y-63243879D01*
X143849441Y-63170340D01*
X143959750Y-63133570D01*
X144033289Y-63133570D01*
X144143597Y-63170340D01*
X144180367Y-63207109D01*
X144474523Y-63207109D02*
X144511293Y-63170340D01*
X144584832Y-63133570D01*
X144768679Y-63133570D01*
X144842218Y-63170340D01*
X144878988Y-63207109D01*
X144915757Y-63280648D01*
X144915757Y-63354187D01*
X144878988Y-63464496D01*
X144437754Y-63905730D01*
X144915757Y-63905730D01*
X145283453Y-63905730D02*
X145430531Y-63905730D01*
X145504070Y-63868960D01*
X145540839Y-63832191D01*
X145614378Y-63721882D01*
X145651148Y-63574804D01*
X145651148Y-63280648D01*
X145614378Y-63207109D01*
X145577609Y-63170340D01*
X145504070Y-63133570D01*
X145356992Y-63133570D01*
X145283453Y-63170340D01*
X145246683Y-63207109D01*
X145209914Y-63280648D01*
X145209914Y-63464496D01*
X145246683Y-63538035D01*
X145283453Y-63574804D01*
X145356992Y-63611574D01*
X145504070Y-63611574D01*
X145577609Y-63574804D01*
X145614378Y-63538035D01*
X145651148Y-63464496D01*
%TO.C,C26*%
D27*
X154068880Y-61453571D02*
X154045071Y-61477380D01*
X153973642Y-61501190D01*
X153926023Y-61501190D01*
X153854595Y-61477380D01*
X153806976Y-61429761D01*
X153783166Y-61382142D01*
X153759357Y-61286904D01*
X153759357Y-61215476D01*
X153783166Y-61120238D01*
X153806976Y-61072619D01*
X153854595Y-61025000D01*
X153926023Y-61001190D01*
X153973642Y-61001190D01*
X154045071Y-61025000D01*
X154068880Y-61048809D01*
X154259357Y-61048809D02*
X154283166Y-61025000D01*
X154330785Y-61001190D01*
X154449833Y-61001190D01*
X154497452Y-61025000D01*
X154521261Y-61048809D01*
X154545071Y-61096428D01*
X154545071Y-61144047D01*
X154521261Y-61215476D01*
X154235547Y-61501190D01*
X154545071Y-61501190D01*
X154973642Y-61001190D02*
X154878404Y-61001190D01*
X154830785Y-61025000D01*
X154806976Y-61048809D01*
X154759357Y-61120238D01*
X154735547Y-61215476D01*
X154735547Y-61405952D01*
X154759357Y-61453571D01*
X154783166Y-61477380D01*
X154830785Y-61501190D01*
X154926023Y-61501190D01*
X154973642Y-61477380D01*
X154997452Y-61453571D01*
X155021261Y-61405952D01*
X155021261Y-61286904D01*
X154997452Y-61239285D01*
X154973642Y-61215476D01*
X154926023Y-61191666D01*
X154830785Y-61191666D01*
X154783166Y-61215476D01*
X154759357Y-61239285D01*
X154735547Y-61286904D01*
%TO.C,C23*%
X156118880Y-60453571D02*
X156095071Y-60477380D01*
X156023642Y-60501190D01*
X155976023Y-60501190D01*
X155904595Y-60477380D01*
X155856976Y-60429761D01*
X155833166Y-60382142D01*
X155809357Y-60286904D01*
X155809357Y-60215476D01*
X155833166Y-60120238D01*
X155856976Y-60072619D01*
X155904595Y-60025000D01*
X155976023Y-60001190D01*
X156023642Y-60001190D01*
X156095071Y-60025000D01*
X156118880Y-60048809D01*
X156309357Y-60048809D02*
X156333166Y-60025000D01*
X156380785Y-60001190D01*
X156499833Y-60001190D01*
X156547452Y-60025000D01*
X156571261Y-60048809D01*
X156595071Y-60096428D01*
X156595071Y-60144047D01*
X156571261Y-60215476D01*
X156285547Y-60501190D01*
X156595071Y-60501190D01*
X156761738Y-60001190D02*
X157071261Y-60001190D01*
X156904595Y-60191666D01*
X156976023Y-60191666D01*
X157023642Y-60215476D01*
X157047452Y-60239285D01*
X157071261Y-60286904D01*
X157071261Y-60405952D01*
X157047452Y-60453571D01*
X157023642Y-60477380D01*
X156976023Y-60501190D01*
X156833166Y-60501190D01*
X156785547Y-60477380D01*
X156761738Y-60453571D01*
%TO.C,C20*%
X154713261Y-60028571D02*
X154689452Y-60052380D01*
X154618023Y-60076190D01*
X154570404Y-60076190D01*
X154498976Y-60052380D01*
X154451357Y-60004761D01*
X154427547Y-59957142D01*
X154403738Y-59861904D01*
X154403738Y-59790476D01*
X154427547Y-59695238D01*
X154451357Y-59647619D01*
X154498976Y-59600000D01*
X154570404Y-59576190D01*
X154618023Y-59576190D01*
X154689452Y-59600000D01*
X154713261Y-59623809D01*
X154903738Y-59623809D02*
X154927547Y-59600000D01*
X154975166Y-59576190D01*
X155094214Y-59576190D01*
X155141833Y-59600000D01*
X155165642Y-59623809D01*
X155189452Y-59671428D01*
X155189452Y-59719047D01*
X155165642Y-59790476D01*
X154879928Y-60076190D01*
X155189452Y-60076190D01*
X155498976Y-59576190D02*
X155546595Y-59576190D01*
X155594214Y-59600000D01*
X155618023Y-59623809D01*
X155641833Y-59671428D01*
X155665642Y-59766666D01*
X155665642Y-59885714D01*
X155641833Y-59980952D01*
X155618023Y-60028571D01*
X155594214Y-60052380D01*
X155546595Y-60076190D01*
X155498976Y-60076190D01*
X155451357Y-60052380D01*
X155427547Y-60028571D01*
X155403738Y-59980952D01*
X155379928Y-59885714D01*
X155379928Y-59766666D01*
X155403738Y-59671428D01*
X155427547Y-59623809D01*
X155451357Y-59600000D01*
X155498976Y-59576190D01*
%TO.C,C18*%
X136263261Y-60903571D02*
X136239452Y-60927380D01*
X136168023Y-60951190D01*
X136120404Y-60951190D01*
X136048976Y-60927380D01*
X136001357Y-60879761D01*
X135977547Y-60832142D01*
X135953738Y-60736904D01*
X135953738Y-60665476D01*
X135977547Y-60570238D01*
X136001357Y-60522619D01*
X136048976Y-60475000D01*
X136120404Y-60451190D01*
X136168023Y-60451190D01*
X136239452Y-60475000D01*
X136263261Y-60498809D01*
X136739452Y-60951190D02*
X136453738Y-60951190D01*
X136596595Y-60951190D02*
X136596595Y-60451190D01*
X136548976Y-60522619D01*
X136501357Y-60570238D01*
X136453738Y-60594047D01*
X137025166Y-60665476D02*
X136977547Y-60641666D01*
X136953738Y-60617857D01*
X136929928Y-60570238D01*
X136929928Y-60546428D01*
X136953738Y-60498809D01*
X136977547Y-60475000D01*
X137025166Y-60451190D01*
X137120404Y-60451190D01*
X137168023Y-60475000D01*
X137191833Y-60498809D01*
X137215642Y-60546428D01*
X137215642Y-60570238D01*
X137191833Y-60617857D01*
X137168023Y-60641666D01*
X137120404Y-60665476D01*
X137025166Y-60665476D01*
X136977547Y-60689285D01*
X136953738Y-60713095D01*
X136929928Y-60760714D01*
X136929928Y-60855952D01*
X136953738Y-60903571D01*
X136977547Y-60927380D01*
X137025166Y-60951190D01*
X137120404Y-60951190D01*
X137168023Y-60927380D01*
X137191833Y-60903571D01*
X137215642Y-60855952D01*
X137215642Y-60760714D01*
X137191833Y-60713095D01*
X137168023Y-60689285D01*
X137120404Y-60665476D01*
%TO.C,C16*%
D21*
X134512367Y-56294391D02*
X134475597Y-56331160D01*
X134365289Y-56367930D01*
X134291750Y-56367930D01*
X134181441Y-56331160D01*
X134107902Y-56257621D01*
X134071133Y-56184082D01*
X134034363Y-56037004D01*
X134034363Y-55926696D01*
X134071133Y-55779618D01*
X134107902Y-55706079D01*
X134181441Y-55632540D01*
X134291750Y-55595770D01*
X134365289Y-55595770D01*
X134475597Y-55632540D01*
X134512367Y-55669309D01*
X135247757Y-56367930D02*
X134806523Y-56367930D01*
X135027140Y-56367930D02*
X135027140Y-55595770D01*
X134953601Y-55706079D01*
X134880062Y-55779618D01*
X134806523Y-55816387D01*
X135909609Y-55595770D02*
X135762531Y-55595770D01*
X135688992Y-55632540D01*
X135652222Y-55669309D01*
X135578683Y-55779618D01*
X135541914Y-55926696D01*
X135541914Y-56220852D01*
X135578683Y-56294391D01*
X135615453Y-56331160D01*
X135688992Y-56367930D01*
X135836070Y-56367930D01*
X135909609Y-56331160D01*
X135946378Y-56294391D01*
X135983148Y-56220852D01*
X135983148Y-56037004D01*
X135946378Y-55963465D01*
X135909609Y-55926696D01*
X135836070Y-55889926D01*
X135688992Y-55889926D01*
X135615453Y-55926696D01*
X135578683Y-55963465D01*
X135541914Y-56037004D01*
%TO.C,C14*%
X158650367Y-65664691D02*
X158613597Y-65701460D01*
X158503289Y-65738230D01*
X158429750Y-65738230D01*
X158319441Y-65701460D01*
X158245902Y-65627921D01*
X158209133Y-65554382D01*
X158172363Y-65407304D01*
X158172363Y-65296996D01*
X158209133Y-65149918D01*
X158245902Y-65076379D01*
X158319441Y-65002840D01*
X158429750Y-64966070D01*
X158503289Y-64966070D01*
X158613597Y-65002840D01*
X158650367Y-65039609D01*
X159385757Y-65738230D02*
X158944523Y-65738230D01*
X159165140Y-65738230D02*
X159165140Y-64966070D01*
X159091601Y-65076379D01*
X159018062Y-65149918D01*
X158944523Y-65186687D01*
X160047609Y-65223457D02*
X160047609Y-65738230D01*
X159863761Y-64929300D02*
X159679914Y-65480843D01*
X160157917Y-65480843D01*
%TO.C,C13*%
X140730367Y-56332191D02*
X140693597Y-56368960D01*
X140583289Y-56405730D01*
X140509750Y-56405730D01*
X140399441Y-56368960D01*
X140325902Y-56295421D01*
X140289133Y-56221882D01*
X140252363Y-56074804D01*
X140252363Y-55964496D01*
X140289133Y-55817418D01*
X140325902Y-55743879D01*
X140399441Y-55670340D01*
X140509750Y-55633570D01*
X140583289Y-55633570D01*
X140693597Y-55670340D01*
X140730367Y-55707109D01*
X141465757Y-56405730D02*
X141024523Y-56405730D01*
X141245140Y-56405730D02*
X141245140Y-55633570D01*
X141171601Y-55743879D01*
X141098062Y-55817418D01*
X141024523Y-55854187D01*
X141723144Y-55633570D02*
X142201148Y-55633570D01*
X141943761Y-55927726D01*
X142054070Y-55927726D01*
X142127609Y-55964496D01*
X142164378Y-56001265D01*
X142201148Y-56074804D01*
X142201148Y-56258652D01*
X142164378Y-56332191D01*
X142127609Y-56368960D01*
X142054070Y-56405730D01*
X141833453Y-56405730D01*
X141759914Y-56368960D01*
X141723144Y-56332191D01*
%TO.C,C12*%
X152700367Y-53289691D02*
X152663597Y-53326460D01*
X152553289Y-53363230D01*
X152479750Y-53363230D01*
X152369441Y-53326460D01*
X152295902Y-53252921D01*
X152259133Y-53179382D01*
X152222363Y-53032304D01*
X152222363Y-52921996D01*
X152259133Y-52774918D01*
X152295902Y-52701379D01*
X152369441Y-52627840D01*
X152479750Y-52591070D01*
X152553289Y-52591070D01*
X152663597Y-52627840D01*
X152700367Y-52664609D01*
X153435757Y-53363230D02*
X152994523Y-53363230D01*
X153215140Y-53363230D02*
X153215140Y-52591070D01*
X153141601Y-52701379D01*
X153068062Y-52774918D01*
X152994523Y-52811687D01*
X153729914Y-52664609D02*
X153766683Y-52627840D01*
X153840222Y-52591070D01*
X154024070Y-52591070D01*
X154097609Y-52627840D01*
X154134378Y-52664609D01*
X154171148Y-52738148D01*
X154171148Y-52811687D01*
X154134378Y-52921996D01*
X153693144Y-53363230D01*
X154171148Y-53363230D01*
%TO.C,C11*%
X149356855Y-53889691D02*
X149320085Y-53926460D01*
X149209777Y-53963230D01*
X149136238Y-53963230D01*
X149025929Y-53926460D01*
X148952390Y-53852921D01*
X148915621Y-53779382D01*
X148878851Y-53632304D01*
X148878851Y-53521996D01*
X148915621Y-53374918D01*
X148952390Y-53301379D01*
X149025929Y-53227840D01*
X149136238Y-53191070D01*
X149209777Y-53191070D01*
X149320085Y-53227840D01*
X149356855Y-53264609D01*
X150092245Y-53963230D02*
X149651011Y-53963230D01*
X149871628Y-53963230D02*
X149871628Y-53191070D01*
X149798089Y-53301379D01*
X149724550Y-53374918D01*
X149651011Y-53411687D01*
X150827636Y-53963230D02*
X150386402Y-53963230D01*
X150607019Y-53963230D02*
X150607019Y-53191070D01*
X150533480Y-53301379D01*
X150459941Y-53374918D01*
X150386402Y-53411687D01*
%TO.C,C10*%
X159230367Y-49472191D02*
X159193597Y-49508960D01*
X159083289Y-49545730D01*
X159009750Y-49545730D01*
X158899441Y-49508960D01*
X158825902Y-49435421D01*
X158789133Y-49361882D01*
X158752363Y-49214804D01*
X158752363Y-49104496D01*
X158789133Y-48957418D01*
X158825902Y-48883879D01*
X158899441Y-48810340D01*
X159009750Y-48773570D01*
X159083289Y-48773570D01*
X159193597Y-48810340D01*
X159230367Y-48847109D01*
X159965757Y-49545730D02*
X159524523Y-49545730D01*
X159745140Y-49545730D02*
X159745140Y-48773570D01*
X159671601Y-48883879D01*
X159598062Y-48957418D01*
X159524523Y-48994187D01*
X160443761Y-48773570D02*
X160517300Y-48773570D01*
X160590839Y-48810340D01*
X160627609Y-48847109D01*
X160664378Y-48920648D01*
X160701148Y-49067726D01*
X160701148Y-49251574D01*
X160664378Y-49398652D01*
X160627609Y-49472191D01*
X160590839Y-49508960D01*
X160517300Y-49545730D01*
X160443761Y-49545730D01*
X160370222Y-49508960D01*
X160333453Y-49472191D01*
X160296683Y-49398652D01*
X160259914Y-49251574D01*
X160259914Y-49067726D01*
X160296683Y-48920648D01*
X160333453Y-48847109D01*
X160370222Y-48810340D01*
X160443761Y-48773570D01*
%TO.C,C9*%
X161930367Y-49272191D02*
X161893597Y-49308960D01*
X161783289Y-49345730D01*
X161709750Y-49345730D01*
X161599441Y-49308960D01*
X161525902Y-49235421D01*
X161489133Y-49161882D01*
X161452363Y-49014804D01*
X161452363Y-48904496D01*
X161489133Y-48757418D01*
X161525902Y-48683879D01*
X161599441Y-48610340D01*
X161709750Y-48573570D01*
X161783289Y-48573570D01*
X161893597Y-48610340D01*
X161930367Y-48647109D01*
X162298062Y-49345730D02*
X162445140Y-49345730D01*
X162518679Y-49308960D01*
X162555449Y-49272191D01*
X162628988Y-49161882D01*
X162665757Y-49014804D01*
X162665757Y-48720648D01*
X162628988Y-48647109D01*
X162592218Y-48610340D01*
X162518679Y-48573570D01*
X162371601Y-48573570D01*
X162298062Y-48610340D01*
X162261293Y-48647109D01*
X162224523Y-48720648D01*
X162224523Y-48904496D01*
X162261293Y-48978035D01*
X162298062Y-49014804D01*
X162371601Y-49051574D01*
X162518679Y-49051574D01*
X162592218Y-49014804D01*
X162628988Y-48978035D01*
X162665757Y-48904496D01*
%TO.C,C8*%
X155767245Y-53389691D02*
X155730476Y-53426460D01*
X155620167Y-53463230D01*
X155546628Y-53463230D01*
X155436320Y-53426460D01*
X155362781Y-53352921D01*
X155326011Y-53279382D01*
X155289242Y-53132304D01*
X155289242Y-53021996D01*
X155326011Y-52874918D01*
X155362781Y-52801379D01*
X155436320Y-52727840D01*
X155546628Y-52691070D01*
X155620167Y-52691070D01*
X155730476Y-52727840D01*
X155767245Y-52764609D01*
X156208480Y-53021996D02*
X156134941Y-52985226D01*
X156098171Y-52948457D01*
X156061402Y-52874918D01*
X156061402Y-52838148D01*
X156098171Y-52764609D01*
X156134941Y-52727840D01*
X156208480Y-52691070D01*
X156355558Y-52691070D01*
X156429097Y-52727840D01*
X156465866Y-52764609D01*
X156502636Y-52838148D01*
X156502636Y-52874918D01*
X156465866Y-52948457D01*
X156429097Y-52985226D01*
X156355558Y-53021996D01*
X156208480Y-53021996D01*
X156134941Y-53058765D01*
X156098171Y-53095535D01*
X156061402Y-53169074D01*
X156061402Y-53316152D01*
X156098171Y-53389691D01*
X156134941Y-53426460D01*
X156208480Y-53463230D01*
X156355558Y-53463230D01*
X156429097Y-53426460D01*
X156465866Y-53389691D01*
X156502636Y-53316152D01*
X156502636Y-53169074D01*
X156465866Y-53095535D01*
X156429097Y-53058765D01*
X156355558Y-53021996D01*
%TO.C,C7*%
X139000367Y-53164691D02*
X138963597Y-53201460D01*
X138853289Y-53238230D01*
X138779750Y-53238230D01*
X138669441Y-53201460D01*
X138595902Y-53127921D01*
X138559133Y-53054382D01*
X138522363Y-52907304D01*
X138522363Y-52796996D01*
X138559133Y-52649918D01*
X138595902Y-52576379D01*
X138669441Y-52502840D01*
X138779750Y-52466070D01*
X138853289Y-52466070D01*
X138963597Y-52502840D01*
X139000367Y-52539609D01*
X139257754Y-52466070D02*
X139772527Y-52466070D01*
X139441601Y-53238230D01*
%TO.C,C6*%
X152067245Y-50639691D02*
X152030476Y-50676460D01*
X151920167Y-50713230D01*
X151846628Y-50713230D01*
X151736320Y-50676460D01*
X151662781Y-50602921D01*
X151626011Y-50529382D01*
X151589242Y-50382304D01*
X151589242Y-50271996D01*
X151626011Y-50124918D01*
X151662781Y-50051379D01*
X151736320Y-49977840D01*
X151846628Y-49941070D01*
X151920167Y-49941070D01*
X152030476Y-49977840D01*
X152067245Y-50014609D01*
X152729097Y-49941070D02*
X152582019Y-49941070D01*
X152508480Y-49977840D01*
X152471710Y-50014609D01*
X152398171Y-50124918D01*
X152361402Y-50271996D01*
X152361402Y-50566152D01*
X152398171Y-50639691D01*
X152434941Y-50676460D01*
X152508480Y-50713230D01*
X152655558Y-50713230D01*
X152729097Y-50676460D01*
X152765866Y-50639691D01*
X152802636Y-50566152D01*
X152802636Y-50382304D01*
X152765866Y-50308765D01*
X152729097Y-50271996D01*
X152655558Y-50235226D01*
X152508480Y-50235226D01*
X152434941Y-50271996D01*
X152398171Y-50308765D01*
X152361402Y-50382304D01*
%TO.C,C5*%
X161217245Y-53264691D02*
X161180476Y-53301460D01*
X161070167Y-53338230D01*
X160996628Y-53338230D01*
X160886320Y-53301460D01*
X160812781Y-53227921D01*
X160776011Y-53154382D01*
X160739242Y-53007304D01*
X160739242Y-52896996D01*
X160776011Y-52749918D01*
X160812781Y-52676379D01*
X160886320Y-52602840D01*
X160996628Y-52566070D01*
X161070167Y-52566070D01*
X161180476Y-52602840D01*
X161217245Y-52639609D01*
X161915866Y-52566070D02*
X161548171Y-52566070D01*
X161511402Y-52933765D01*
X161548171Y-52896996D01*
X161621710Y-52860226D01*
X161805558Y-52860226D01*
X161879097Y-52896996D01*
X161915866Y-52933765D01*
X161952636Y-53007304D01*
X161952636Y-53191152D01*
X161915866Y-53264691D01*
X161879097Y-53301460D01*
X161805558Y-53338230D01*
X161621710Y-53338230D01*
X161548171Y-53301460D01*
X161511402Y-53264691D01*
%TO.C,C48*%
D27*
X134593880Y-79453571D02*
X134570071Y-79477380D01*
X134498642Y-79501190D01*
X134451023Y-79501190D01*
X134379595Y-79477380D01*
X134331976Y-79429761D01*
X134308166Y-79382142D01*
X134284357Y-79286904D01*
X134284357Y-79215476D01*
X134308166Y-79120238D01*
X134331976Y-79072619D01*
X134379595Y-79025000D01*
X134451023Y-79001190D01*
X134498642Y-79001190D01*
X134570071Y-79025000D01*
X134593880Y-79048809D01*
X135022452Y-79167857D02*
X135022452Y-79501190D01*
X134903404Y-78977380D02*
X134784357Y-79334523D01*
X135093880Y-79334523D01*
X135355785Y-79215476D02*
X135308166Y-79191666D01*
X135284357Y-79167857D01*
X135260547Y-79120238D01*
X135260547Y-79096428D01*
X135284357Y-79048809D01*
X135308166Y-79025000D01*
X135355785Y-79001190D01*
X135451023Y-79001190D01*
X135498642Y-79025000D01*
X135522452Y-79048809D01*
X135546261Y-79096428D01*
X135546261Y-79120238D01*
X135522452Y-79167857D01*
X135498642Y-79191666D01*
X135451023Y-79215476D01*
X135355785Y-79215476D01*
X135308166Y-79239285D01*
X135284357Y-79263095D01*
X135260547Y-79310714D01*
X135260547Y-79405952D01*
X135284357Y-79453571D01*
X135308166Y-79477380D01*
X135355785Y-79501190D01*
X135451023Y-79501190D01*
X135498642Y-79477380D01*
X135522452Y-79453571D01*
X135546261Y-79405952D01*
X135546261Y-79310714D01*
X135522452Y-79263095D01*
X135498642Y-79239285D01*
X135451023Y-79215476D01*
%TO.C,C42*%
D21*
X118800367Y-93114691D02*
X118763597Y-93151460D01*
X118653289Y-93188230D01*
X118579750Y-93188230D01*
X118469441Y-93151460D01*
X118395902Y-93077921D01*
X118359133Y-93004382D01*
X118322363Y-92857304D01*
X118322363Y-92746996D01*
X118359133Y-92599918D01*
X118395902Y-92526379D01*
X118469441Y-92452840D01*
X118579750Y-92416070D01*
X118653289Y-92416070D01*
X118763597Y-92452840D01*
X118800367Y-92489609D01*
X119462218Y-92673457D02*
X119462218Y-93188230D01*
X119278371Y-92379300D02*
X119094523Y-92930843D01*
X119572527Y-92930843D01*
X119829914Y-92489609D02*
X119866683Y-92452840D01*
X119940222Y-92416070D01*
X120124070Y-92416070D01*
X120197609Y-92452840D01*
X120234378Y-92489609D01*
X120271148Y-92563148D01*
X120271148Y-92636687D01*
X120234378Y-92746996D01*
X119793144Y-93188230D01*
X120271148Y-93188230D01*
%TO.C,C4*%
X104264691Y-69899632D02*
X104301460Y-69936402D01*
X104338230Y-70046710D01*
X104338230Y-70120249D01*
X104301460Y-70230558D01*
X104227921Y-70304097D01*
X104154382Y-70340866D01*
X104007304Y-70377636D01*
X103896996Y-70377636D01*
X103749918Y-70340866D01*
X103676379Y-70304097D01*
X103602840Y-70230558D01*
X103566070Y-70120249D01*
X103566070Y-70046710D01*
X103602840Y-69936402D01*
X103639609Y-69899632D01*
X103823457Y-69237781D02*
X104338230Y-69237781D01*
X103529300Y-69421628D02*
X104080843Y-69605476D01*
X104080843Y-69127472D01*
%TO.C,C3*%
X94764691Y-69757754D02*
X94801460Y-69794523D01*
X94838230Y-69904832D01*
X94838230Y-69978371D01*
X94801460Y-70088679D01*
X94727921Y-70162218D01*
X94654382Y-70198988D01*
X94507304Y-70235757D01*
X94396996Y-70235757D01*
X94249918Y-70198988D01*
X94176379Y-70162218D01*
X94102840Y-70088679D01*
X94066070Y-69978371D01*
X94066070Y-69904832D01*
X94102840Y-69794523D01*
X94139609Y-69757754D01*
X94066070Y-69500367D02*
X94066070Y-69022363D01*
X94360226Y-69279750D01*
X94360226Y-69169441D01*
X94396996Y-69095902D01*
X94433765Y-69059133D01*
X94507304Y-69022363D01*
X94691152Y-69022363D01*
X94764691Y-69059133D01*
X94801460Y-69095902D01*
X94838230Y-69169441D01*
X94838230Y-69390058D01*
X94801460Y-69463597D01*
X94764691Y-69500367D01*
%TO.C,C2*%
X97764691Y-63532754D02*
X97801460Y-63569523D01*
X97838230Y-63679832D01*
X97838230Y-63753371D01*
X97801460Y-63863679D01*
X97727921Y-63937218D01*
X97654382Y-63973988D01*
X97507304Y-64010757D01*
X97396996Y-64010757D01*
X97249918Y-63973988D01*
X97176379Y-63937218D01*
X97102840Y-63863679D01*
X97066070Y-63753371D01*
X97066070Y-63679832D01*
X97102840Y-63569523D01*
X97139609Y-63532754D01*
X97139609Y-63238597D02*
X97102840Y-63201828D01*
X97066070Y-63128289D01*
X97066070Y-62944441D01*
X97102840Y-62870902D01*
X97139609Y-62834133D01*
X97213148Y-62797363D01*
X97286687Y-62797363D01*
X97396996Y-62834133D01*
X97838230Y-63275367D01*
X97838230Y-62797363D01*
%TO.C,C1*%
X97839691Y-66699632D02*
X97876460Y-66736402D01*
X97913230Y-66846710D01*
X97913230Y-66920249D01*
X97876460Y-67030558D01*
X97802921Y-67104097D01*
X97729382Y-67140866D01*
X97582304Y-67177636D01*
X97471996Y-67177636D01*
X97324918Y-67140866D01*
X97251379Y-67104097D01*
X97177840Y-67030558D01*
X97141070Y-66920249D01*
X97141070Y-66846710D01*
X97177840Y-66736402D01*
X97214609Y-66699632D01*
X97913230Y-65964242D02*
X97913230Y-66405476D01*
X97913230Y-66184859D02*
X97141070Y-66184859D01*
X97251379Y-66258398D01*
X97324918Y-66331937D01*
X97361687Y-66405476D01*
%TO.C,C47*%
X170031855Y-67964691D02*
X169995085Y-68001460D01*
X169884777Y-68038230D01*
X169811238Y-68038230D01*
X169700929Y-68001460D01*
X169627390Y-67927921D01*
X169590621Y-67854382D01*
X169553851Y-67707304D01*
X169553851Y-67596996D01*
X169590621Y-67449918D01*
X169627390Y-67376379D01*
X169700929Y-67302840D01*
X169811238Y-67266070D01*
X169884777Y-67266070D01*
X169995085Y-67302840D01*
X170031855Y-67339609D01*
X170693706Y-67523457D02*
X170693706Y-68038230D01*
X170509859Y-67229300D02*
X170326011Y-67780843D01*
X170804015Y-67780843D01*
X171024632Y-67266070D02*
X171539405Y-67266070D01*
X171208480Y-68038230D01*
%TO.C,C46*%
X105525367Y-48414691D02*
X105488597Y-48451460D01*
X105378289Y-48488230D01*
X105304750Y-48488230D01*
X105194441Y-48451460D01*
X105120902Y-48377921D01*
X105084133Y-48304382D01*
X105047363Y-48157304D01*
X105047363Y-48046996D01*
X105084133Y-47899918D01*
X105120902Y-47826379D01*
X105194441Y-47752840D01*
X105304750Y-47716070D01*
X105378289Y-47716070D01*
X105488597Y-47752840D01*
X105525367Y-47789609D01*
X106187218Y-47973457D02*
X106187218Y-48488230D01*
X106003371Y-47679300D02*
X105819523Y-48230843D01*
X106297527Y-48230843D01*
X106922609Y-47716070D02*
X106775531Y-47716070D01*
X106701992Y-47752840D01*
X106665222Y-47789609D01*
X106591683Y-47899918D01*
X106554914Y-48046996D01*
X106554914Y-48341152D01*
X106591683Y-48414691D01*
X106628453Y-48451460D01*
X106701992Y-48488230D01*
X106849070Y-48488230D01*
X106922609Y-48451460D01*
X106959378Y-48414691D01*
X106996148Y-48341152D01*
X106996148Y-48157304D01*
X106959378Y-48083765D01*
X106922609Y-48046996D01*
X106849070Y-48010226D01*
X106701992Y-48010226D01*
X106628453Y-48046996D01*
X106591683Y-48083765D01*
X106554914Y-48157304D01*
%TD*%
M02*
